<svg height="70" viewBox="0 0 512 512" width="70" xmlns="http://www.w3.org/2000/svg"><path d="m154 60h-4v10h-66v382h70zm0 0" fill="#e0f4ff"/><path d="m362 70c0-9.101562 0-44.226562 0-60h-178v50 432h8v-119h34v-10h132v129h4v-30h34v-10h66v-382zm-41 260c-16.085938 0-115.949219 0-132 0v-40h132zm0-80c-16.085938 0-115.949219 0-132 0v-40h132zm0-80c-16.085938 0-115.949219 0-132 0v-40h132zm0-80c-16.085938 0-115.949219 0-132 0v-40h132zm0 0" fill="#e0f4ff"/><path d="m392 501.75h90v-39.75c-19.265625 0-59.554688 0-90 0zm0 0" fill="#7c8388"/><path d="m392 357.5h90v-39.5c-19.265625 0-59.554688 0-90 0zm0 0" fill="#5ecef4"/><path d="m392 213.5h90v-39.5c-19.265625 0-59.554688 0-90 0zm0 0" fill="#5ecef4"/><path d="m482 70v-38.667969h-90v38.667969zm0 0" fill="#5ecef4"/><path d="m216 370v132h106v-132c-11.945312 0-70.292969 0-106 0zm0 0" fill="#7c8388"/><g fill="#5ecef4"><path d="m218 88h105v-39c-11.832031 0-69.214844 0-105 0zm0 0"/><path d="m218 328h104v-38c-11.722656 0-68.152344 0-104 0zm0 0"/><path d="m322 250v-39c-35.835938 0-92.253906 0-104 0v39zm0 0"/><path d="m218 169h104v-39c-11.722656 0-68.152344 0-104 0zm0 0"/></g><path d="m58 501h92v-39c-18.1875 0-60.351562 0-92 0zm0 0" fill="#7c8388"/><path d="m56 318v40h94v-40c-18.570312 0-62.148438 0-94 0zm0 0" fill="#5ecef4"/><path d="m150 214v-38c-30.835938 0-73.890625 0-94 0v38zm0 0" fill="#5ecef4"/><path d="m55 30v40h95v-40zm0 0" fill="#5ecef4"/><path d="m502 492h-10v-30c0-5.523438-4.476562-10-10-10h-10v-84h10c5.523438 0 10-4.476562 10-10v-40c0-5.523438-4.476562-10-10-10h-10v-84h10c5.523438 0 10-4.476562 10-10v-40c0-5.523438-4.476562-10-10-10h-10v-84h10c5.523438 0 10-4.476562 10-10v-40c0-5.523438-4.476562-10-10-10h-110v-10c0-5.523438-4.476562-10-10-10h-61c-5.523438 0-10 4.476562-10 10s4.476562 10 10 10h51v472h-20v-122c0-5.523438-4.476562-10-10-10h-132c-5.523438 0-10 4.476562-10 10v122h-20v-472h51c5.523438 0 10-4.476562 10-10s-4.476562-10-10-10h-61c-5.523438 0-10 4.476562-10 10v10h-110c-5.523438 0-10 4.476562-10 10v40c0 5.523438 4.476562 10 10 10h10v84h-10c-5.523438 0-10 4.476562-10 10v40c0 5.523438 4.476562 10 10 10h10v84h-10c-5.523438 0-10 4.476562-10 10v40c0 5.523438 4.476562 10 10 10h10v84h-10c-5.523438 0-10 4.476562-10 10v30h-10c-5.523438 0-10 4.476562-10 10s4.476562 10 10 10h492c5.523438 0 10-4.476562 10-10s-4.476562-10-10-10zm-50-40h-80v-84h80zm20-104h-100v-20h100zm-20-40h-80v-84h80zm20-104h-100v-20h100zm-20-40h-80v-84h80zm20-124v20h-100v-20zm-100 432h100v20h-100zm-60 20h-46v-112h46zm-112-112h46v112h-46zm-160-340h100v20h-100zm20 40h80v84h-80zm-20 104h100v20h-100zm20 40h80v84h-80zm-20 104h100v20h-100zm20 40h80v84h-80zm-20 104h100v20h-100zm0 0"/><path d="m266 10c0 5.523438-4.476562 10-10 10s-10-4.476562-10-10 4.476562-10 10-10 10 4.476562 10 10zm0 0"/><path d="m322 280h-132c-5.523438 0-10 4.476562-10 10v40c0 5.523438 4.476562 10 10 10h132c5.523438 0 10-4.476562 10-10v-40c0-5.523438-4.476562-10-10-10zm-122 20h46v20h-46zm112 20h-46v-20h46zm0 0"/><path d="m332 210c0-5.523438-4.476562-10-10-10h-132c-5.523438 0-10 4.476562-10 10v40c0 5.523438 4.476562 10 10 10h132c5.523438 0 10-4.476562 10-10zm-132 10h46v20h-46zm112 20h-46v-20h46zm0 0"/><path d="m180 50v40c0 5.523438 4.476562 10 10 10h132c5.523438 0 10-4.476562 10-10v-40c0-5.523438-4.476562-10-10-10h-132c-5.523438 0-10 4.476562-10 10zm132 30h-46v-20h46zm-112-20h46v20h-46zm0 0"/><path d="m332 130c0-5.523438-4.476562-10-10-10h-132c-5.523438 0-10 4.476562-10 10v40c0 5.523438 4.476562 10 10 10h132c5.523438 0 10-4.476562 10-10zm-132 10h46v20h-46zm112 20h-46v-20h46zm0 0"/><path d="m402 420h20c5.523438 0 10-4.476562 10-10s-4.476562-10-10-10h-20c-5.523438 0-10 4.476562-10 10s4.476562 10 10 10zm0 0"/><path d="m402 276h20c5.523438 0 10-4.476562 10-10s-4.476562-10-10-10h-20c-5.523438 0-10 4.476562-10 10s4.476562 10 10 10zm0 0"/><path d="m402 132h20c5.523438 0 10-4.476562 10-10s-4.476562-10-10-10h-20c-5.523438 0-10 4.476562-10 10s4.476562 10 10 10zm0 0"/><path d="m110 400h-20c-5.523438 0-10 4.476562-10 10s4.476562 10 10 10h20c5.523438 0 10-4.476562 10-10s-4.476562-10-10-10zm0 0"/><path d="m110 256h-20c-5.523438 0-10 4.476562-10 10s4.476562 10 10 10h20c5.523438 0 10-4.476562 10-10s-4.476562-10-10-10zm0 0"/><path d="m110 112h-20c-5.523438 0-10 4.476562-10 10s4.476562 10 10 10h20c5.523438 0 10-4.476562 10-10s-4.476562-10-10-10zm0 0"/></svg>