<svg height="70" viewBox="-54 0 512 512.00031" width="70" xmlns="http://www.w3.org/2000/svg"><path d="m72.078125 45.035156h21.148437c11.847657 0 21.449219 9.601563 21.449219 21.449219v60.546875l33.890625.382812v-79.695312c0-20.941406-16.976562-37.917969-37.917968-37.917969h-6.171876c-20.867187 2.730469-29.726562 18.0625-32.398437 35.234375zm0 0" fill="#ffedd1"/><path d="m288.722656 66.484375c0-11.847656 9.601563-21.449219 21.445313-21.449219h21.152343c-6.105468-39.1875-38.472656-35.183594-38.570312-35.230468-20.941406 0-37.917969 16.976562-37.917969 37.914062v79.695312l33.890625-.382812zm0 0" fill="#ffedd1"/><path d="m327.402344 9.804688c-9.09375 0-16.207032 0-28.480469 0 26.761719 3.496093 34.976563 28.160156 33.082031 55.082031l-3.328125 47.367187c-.574219 8.167969-7.367187 14.5-15.554687 14.5-58.171875.65625-149.464844 1.816406-222.84375 0-8.1875 0-14.980469-6.332031-15.554688-14.5l-3.328125-47.367187c-.457031-6.484375-.335937-13.300781.683594-19.847657 2.671875-17.171874 11.53125-32.507812 32.398437-35.234374-8.234374 0-15.386718 0-28.484374 0-30.304688 0-55.835938 20.433593-63.574219 48.273437-6.613281 23.789063-1.394531 83.441406 18.386719 419.058594 1.027343 17.375 18.460937 28.886719 34.847656 23.015625 8.230468-2.378906 32.703125-14.695313 70.222656-14.695313h131.644531c37.585938 0 62.023438 12.324219 70.222657 14.695313 16.386718 5.871094 33.820312-5.640625 34.851562-23.015625 14.082031-247.351563 25.15625-386.617188 19.460938-414.589844-6.128907-30.097656-32.746094-52.742187-64.652344-52.742187zm-22.835938 306.796874c0 13.988282-11.34375 25.332032-25.335937 25.332032h-165.105469c-13.988281 0-25.332031-11.339844-25.332031-25.332032v-72.21875c0-13.992187 11.34375-25.335937 25.332031-25.335937h165.105469c13.992187 0 25.335937 11.34375 25.335937 25.335937zm0 0" fill="#91def5"/><path d="m279.230469 219.046875h-165.105469c-13.988281 0-25.332031 11.34375-25.332031 25.335937v72.21875c0 13.988282 11.34375 25.332032 25.332031 25.332032h165.105469c13.992187 0 25.335937-11.339844 25.335937-25.332032v-72.21875c0-13.992187-11.34375-25.335937-25.335937-25.335937zm0 0" fill="#ffcb7c"/><path d="m279.230469 209.242188h-165.105469c-19.484375 0-35.335938 15.855468-35.335938 35.339843v72.222657c0 19.484374 15.851563 35.339843 35.335938 35.339843h75.621094c5.523437 0 10.003906-4.480469 10.003906-10.007812 0-5.523438-4.480469-10.007813-10.003906-10.007813h-75.621094c-8.449219 0-15.324219-6.875-15.324219-15.324218v-72.222657c0-8.449219 6.875-15.328125 15.324219-15.328125h165.105469c8.453125 0 15.328125 6.878906 15.328125 15.328125v72.222657c0 8.449218-6.875 15.324218-15.328125 15.324218h-9.066407c-5.527343 0-10.007812 4.484375-10.007812 10.007813 0 5.527343 4.480469 10.007812 10.007812 10.007812h9.066407c19.488281 0 35.339843-15.855469 35.339843-35.339843v-72.222657c0-19.484375-15.851562-35.339843-35.339843-35.339843zm0 0"/><path d="m229.980469 332.132812h-.027344c-5.523437 0-9.992187 4.480469-9.992187 10.003907 0 5.527343 4.492187 10.007812 10.019531 10.007812 5.527343 0 10.003906-4.480469 10.003906-10.007812 0-5.523438-4.480469-10.003907-10.003906-10.003907zm0 0"/><path d="m327.402344 0c-12.914063 0-21.929688 0-34.652344 0-26.425781 0-47.925781 21.5-47.925781 47.921875v69.800781c3.527343.242188-50.136719.070313-86.253907 0v-69.800781c0-26.421875-21.496093-47.921875-47.921874-47.921875-12.59375 0-21.660157 0-34.652344 0-42.03125 0-75.9882815 34.210938-75.9882815 75.984375.0859375 6.417969-.6093745 40.957031 2.6367185 95.703125l18.171875 306.246094c.679688 11.457031 6.5625 21.65625 16.140625 27.980468 27.574219 18.210938 40.570313-10.25 98.917969-10.25h131.644531c44.722657 0 61.800781 16.257813 79.105469 16.257813 18.085938 0 34.773438-14.011719 35.957031-33.992187l18.171875-306.242188c3.074219-51.816406 2.582032-91.703125 2.636719-95.703125-.003906-41.898437-34.089844-75.984375-75.988281-75.984375zm-62.5625 47.921875c0-15.390625 12.519531-27.910156 27.910156-27.910156.710938.199219 17.601562-2.730469 25.445312 15.222656h-8.023437c-17.34375 0-31.457031 14.109375-31.457031 31.453125v50.652344l-13.875.15625zm33.886718 18.765625c0-6.308594 5.132813-11.441406 11.445313-11.441406h12.035156c.242188 7.464844-.289062 9.128906-3.511719 56.511718-.1875 2.640626-2.261718 5.105469-5.6875 5.195313l-14.28125.160156zm-208.449218 50.265625c-2.921875 0-5.367188-2.28125-5.574219-5.195313-3.222656-47.414062-3.753906-49.054687-3.511719-56.511718h12.035156c6.308594 0 11.445313 5.132812 11.445313 11.441406v50.425781c-19.46875-.21875-13.078125-.160156-14.394531-.160156zm48.28125-69.03125v69.574219l-13.878906-.15625v-50.652344c0-17.34375-14.109376-31.453125-31.453126-31.453125h-8.023437c7.867187-17.992187 24.636719-15 25.445313-15.222656 15.390624 0 27.910156 12.519531 27.910156 27.910156zm242.21875 122.582031-18.171875 306.242188c-.632813 10.71875-11.371094 17.8125-21.484375 14.1875-8.410156-2.421875-33.996094-15.28125-73.601563-15.28125h-131.644531c-39.5625 0-65.253906 12.878906-73.597656 15.28125-10.113282 3.621094-20.851563-3.464844-21.488282-14.1875l-18.167968-306.242188c-3.035156-51.148437-2.546875-90.425781-2.601563-94.519531 0-29.019531 22.203125-52.953125 50.511719-55.707031-15.28125 24.089844-7.53125 52.195312-5.792969 92.882812.941407 13.328125 12.121094 23.769532 25.472657 23.804688 180.074218 2.03125 92.789062.828125 222.972656 0 13.355468-.035156 24.535156-10.476563 25.472656-23.804688 1.453125-34.128906 9.785156-68.328125-5.792969-92.882812 28.308594 2.753906 50.511719 26.6875 50.511719 55.707031-.082031 6.335937.609375 40.476563-2.597656 94.519531zm0 0"/></svg>