<?xml version="1.0" encoding="utf-8"?>
<!-- Generator: Adobe Illustrator 23.0.1, SVG Export Plug-In . SVG Version: 6.00 Build 0)  -->
<svg version="1.1" id="Camada_1" xmlns="http://www.w3.org/2000/svg" xmlns:xlink="http://www.w3.org/1999/xlink" x="0px" y="0px"
	 viewBox="0 0 1920 1080" style="enable-background:new 0 0 1920 1080;" xml:space="preserve">
<style type="text/css">
	.st0{fill:#FFFFFF;stroke:#000000;stroke-miterlimit:10;}
	.st1{fill:#73BDF4;}
	.st2{fill:#915033;}
	.st3{fill:#999999;}
	.st4{fill:#005F5E;}
	.st5{fill:#808080;}
	.st6{fill:#333333;}
	.st7{opacity:0.39;fill:#125177;enable-background:new    ;}
</style>
<g>
	<path class="st0" d="M559.65,467.21c0.38,0.26,0.23,1.3,0.35,1.97c0.25,1.33,0.47,2.68,0.81,3.98c1.16,4.41,2.48,8.75,3.54,13.2
		c1.22,5.1,2.28,10.19,4.4,14.92c2.39,5.34,3.74,11.34,5.6,17.03c0.83,2.54,1.7,5.07,2.72,7.51c1.83,4.37,3.79,8.65,5.68,12.98
		c0.42,0.96,0.62,2.11,1.2,2.93c2.04,2.84,3.26,6.27,5.09,9.28c3.65,6.01,6.77,12.44,8.76,19.55c0.27,0.98,1.17,1.65,1.74,2.49
		c0.79,1.15,1.58,2.3,2.3,3.5c0.39,0.65,0.47,1.7,1.03,2.04c2.52,1.55,3.31,4.45,4.72,6.92c1.42,2.5,2.95,4.93,4.54,7.31
		c0,0,0.01,0,0.01,0c-1.59-2.38-3.11-4.81-4.54-7.32c-1.41-2.47-2.2-5.37-4.72-6.92c-0.56-0.34-0.64-1.39-1.03-2.04
		c-0.72-1.2-1.51-2.35-2.3-3.5c-0.57-0.84-1.47-1.51-1.74-2.49c-1.99-7.11-5.11-13.54-8.76-19.55c-1.83-3.01-3.05-6.44-5.09-9.28
		c-0.58-0.82-0.78-1.97-1.2-2.93c-0.52-1.19-1.05-2.37-1.58-3.56c23.2,4.37,36.41,14.08,51.37,25.07
		c8.19,6.03,16.86,12.4,27.91,17.96c-0.09-0.73-0.16-1.46-0.19-2.2c-0.09-2.64,0.35-5.41,0.17-8.02
		c-0.52-7.25-1.46-14.39,0.44-22.04c0.52-2.07,0.14-4.25,0.15-6.38c0.01-2.26-0.16-4.51,0-6.79c0.4-5.84,0.94-11.68,1.43-17.53
		c0.47-5.67,0.84-11.34,1.48-17.02c0.29-2.54,1.54-5.15,1.64-7.64c0.34-8.49,2.82-16.87,4.52-25.3c1.18-5.86,2.4-11.71,3.66-17.56
		c0.74-3.42,1.57-6.83,2.42-10.23c1.62-6.49,3.3-12.97,4.93-19.46c0.21-0.85,0.23-1.72,0.4-2.58c0.14-0.72,0.21-1.52,0.58-2.13
		c1.85-3.08,3.98-6.07,2.84-9.67c-0.08-0.26,0.39-0.78,0.53-1.19c1.77-5.02,3.59-10.03,5.25-15.07c1.05-3.2,1.62-6.51,2.81-9.66
		c3.05-8.05,6.25-16.06,9.53-24.05c2.7-6.58,6.74-12.74,8.21-19.73c0.08-0.4,0.35-0.81,0.58-1.19c1.7-2.78,3.51-5.5,5.1-8.33
		c3.93-7.02,6.34-14.82,11.76-21.09c0.47-0.54,0.71-1.31,1.02-2c3.54-7.92,9-14.61,14.24-21.37c3.59-4.63,6.21-9.82,9.66-14.5
		c0.26-0.36,0.46-0.79,0.59-1.21c1.06-3.63,1.47-6.79-0.98-9.76c-2.03-2.46-2.92-6.03-4.26-9.15c-0.67-1.56-0.84-3.57-1.86-4.74
		c-1.58-1.81-2.17-4.06-1.86-6.43c0.79-6.07-0.01-11.91,2.54-18.28c2.78-6.95,7.42-11.09,13.01-14.49
		c4.57-2.78,9.21-4.57,14.46-4.05c4.84,0.47,9.6,0.45,12.99,4.16c0.26,0.28,0.52,0.62,0.87,0.72c6.06,1.73,10.48,5.97,14.69,10.26
		c2.86,2.92,5.75,2.54,9.35,0.92c3.1-1.4,6.25-2.57,9.36-3.95c2.99-1.33,6.03-2.58,8.89-4.25c1.89-1.11,3.64-1.98,5.73-2.44
		c3.45-0.76,7.01-1.81,10.26-3.52c3.8-2,7.57-2.95,11.47-3.65c1.18-0.21,2.36-0.85,3.53-1.32c1.56-0.64,3.1-1.56,4.67-1.93
		c8.51-1.98,16.99-2.93,25.43-3.25c2.19-0.08,4.26,0.66,6.43,0.81c3.38,0.24,6.76,0.49,10.19,0.39c5.62-0.16,10.47,2.29,16.14,2.22
		c3.81-0.05,7.47,1.67,10.96,3.09c4.66,1.9,9.09,4.28,13.62,6.43c0.34,0.16,0.76,0.15,1.11,0.29c1.99,0.8,4.08,1.45,5.93,2.48
		c4.94,2.76,9.83,5.59,14.63,8.56c6.25,3.87,12.43,7.84,18.54,11.92c1.8,1.2,3.5,1.92,5.82,0.67c1.26-0.68,2.58-1.22,3.79-2.01
		c3.77-2.48,7.47-5.13,11.27-7.55c1.4-0.9,2.98-1.52,4.51-1.99c3.69-1.13,7.39-2.28,11.09-3.04c2.37-0.48,5.31-1.15,6.98-0.12
		c1.78,1.1,3.75,1.37,5.56,2.14c3.52,1.5,7.04,2.92,8.6,6.98c0.32,0.84,1.04,1.45,1.52,2.21c1.8,2.87,3.94,5.52,2.97,9.84
		c-0.3,1.32,0.39,2.7,0.39,4.09c-0.01,2.66,0.35,5.47-0.49,7.99c-0.61,1.83-1.44,3.41-1.15,5.3c0.11,0.74-0.25,1.7-0.56,2.51
		c-0.9,2.37-1.74,4.77-2.87,7.05c-1.84,3.72-3.45,7.72-5.96,10.93c-2.98,3.82-3.29,4.54-0.39,7.5c3.69,3.75,5.61,8.57,7.72,13.39
		c1.58,3.61,3.02,7.56,5.55,10.28c2.57,2.76,4.67,5.57,5.69,9.41c0.2,0.77,0.67,1.42,1.04,2.11c0.66,1.23,1.38,2.43,2,3.69
		c1.95,3.95,3.89,7.9,5.78,11.88c1.27,2.68,2.49,5.39,3.64,8.14c0.5,1.19,0.62,2.6,1.15,3.76c2.3,5.12,4.88,10.08,6.99,15.32
		c1.76,4.37,2.72,9.23,4.57,13.54c1.7,3.96,3.39,7.85,4.19,12.28c0.31,1.74,0.99,3.35,1.55,5c0.65,1.89,1.55,3.66,2,5.63
		c1.39,6.1,2.54,12.3,3.94,18.39c0.47,2.05,0.91,3.92-0.2,6.19c-0.3,0.61,0.03,1.56,0.23,2.29c0.24,0.88,0.67,1.66,0.99,2.5
		c0.55,1.45,1.04,2.93,1.62,4.36c0.64,1.57,1.55,3.02,2,4.67c1.34,4.93,2.61,9.9,3.72,14.93c0.66,3.02,3.12,5.49,1.19,9.42
		c-0.32,0.66,0.39,1.79,0.69,2.67c0.25,0.76,0.75,1.42,0.85,2.21c0.42,3.34,0.69,6.73,1.11,10.07c0.23,1.78,0.28,3.78,1.09,5.16
		c1.53,2.61,1.38,5.39,0.38,8.24c1.86,2.46,3.58,4.69,1.88,8.33c-0.21,0.46-0.03,1.1,0.05,1.64c0.62,4.33,1.36,8.61,1.86,12.97
		c0.6,5.35,1.34,10.71,1.38,16.17c0.03,4.67,0.4,9.15,1.53,13.45c0.14,0.51,0.33,1.19,0.12,1.64c-1.38,2.98-0.67,5.78-0.12,8.29
		c0.58,2.67,0.48,5.11,0.1,7.96c-0.77,5.78-0.74,11.55-0.96,17.31c-0.32,8.05-0.06,16.03-2.11,24.22c-0.49,1.97-0.39,4.01-0.59,6.01
		c-0.22,2.14-0.28,4.31-0.76,6.43c-1.13,4.99-2.69,9.94-2.58,14.97c0.01,0.63-0.45,1.35-0.69,2.02c-0.43,1.23-1.02,2.46-1.27,3.7
		c-0.76,3.81-1.3,7.63-2.14,11.43c-0.26,1.16-1.25,2.26-1.89,3.4c-0.7,1.24-2.01,2.62-1.96,3.7c0.04,0.87-0.05,1.7-0.22,2.49
		c0.01,0.01,0.02,0.01,0.03,0.02c0.17-0.78,0.25-1.6,0.21-2.46c-0.05-1.08,1.26-2.46,1.96-3.7c0.64-1.14,1.63-2.24,1.89-3.4
		c0.84-3.8,1.38-7.62,2.14-11.43c0.25-1.24,0.84-2.47,1.27-3.7c0.24-0.67,0.7-1.39,0.69-2.02c-0.11-5.03,1.45-9.98,2.58-14.97
		c0.48-2.12,0.54-4.29,0.76-6.43c0.1-0.94,0.13-1.89,0.18-2.83c16.41-7.75,32.7-13.53,59.85-11.11c3.1,0.28,6.04,0.64,8.84,1.07
		c0.43-0.67,0.86-1.34,1.28-2.02c2.38-3.82,4.71-7.67,7.07-11.51c0.55-0.89,1.19-1.74,1.68-2.66c2.36-4.51,4.83-8.97,6.97-13.57
		c1.82-3.9,5.26-7.5,4.09-12.16c-0.12-0.49,0.65-1.76,1.23-2.12c2.67-1.61,3.64-4.18,4.51-6.89c0.31-0.98,0.58-2.07,1.17-2.87
		c2.87-3.84,3.6-8.06,4.11-12.42c0.31-2.66,0.67-5.32,2.15-7.97c1.57-2.8,2.68-5.88,3.69-8.91c0.65-1.94,0.88-4,1.13-6
		c0.72-5.84,3.54-11.58,3.27-17.47c-0.03-0.65,0.2-1.49,0.57-2.09c3-4.96,3.51-9.92,2.49-14.96c-0.23-1.15-0.51-3.01,0.08-3.63
		c1.85-1.96,1.52-4.06,1.9-6.11c1.17-6.44,2.73-12.89,2.46-19.31c-0.09-2.07-0.03-4.23,0.31-6.34c0.52-3.28,1.44-6.55,1.99-9.83
		c0.2-1.2-0.03-2.49-0.34-3.61c-0.73-2.64-1.22-5.25-0.33-8.27c0.36-1.21,0.3-2.57,0.15-3.77c-0.57-4.35-0.01-8.82,1.08-13.24
		c1.05-4.23,0.66-8.15-0.5-11.65c-1.97-5.92-1.42-12.52-2.49-18.65c-0.73-4.17-1.08-8.48-1.71-12.69
		c-0.54-3.61-2.39-6.79-1.18-10.99c0.32-1.1-0.4-2.37-0.66-3.55c-0.78-3.58-1.59-7.16-2.35-10.75c-0.51-2.4-0.74-4.93-1.44-7.23
		c-2.12-6.94-4.49-13.73-5.04-21.37c-0.19-2.71-0.87-5.59-2.23-7.64c-2.12-3.21-2.24-7.36-3.88-10.77
		c-1.41-2.91-1.81-6.48-3.03-9.54c-1.36-3.42-3.95-6.31-4.55-9.94c-1.25-7.52-5.64-12.92-8.35-19.43c-2.16-5.2-5.05-9.97-7.66-14.9
		c-3.28-6.2-6.51-12.43-9.94-18.52c-1.26-2.24-3.17-4-4.58-6.14c-2.95-4.49-5.46-9.37-8.73-13.55c-2.47-3.15-4-7.01-6.81-9.94
		c-2.11-2.2-2.83-5.87-5.96-7.19c-0.19-0.08-0.25-0.45-0.34-0.7c-1.84-5.37-6.25-8.34-9.65-12.23c-3.25-3.72-7.06-6.86-9.26-11.6
		c-0.51-1.1-1.73-1.77-2.67-2.57c-1.9-1.62-3.86-3.18-5.77-4.81c-2.54-2.17-4.23-5.64-8.43-5.12c-0.29-0.8-0.4-1.51-0.76-2.02
		c-1.32-1.87-2.33-4.47-4.2-5.27c-2.12-0.91-3.13-2.19-3.9-4.26c-0.44-1.16-1.45-2.05-2.36-2.87c-0.93-0.84-2.07-1.42-3.07-2.18
		c-2.49-1.9-4.98-3.8-7.42-5.77c-0.85-0.69-1.51-1.63-2.3-2.4c-0.6-0.58-1.26-1.1-1.92-1.6c-2.71-2.01-5.89-3.28-8.22-5.93
		c-1.77-2.02-3.77-3.77-6.56-4.8c-4.24-1.56-8.24-3.94-11.74-6.76c-3.82-3.08-6.99-7-12.58-7.02c-0.38,0-0.89-0.07-1.08-0.33
		c-2.9-3.99-8.34-3.82-11.85-7.15c-2.87-2.73-7.39-3.55-11.17-5.21c-2.65-1.16-5.14-2.87-7.99-3.34c-3.06-0.5-5.29-2.2-7.81-3.52
		c-0.56-0.29-1.17-0.51-1.78-0.69c-2.28-0.69-5-0.79-6.73-2.19c-1.97-1.61-4.06-2.32-6.53-2.58c-2.18-0.23-4.45-0.25-5.99-2.05
		c-0.29-0.34-1.08-0.61-1.42-0.4c-2.78,1.69-4.53-0.27-6.56-1.01c-2.02-0.73-3.89-1.67-6.31-1.13c-0.74,0.17-1.51-0.26-2.25-0.45
		c-4.08-1.1-8.09-2.44-12.27-3.21c-2.11-0.39-4.49-0.12-6.06-1.63c-1.64-1.58-3.78-1.26-5.82-1.42c-2.6-0.21-5.21-0.33-7.81-0.54
		c-1.56-0.13-3.14-0.22-4.63-0.56c-4.08-0.94-8.32-1.36-12.43-2.08c-4.44-0.77-8.71-1.99-13.43-1.57c-1.93,0.17-3.9,0.58-5.81,0.58
		c-3.53,0.01-7.01-0.33-10.55-0.27c-2.51,0.04-5.07,0.67-7.24-0.87c-0.7-0.5-2.02-0.13-3.06-0.1c-1.82,0.05-3.66,0.15-5.48,0.21
		c-2.38,0.08-4.77,0.2-7.14,0.2c-3.16,0.01-6.42,0.3-9.43-0.23c-2.47-0.44-4.68-0.04-7.07,1.06c-4.17,1.92-8.28,3.36-12.63,2.55
		c-2.39-0.44-5.09-1.23-7.7,1.2c-0.35,0.33-1.05,0.25-1.58,0.3c-2.53,0.25-5.07,0.24-7.59,0.77c-4.27,0.91-8.53,2.11-12.78,3.29
		c-2.38,0.66-4.77,1.98-7.11,2.23c-7.95,0.84-15.74,2.75-23.36,6.65c-0.88,0.45-1.88,0.78-2.79,0.83c-3.63,0.21-7.1,1.68-10.66,2.73
		c-5.55,1.63-10.62,4.57-15.85,7.09c-2.3,1.11-4.35,2.68-6.96,2.84c-1.41,0.09-2.97,1.54-4.43,2.45c-3.17,1.98-6.2,4.62-9.51,5.87
		c-4.31,1.63-8.28,4.95-12.89,5.11c-0.49,0.02-1.08,0.37-1.54,0.71c-3.69,2.76-7.87,4.11-11.73,6.32
		c-5.46,3.13-10.3,7.62-15.79,10.8c-1.98,1.15-3.79,2.75-5.66,4.19c-2.31,1.79-4.83,3.38-6.8,5.53c-1.35,1.48-2.83,2.41-4.28,3.59
		c-4.53,3.67-9.36,6.82-13.45,11.31c-2.39,2.62-4.5,5.96-7.97,7.44c-0.82,0.35-1.48,1.42-2.19,2.19
		c-3.51,3.77-6.37,8.15-10.19,11.66c-2.17,1.99-4.59,4.2-5.82,6.75c-1.58,3.27-3.38,5.53-5.57,6.08c-1.99,2.84-3.24,5.01-4.85,6.81
		c-2.06,2.31-4.47,4.28-6.62,6.52c-0.65,0.68-1.3,1.81-1.33,2.66c-0.07,1.8-0.83,2.93-2.16,4.13c-1.18,1.06-2.11,2.5-3.04,3.85
		c-6.09,8.76-12.16,17.54-18.23,26.31c-0.33,0.48-1.03,1.13-0.95,1.41c0.98,3.52-1.71,5.55-3.61,7.95c-0.5,0.64-0.63,1.6-0.9,2.43
		c-0.91,2.78-1.72,5.58-2.73,8.33c-2.12,5.73-5.8,10.94-7.11,16.95c-0.09,0.41-0.33,0.86-0.61,1.18c-2.54,3-2.76,6.92-4.87,10.14
		c-1.11,1.7-2.15,3.88-2.22,5.72c-0.09,2.19-1.09,3.89-1.83,5.79c-0.64,1.65-1.04,3.37-1.75,4.98c-1.9,4.29-2.56,8.62-2.73,13.03
		c-0.04,0.95-0.56,1.97-0.9,2.95c-0.62,1.8-1.31,3.59-1.92,5.4c-1.44,4.27-3.81,8.45-3.01,12.95c0.06,0.31-0.49,0.8-0.55,1.2
		c-0.54,4.22-2.23,8.34-2.53,12.61c-0.2,2.83,0.72,5.77-1.4,8.6c-0.07,0.09-0.03,0.28-0.02,0.42c0.12,2.38-0.57,4.42-2.5,6.26
		c-0.57,0.54-1.05,2.19-0.75,2.66c1.47,2.3,0.35,4.85-0.08,7.36c-0.24,1.42-0.63,2.88-0.6,4.25c0.16,6.66,1.24,13.09,0.65,19.98
		c-0.37,4.33,0.31,8.55-1.28,13.01c-0.33,0.93,0.38,2.08,0.48,3.17c0.38,4.15,1.67,8.38,0.81,12.46c-1.13,5.35,0.97,9.49,0.94,14.34
		c-0.02,2.62,1.28,5.04,1.2,7.66c-0.27,7.92,1.9,15.01,2.92,22.5c0.68,5,1.16,10.08,1.53,15.17
		C558.22,462.32,557.06,465.44,559.65,467.21z M1181.74,508.01c-0.02,0.04-0.43-0.08-0.65-0.13c0.22-0.59,0.45-1.19,0.67-1.78
		c0.22,0.09,0.45,0.17,0.67,0.25C1182.21,506.91,1182,507.47,1181.74,508.01z M1206.53,281.26c3.03,6.71,5.72,13.7,6.78,21.28
		c0.61,4.58,2.74,8.94,0.72,14.86c-5.52,2.09-11.07,5.21-17.1,6.01c-1.75,0.23-2.96-0.3-4.41-0.8c-4.31-1.48-6.34-4.98-7.56-9.33
		c-0.4-1.41-0.75-2.85-1.22-4.22c-0.77-2.23-1.8-4.34-2.41-6.65c-0.87-3.27-1.33-6.86,0.77-10.22c3.45-5.52,7.69-10.01,14.2-10.1
		c0.83-0.01,1.76-0.96,2.66-1.16c1.96-0.44,3.95-0.8,5.89-0.92C1205.47,279.97,1206.25,280.65,1206.53,281.26z M1140.42,177.37
		c0.73-1.95,3.69-2.52,5.23-1.01c2.51,2.46,6.39,3,8.13,6.66c0.67,1.42,3.14,1.54,4.36,2.74c2.51,2.46,4.39,5.72,7.15,7.78
		c3.12,2.33,4.52,5.71,5.92,9.26c0.24,0.61,0.5,1.36,0.99,1.63c4.19,2.29,5.11,7.21,7.22,11.17c0.24,0.44,0.07,1.38,0.39,1.53
		c4.44,2.11,3.48,8.14,6.55,11.55c4.17,4.63,6.91,10.8,8.82,17.26c1.64,5.53,3.15,11.12,4.76,16.67c0.64,2.22-0.11,4.11-1.72,5.98
		c-2.57,2.98-5.28,5.51-8.75,7.33c-3.29,1.73-6.09,0.72-9.09,0.94c-4.6,0.33-7.43-2.07-8.97-6.38c-0.89-2.48-2.31-4.67-3.34-7.09
		c-0.93-2.18-1.92-4.37-2.4-6.75c-1.13-5.54-3.81-10.21-5.4-15.4c-1.12-3.65-3.28-6.63-3.94-10.63c-0.67-4.06-2.83-7.6-4.27-11.4
		c-1.12-2.96-2.13-5.99-3.21-8.97c-0.95-2.62-1.86-5.27-2.95-7.81c-0.56-1.31-1.25-2.7-2.28-3.53c-1.75-1.42-2.51-3.2-2.17-6.65
		c-0.28-0.69-0.65-2.32-1.51-3.51C1137.38,185.23,1138.97,181.24,1140.42,177.37z"/>
	<g>
		<g>
			<g>
				<path class="st1" d="M1084.72,691.1c5.56-2.99,11.01-6.11,16.05-10.32c3.15-2.64,6.42-4.87,7.09-9.68
					c6.29,2.67,6.52-3.15,7.9-6.85c1.49,0.13,2.65,0.61,3.61,0.22c1.4-0.57,2.83-1.58,3.94-2.74c5.05-5.3,10-10.71,14.96-16.12
					c0.6-0.65,0.87-1.75,1.52-2.21c4.96-3.53,8.32-8.83,12.7-12.99c2.35-2.23,3.12-5.74,5.88-7.72c1.17-0.84,2.21-1.99,3.17-3.13
					c4.67-5.55,7.94-12.11,12.48-17.79c2.05-2.56,3.68-5.47,5.49-8.23c1.03-1.57,2.05-3.15,3.06-4.73c-2.8-0.43-5.75-0.79-8.85-1.07
					c-27.15-2.42-43.44,3.36-59.85,11.11c-0.05,0.94-0.08,1.89-0.18,2.83c-0.22,2.14-0.28,4.31-0.76,6.43
					c-1.13,4.99-2.69,9.94-2.58,14.97c0.01,0.63-0.45,1.35-0.69,2.02c-0.43,1.23-1.02,2.46-1.27,3.7c-0.76,3.81-1.3,7.63-2.14,11.43
					c-0.26,1.16-1.25,2.26-1.89,3.4c-0.7,1.24-2.01,2.62-1.96,3.7c0.16,3.64-1.73,6.47-3.79,9.24c-1.23,1.66-2.14,3.2-1.95,5.22
					c0.15,1.61-0.42,3.08-1.78,4.34c-0.62,0.57-1.23,1.42-1.45,2.2c-1.74,6.3-5.44,11.76-8.52,17.49c-0.4,0.75-1.02,1.53-1.7,1.97
					c-1.08,0.72-2.04,1.48-1.54,2.76C1082.2,691.9,1083.44,691.79,1084.72,691.1z"/>
				<path class="st1" d="M625.87,612.79c1.43,1.85,3.09,3.47,4.65,5.2c1.09,1.21,2.33,2.29,3.21,3.67
					c2.34,3.67,4.66,7.27,7.79,10.29c2.48,2.39,4.14,5.71,7.49,7.14c0.52,0.22,0.72,1.05,1.13,1.53c0.91,1.07,1.87,2.09,2.79,3.14
					c2.58,2.93,5.14,5.88,7.73,8.78c0.81,0.91,1.66,1.81,2.61,2.56c2.37,1.85,5.14,3.28,7.13,5.51c1.84,2.07,3.71,3.95,5.97,5.52
					c2.57,1.77,4.83,3.99,7.17,6.09c1.17,1.05,2.27,1.92,4.21,0.3c-3.63-5.32-5.11-12.01-9.49-16.59c-0.5-0.52-0.59-1.46-0.9-2.19
					c-3.56-8.08-5.14-17.23-8.86-25.22c-0.66-1.42-1.31-2.93-1.56-4.53c-1.62-10.31-3.06-20.68-4.72-30.98
					c-0.49-3.07-1.42-5.96-1.35-9.25c0.04-1.78-0.27-3.5-0.48-5.24c-11.05-5.56-19.73-11.94-27.92-17.97
					c-14.96-10.99-28.17-20.7-51.37-25.07c0.53,1.19,1.06,2.37,1.58,3.56c0.42,0.96,0.62,2.11,1.2,2.93
					c2.04,2.84,3.26,6.27,5.09,9.28c3.65,6.01,6.77,12.44,8.76,19.55c0.27,0.98,1.17,1.65,1.74,2.49c0.79,1.15,1.58,2.3,2.3,3.5
					c0.39,0.65,0.47,1.7,1.03,2.04c2.52,1.55,3.31,4.45,4.72,6.92c2.55,4.49,5.41,8.76,8.42,12.88c1.78,2.44,2.65,5.79,5.6,7.12
					C621.29,609.44,624.2,610.64,625.87,612.79z"/>
				<path class="st1" d="M1078.63,694.23c-0.03,0.23,0.37,0.46,0.68,0.8c0.31-0.55,0.65-0.92,0.65-1.23c0-0.23-0.45-0.38-0.7-0.57
					C1079.04,693.56,1078.67,693.9,1078.63,694.23z"/>
			</g>
			<g>
				<path class="st2" d="M1089.41,641.63c1.46-4.92,2.49-9.93,4.21-14.78c1.76-4.92,3.07-9.79,3.63-14.82
					c0.51-4.54,2.72-9.08,2.09-13.63c-0.03-0.25,0.16-0.56,0.23-0.85c1.63-6.36,2.82-12.69,2.27-18.98c-0.12-1.34,0.17-2.8,0.28-4.2
					c0.34-4.42,0.95-8.89,0.96-13.25c0.01-3.3-1.15-6.42-1.06-9.72c0.12-4.48-0.01-8.89-0.03-13.31c-0.04-7.15-0.09-14.28-0.7-21.31
					c-0.17-1.94-0.42-3.86-0.45-5.82c-0.06-3.52,0.1-7.05-1.45-10.13c-0.62-1.24-0.7-2.89-0.84-4.41c-0.39-4.13-0.3-8.43-1.07-12.4
					c-2.67-13.63-4.07-27.74-7.88-40.93c-0.21-0.72,0.05-1.67,0.06-2.5s0.24-1.86-0.1-2.45c-2.29-4.01-3.53-8.5-4.1-13.35
					c-0.05-0.39-0.33-0.71-0.48-1.08c-1.17-2.76-2.96-5.26-1.88-8.96c0.18-0.6-0.25-1.31-0.41-1.97
					c-2.18-8.91-5.83-17.17-6.97-26.55c-0.09-0.76-0.74-1.35-1.06-2.05c-0.71-1.53-1.41-3.05-2.04-4.63
					c-0.43-1.09-0.51-2.46-1.15-3.34c-2.02-2.81-2.81-6.19-3.31-9.78c-0.18-1.33-0.4-2.75-1-3.84c-3.22-5.91-4.95-12.8-8.87-18.24
					c-0.34-0.48-0.48-1.3-0.4-1.97c0.28-2.27-0.84-3.53-2.04-4.93c-1.39-1.62-2.71-3.43-3.51-5.48c-1.98-5.04-3.46-10.37-5.49-15.38
					c-1.13-2.79-3.02-5.12-4.44-7.75c-1.3-2.4-2.28-4.95-4.66-6.51c-1.14-0.75-1.63-2.59-2.23-4.04c-0.81-1.95-1.13-4.26-2.23-5.95
					c-3.06-4.7-6.42-9.16-9.6-13.63c2.29-5.58,4.45-10.85,6.68-16.28c3-1.42,5.6-5.04,5.52-8.37c-0.05-2.25,0.44-4.04,1.98-6.04
					c2.8-3.67,3.35-7.66,1.52-11.3c-1.38-2.76-3.07-5.31-4.68-7.91c-0.25-0.41-0.8-0.59-1.23-0.86c-1.72-1.1-3.84-0.89-5.81-1.23
					c-8.46-1.48-15.87,2.99-23.1,8.11c-3.78,2.68-7.5,4.13-11.61,3.78c-4.22-0.36-8.08-1.43-11.58-3.67
					c-3.44-2.21-7.48-3.55-10.76-5.96c-3.08-2.27-7.41-2.89-9.22-6.93c-0.18-0.41-0.8-0.54-1.23-0.8c-1.37-0.83-2.74-1.67-4.12-2.49
					c-2.68-1.6-5.12-4.08-8.12-4.52c-2.89-0.42-4.84-1.88-7.12-3.09c-1.86-0.98-3.86-2.45-5.88-2.21c-2.07,0.25-3.51-0.46-5.15-0.95
					c-2.06-0.62-4.03-1.46-6.06-2.14c-1.8-0.6-3.64-1.1-5.46-1.63c-3.64-1.07-7.16-2.59-10.96-3.06c-4.02-0.49-7.47-2.11-11.18-3.3
					c-3.51,1.66-6.99,2.87-10.57,1.73c-1.11-0.35-2.6,0.14-3.92,0.37c-1.06,0.19-2.13,0.69-3.18,0.84
					c-4.05,0.55-8.11,0.19-12.16,2.17c-0.5,0.24-1.07,0.31-1.6,0.36c-5.08,0.42-10.09,1.66-15.04,3.89
					c-1.39,0.62-2.89,0.74-4.32,1.25c-3.88,1.37-8.15,1.32-11.38,5.21c-0.41,0.49-1.22,0.83-1.83,0.9
					c-5.22,0.55-9.68,3.61-14.13,6.77c-2.79,1.98-5.65,3.54-8.88,3.62c-0.9,0.02-1.85,0.51-2.78,0.8c-3.03,0.96-6.03,0.64-8.06-1.02
					c-3.62-2.97-6.96-6.26-11.18-8.4c-0.53-0.27-0.88-0.9-1.28-1.39c-4.39-5.25-10.27-7.22-17.37-6.03
					c-2.19,0.37-4.54,1.48-6.55,2.81c-2.18,1.43-4.05,3.44-4.28,6.46c-0.27,3.55-1.24,7.24-0.98,10.63
					c0.22,2.78,1.81,5.21,2.75,7.82c0.81,2.26,1.39,4.65,2.35,6.8c1.45,3.23,3.39,6.16,4.68,9.46c1.48,3.77,0.87,7.83-1.92,11.61
					c-2.65,3.6-5.11,7.52-8.3,10.48c-2.11,1.96-3.03,4.24-4.45,6.4c-2.78,4.23-5.67,8.42-8.14,12.82
					c-2.98,5.31-5.51,10.85-8.33,16.25c-3.92,7.49-8.04,14.9-11.19,22.72c-0.28,0.68-0.71,1.32-1.09,1.97
					c-1.37,2.31-2.53,4.79-4.15,6.9c-3.34,4.34-2.79,9.91-6.61,14.36c-2.4,2.78-2.94,7.27-4.47,10.95c-1.3,3.14-2.84,6.2-4.23,9.32
					c-0.84,1.89-1.71,3.78-2.38,5.72c-1.73,4.99-2.72,10.19-6.02,14.7c-0.51,0.7-1.23,1.87-1.05,2.36
					c1.34,3.46-0.62,6.84-1.52,10.24c-0.78,2.95-1.69,5.87-2.43,8.82c-0.53,2.12-0.62,4.32-1.33,6.38c-3.17,9.24-5.3,18.62-7.24,28
					c-1.05,5.1-1.62,10.23-2.47,15.35c-0.41,2.52-1.03,5.03-1.41,7.55c-0.84,5.65-1.65,11.31-2.36,16.96
					c-0.34,2.7-0.08,5.43-0.71,8.08c-0.69,2.87-1.9,5.6-0.11,8.05c0.23,0.31-0.05,1.1-0.15,1.66c-0.33,1.82-0.52,3.67-1.06,5.46
					c-0.95,3.17,0.42,6.01-0.29,9.04c-0.8,3.42-0.58,6.52,0.07,9.62c0.17,0.79,0.49,1.8,0.16,2.44c-1.18,2.29-0.55,4.13-0.13,6.13
					c0.25,1.17,0.05,2.53,0.04,3.8c-0.02,2.74-0.16,5.5-0.04,8.2c0.08,1.79,0.46,3.44-0.3,5.4c-0.74,1.9-0.34,3.43,1.87,3.45
					c0.14,0,0.22,0.39,0.38,0.69c-0.6,0.79-1.23,1.62-1.47,1.93c0.07,2.39,0.13,4.29,0.17,6.18c0.01,0.55-0.28,1.46-0.05,1.61
					c2.4,1.51,1.03,4.21,1.02,6.51c-0.01,2.09,0.02,4.21,0.38,6.19c0.99,5.4,2.11,10.76,3.29,16.09c1.61,7.24,2.84,14.59,5.96,21.21
					c1.59,3.39,1.73,7.64,3.38,11.32c2.24,4.99,3.16,8.35,7.04,12.49c0.34,0.36,0.74,0.87,0.73,1.36c-0.03,2.38,1.49,3.59,2.67,5.08
					c1.41,1.79,2.78,3.61,4.14,5.45c2.39,3.22,4.49,6.76,7.22,9.6c2.95,3.06,6.7,5.25,8.14,9.8c0.13,0.41,0.74,0.72,1.21,0.79
					c2.34,0.37,3.84,1.76,4.91,3.85c0.33,0.64,1.04,1.26,1.73,1.36c4.21,0.67,6.38,4.29,9.37,6.65c1.7,1.35,3.18,2.82,5.43,3.23
					c0.74,0.13,1.44,0.49,2.05,0.9c2.17,1.48,4.25,3.09,6.46,4.51c0.82,0.53,1.88,0.72,2.84,1.02c1.54,0.49,3.46,0.5,4.57,1.49
					c4.49,4.01,10.48,5.23,15.7,7.83c2.51,1.25,5.64,1.3,8.27,3c3.19,2.07,7.51,2.04,11.18,3.54c4.57,1.86,9.84,2.28,14.6,3.92
					c2.24,0.77,4.7,1.03,7.02,1.63c1.74,0.45,3.35,1.59,5.12,1.52c5.11-0.2,9.49,1.96,14.55,2.13c6.09,0.21,12.01,1.64,17.82,3.05
					c6.85,1.67,14.02,1.91,21.08,2.66c1.48,0.16,2.9,0.58,4.4,0.58c2.89,0.02,5.82-0.28,8.71-0.26c4.84,0.03,9.63,0.31,14.48,0.29
					c2.17-0.01,4.39-0.66,6.29,0.71c0.74,0.53,2.01,0.43,3.06,0.38c3.38-0.15,6.76-0.22,10.15-0.68c4.37-0.58,8.38,1.36,13-0.62
					c1.64-0.7,3.61,0.28,5.45,0.1c5.74-0.58,11.49-1.38,17.23-2.04c4.81-0.55,9.61-0.89,14.43-1.58c4.27-0.61,8.55-1.57,12.83-2.38
					c0.67-0.13,1.37-0.44,2-0.4c3.61,0.19,7.18-0.46,10.79-1.89c1.16-0.46,2.41-0.44,3.62-0.71c2.4-0.54,4.83-0.97,7.21-1.74
					c5.81-1.89,11.59-4.62,17.4-5.7c4.24-0.79,7.64-3.16,10.77-5.67c3.16-2.54,6.28-4.73,9.8-6.3c2.9-1.28,5.6-2.93,7.71-5.69
					c0.53-0.7,1.25-1.31,1.97-1.78c6.65-4.27,11.51-10.68,16.45-16.79c3.32-4.1,6.31-8.65,8.48-13.68
					c2.7-6.28,6.09-12.32,9.06-18.52C1087.91,646.15,1088.74,643.89,1089.41,641.63z"/>
				<g>
					<path d="M1188.67,603.11c0.48,0.53,0.86,0.95,1.51,1.66c-3.01,1.14-5.18,2.93-5.34,6.63c-1.02,0.09-1.86,0.16-2.53,0.21
						c-1.49,2.77-3.16,5.39-4.31,8.17c-0.7,1.69-1.47,2.85-3.01,3.56c-0.37,0.17-0.88,0.51-0.99,0.84
						c-1.7,4.91-6.27,7.34-9.03,11.31c-0.66,0.95-0.72,2.52-1.48,3.17c-3.32,2.82-5.04,6.98-7.89,9.98
						c-5.75,6.05-12.04,11.52-18.05,17.29c-6.97,6.68-13.93,13.38-20.78,20.2c-1.48,1.47-2.23,3.89-3.78,5.16
						c-1.46,1.2-3.76,1.06-5.3,2.21c-4.32,3.23-8.47,6.78-12.63,10.28c-5.42,4.57-11.44,7.92-17.15,11.91
						c-4.79,3.35-9.44,6.97-14.29,10.18c-4.74,3.13-9.62,5.99-14.52,8.76c-1.94,1.09-4.09,1.63-7.16,2.8
						c1.64,0.42,2.49,0.95,3.34,0.8c3.73-0.64,7.47-1.38,11.2-2.28c1.93-0.47,3.84-1.35,5.66-2.01c2.68,0.11,5.4,0.23,8.11,0.34
						c2.76,0.11,5.53,0.21,8.29,0.32c0.79,0.03,1.59,0.31,2.36,0.12c4.77-1.15,9.1,0.03,13.55,0.52c1.76,0.19,3.48,0.82,5.03,1.59
						c2.37,1.18,4.76,2.35,7.58,2.1c1.86-0.17,2.82,0.79,3.98,1.8c1.4,1.21,3.06,2.11,4.59,3.16c1.55,1.06,3.12,2.08,4.61,3.22
						c1.38,1.05,2.71,2.16,3.96,3.36c0.61,0.59,1.46,1.43,1.39,2.21c-0.26,2.76,1.44,4.2,2.41,6.16c0.98,1.97,2.04,4.02,2.39,6.26
						c0.75,4.79,2.71,9.32,1.08,14.74c-0.15,0.5,0.08,1.11,0.22,1.63c0.84,3.16,0.81,6.31-1.34,9.51c-0.24,0.36-0.52,0.87-0.49,1.23
						c0.43,5.23-3.89,9.06-5.39,13.72c-0.3,0.92-0.96,1.94-1.7,2.57c-3.55,3.06-7.32,5.83-10.76,9.04
						c-5.27,4.92-11.15,8.53-17.17,11.91c-1.5,0.84-3.08,1.45-4.63,2.14c-0.52,0.23-1.15,0.24-1.58,0.59
						c-5.71,4.67-12.28,4.82-18.46,6.99c-3.09,1.09-4.89,3.28-4.85,6.52c0.05,3.91,0.47,7.74,0.72,11.61
						c0.26,3.97,0.38,7.99,0.85,11.9c0.27,2.27,1.2,4.32,1.62,6.56c0.27,1.45,0.39,3.04,0.19,4.57c-0.67,5.08,0.25,6.82,4.6,8.48
						c1.05,0.4,1.87,1.27,2.87,1.8c0.98,0.53,2.01,1.32,3.1,1.26c3.3-0.18,5.63,1.31,7.86,3.25c1.21,1.05,2.59,2.02,4.11,2.53
						c2.37,0.79,5.22,0.56,6.14,3.77c0.2,0.71,1.48,0.88,2.21,1.37c0.83,0.56,1.91,1,2.35,1.86c2.25,4.34,6.03,7.22,8.69,11.11
						c1.89,2.76,4.48,5.22,4.63,9.25c0.02,0.4,0.2,0.81,0.42,1.11c2.84,3.95,3.02,9.39,5.11,13.76c0.33,0.69,0.62,1.6,0.48,2.39
						c-0.77,4.22,0.48,7.99,0.43,11.99c-0.06,4.02-1.27,8.21-1.71,12.32c-0.64,6.02-3.24,11.59-5.89,17.04
						c-1.87,3.84-4.6,7.38-7.21,10.84c-0.77,1.03-2.43,1.34-3.68,2.02c-3.47,1.87-6.88,3.99-10.43,5.56
						c-2.12,0.93-4.58,1.53-6.67,1.35c-3.99-0.35-7.29,2.35-10.31,4.44c-2.78,1.92-5.44,2.98-8.34,3.78
						c-4.27,1.18-5.82,5.2-4.43,9.3c1.42,4.19,3.72,8.52,0.35,13.84c-0.42,0.66-0.19,1.68-0.44,2.49c-0.33,1.05-0.65,2.23-1.31,3.07
						c-1.55,1.98-3.42,3.71-4.95,5.71c-1.43,1.85-2.72,3.56-5.11,3.58c-0.73,0.01-1.55,0.65-2.33,0.97
						c-5.8,2.39-11.66,3.72-17.55,3.84c-1.72,0.04-3.48-0.03-5.06-0.48c-4.43-1.24-9.03-1.69-13.76-1.67c-0.79,0-1.6-0.04-2.34-0.23
						c-5.39-1.34-10.89-2.42-16.1-4.19c-5.26-1.79-10.19-4.36-15.32-6.44c-3.71-1.51-7.56-2.73-11.29-4.18
						c-1.28-0.5-2.66-1.05-3.58-2.02c-2.49-2.63-5.92-3.7-8.82-5.61c-3.03-1.99-5.58-4.69-8.49-6.88c-1.27-0.96-2.8-1.68-4.37-2.07
						c-4.9-1.21-9.92-1.47-15.31,0.21c-2.43,0.76-5,0.43-7.5,0.55c-2.91,0.14-5.78,0.63-8.72,1.24c-3.82,0.8-7.68,0.53-11.51,0.64
						c-6.22,0.17-12.44,0.28-18.65,0.42c-1.71,0.04-3.44,0.18-5.12,0.08c-5.47-0.31-10.92-0.71-16.37-1.07
						c-4.99-0.34-9.95-0.95-14.99-0.95c-7.64,0-14.59-2.71-22.25-2.56c-0.66,0.01-1.3-0.16-1.93-0.28
						c-3.82-0.74-7.66-1.43-11.44-2.26c-1.59-0.35-3.03-1.15-4.62-1.5c-2.74-0.61-5.58-0.89-8.29-1.56
						c-2.97-0.73-5.83-1.76-8.74-2.63c-1.23-0.36-2.47-0.71-3.73-0.97c-3.14-0.65-6.28-1.28-9.44-1.85c-2.75-0.5-5.27-0.3-8,2.13
						c-2.57,2.28-5.68,3.81-8.57,5.63c-1.72,1.08-3.46,2.13-5.21,3.13c-1.72,0.99-3.44,2.05-5.22,2.83
						c-4.15,1.81-8.38,3.11-12.65,4.31c-2.36,0.66-4.56,1.66-6.99,1.5c-1.07-0.07-2.39,0.63-3.5,1.24
						c-3.37,1.83-6.78,2.49-10.27,2.63c-3.56,0.14-7.17,0.64-10.72,0.69c-3.79,0.05-7.56-0.11-11.28-0.41
						c-4.01-0.33-8.02-0.71-11.9-1.48c-2.61-0.53-5-1.78-7.48-2.72c-2.24-0.85-4.52-1.61-6.7-2.59c-1-0.45-2.09-1.11-2.62-2.06
						c-3.85-6.83-6.22-14.23-3.79-23.27c0.72-2.67,0.57-4.41-1.73-6.26c-4.91-3.95-8.99-8.98-13.53-13.43
						c-1.05-1.03-2.58-1.52-3.92-2.2c-2.68-1.35-4.2-4.57-7.7-4.59c-2.61-4.28-7.46-5.91-10.07-10.61
						c-2.57-4.64-4.06-9.73-5.64-14.72c-1.67-5.25-2.48-11.04-1.67-17.24c0.73-5.6,1.03-11.18,3.08-16.71
						c2.02-5.45,4.06-10.89,7.98-15.49c0.65-0.76,0.98-1.82,1.47-2.74c0.35-0.64,0.62-1.43,1.12-1.87
						c5.57-4.82,11.1-9.69,16.78-14.35c6.74-5.53,14.38-8.74,22-11.72c3.11-1.22,4.85-3.04,5.32-6.29
						c0.93-6.41,2.86-12.87,2.03-19.18c-0.04-0.27-0.08-0.59,0.01-0.85c1.75-4.8,2.28-9.54,2.44-14.44
						c0.07-2.13-0.06-4.14-0.35-6.11c-0.11-0.79-0.88-1.58-1.59-1.92c-4.57-2.19-9.02-4.52-13.07-7.64
						c-1.64-1.26-3.31-2.63-5.12-3.66c-2.04-1.16-4.51-1.6-6.78-2.38c-0.83-0.29-2.03-0.37-2.37-1.03c-1.37-2.67-3.8-3.95-5.97-5.66
						c-2.23-1.76-4.14-3.99-5.96-6.24c-3.49-4.33-6.82-8.81-10.19-13.25c-0.3-0.39-0.5-0.93-0.57-1.46
						c-0.95-6.63-2.84-12.91-1.97-20.15c1.14-9.48,4.94-17.79,11.12-25.32c2.47-3.01,5.05-5.96,7.8-8.68
						c3.34-3.3,7.23-5.52,11.43-6.92c3.05-1.01,6.07-2.41,9.13-3.07c4.79-1.04,9.91-2.75,14.32-2.09c5.4,0.81,10.91,0.03,16.28,0.41
						c0.49,0.03,0.91,0.36,1.39,0.46c4.82,0.99,9.66,1.96,15.03,3.05c-0.8-3.29-2.65-5.19-4.72-6.15c-2.97-1.38-4.72-4.08-7.2-5.95
						c-0.5-0.38-0.81-1.22-1.35-1.29c-5.44-0.74-7.71-6.33-12.23-8.08c-3.81-1.48-5.14-5.34-8.39-7.2
						c-3.28-1.89-5.52-5.15-8.14-7.91c-2.65-2.79-6.19-4.6-9.24-6.98c-1.56-1.22-2.86-2.79-4.32-4.16
						c-4.34-4.05-8.7-8.07-13.03-12.12c-0.65-0.6-1.67-1.16-1.76-1.97c-0.56-4.81-4.25-6.93-6.68-10.13
						c-0.61-0.8-1.42-1.43-2.18-2.08c-0.67-0.57-1.55-0.93-2.08-1.62c-2.61-3.44-5.06-7.04-7.71-10.45
						c-4.55-5.85-8.33-12.31-11.94-18.91c-0.19-0.34-0.37-0.74-0.67-0.93c-5.41-3.34-6.7-10.29-10.65-14.9
						c-0.43-4.71-4.49-6.7-6.02-10.65c-1.63-4.18-3.79-8.07-5.83-12c-1.07-2.07-2.26-4.09-3.63-5.92c-3.72-4.97-5-11.53-7.99-16.96
						c-1.93-3.51-4.01-6.92-5.78-10.53c-1.31-2.68-2.36-5.57-3.32-8.47c-3.37-10.16-6.78-20.3-9.91-30.58
						c-1.4-4.61-2.26-9.5-3.19-14.33c-1-5.2-0.95-11.01-2.92-15.58c-2.51-5.83-1.72-12.9-4.63-18.43c-0.37-0.71-0.12-1.89-0.08-2.87
						c0.02-0.56,0.38-1.19,0.3-1.69c-0.96-6.63-2.09-13.21-2.9-19.88c-0.35-2.87-0.09-5.93-0.09-8.9c0-1.56,0.56-3.45,0.01-4.64
						c-2.83-6.08-0.36-13.31-1.05-19.86c-0.48-4.59,0.23-9.53,0.41-14.32c0.27-7.22,0.41-14.42,0.86-21.65
						c0.17-2.67,1.25-5.42,1.56-8.12c0.57-4.96,0.36-9.95,1.4-14.86c1.85-8.69,2.42-17.51,5.93-26.06c0.6-1.45,0.45-3.12,0.84-4.66
						c2.79-11.09,5.22-22.21,10.14-32.94c1.97-4.3,2.64-9.08,4.34-13.51c3.13-8.16,6.6-16.23,9.91-24.35
						c0.79-1.94,1.44-3.93,2.35-5.81c0.89-1.83,2.06-3.54,3.05-5.34c1.72-3.12,3.38-6.27,5.08-9.4c3.07-5.65,5.91-11.44,9.29-16.91
						c3.15-5.09,6.83-9.87,10.35-14.74c1.58-2.19,3.39-4.21,4.96-6.4c3.72-5.2,7.43-10.41,11-15.71c3.12-4.64,6.49-9.01,10.77-12.54
						c0.23-0.19,0.42-0.43,0.61-0.66c3.06-3.89,6.28-7.38,10.32-10.33c3.56-2.59,6.36-6.63,9.41-10.11
						c1.99-2.26,3.87-4.52,6.74-5.48c0.96-0.32,2.11-1.17,2.67-2.08c2.14-3.5,5.27-5.59,8.33-7.89c6.08-4.58,12.08-9.3,18.13-13.94
						c4.32-3.32,8.67-6.61,13-9.9c0.47-0.36,0.93-0.77,1.43-1.02c8.26-4.04,15.9-9.66,24.07-13.93c0.76-0.4,1.58-0.61,2.37-0.93
						c4.56-1.83,9.15-3.54,13.67-5.52c5.96-2.6,11.95-5.12,17.76-8.19c5.43-2.87,10.99-4.98,16.59-6.95
						c4.05-1.42,8.15-2.64,12.23-3.84c4.64-1.36,9.3-2.52,13.94-3.9c1.97-0.59,3.91-1.51,5.86-2.29c0.78-0.32,1.57-0.91,2.33-0.99
						c6.69-0.68,13.31-3.22,19.97-4.3c2.51-0.41,5,0.2,7.52-0.14c2.49-0.33,4.99-1.39,7.5-1.92c4.08-0.86,8.17-1.56,12.26-2.27
						c0.5-0.09,1.08,0.05,1.48,0.31c2.05,1.28,4.33,0.25,6.59-0.18c3.46-0.66,6.92-1.08,10.39-1.6c1.21-0.18,2.42-0.42,3.62-0.55
						c1.05-0.11,2.3-0.46,3.12-0.06c4.32,2.09,9.24,0.92,13.96,0.82c3.26-0.07,6.5-0.06,9.74-0.02c4.34,0.06,8.69,0.02,12.98,0.34
						c3.06,0.23,6,0.98,9.55,1.6c1.38-1.23,3.18-1.24,5.31-0.46c2.3,0.84,5.01,0.79,7.53,1.17c3.29,0.49,6.28,1.95,9.97,1.21
						c1.37-0.27,2.76,0.98,4.16,1.5c2.61,0.96,5.33,1.14,8.32,0.47c1.33-0.29,2.75,0.35,4.04,0.77c4.79,1.55,9.5,3.28,14.32,4.73
						c2.27,0.68,4.77,0.77,7.1,1.32c3.66,0.87,7.57,0.99,10.82,3.09c1.84,1.19,4.07,2.06,6.3,2.3c5.06,0.53,8.83,3.75,13.53,5.01
						c3.81,1.02,7.58,2.19,11.23,3.61c3.1,1.2,6.51,1.89,8.94,4.35c0.18,0.18,0.38,0.46,0.6,0.44c4.12-0.27,6.39,3.32,10.02,4.11
						c0.96,0.21,1.83,0.77,2.64,1.3c4.72,3.1,9.41,6.24,14.11,9.37c0.21,0.14,0.41,0.36,0.65,0.37c5.14,0.28,8.1,4.3,12.09,6.55
						c0.54,0.31,1,0.75,1.57,1c2.56,1.1,4.96,2.3,6.69,4.72c0.9,1.26,2.76,1.63,4.08,2.55c2.72,1.9,5.15,4.32,8.11,5.76
						c5.54,2.7,9.22,7.81,14.29,10.99c4.79,3.01,7.56,8.19,12.12,11.37c2.68,1.87,5.3,3.83,7.88,5.84c1.09,0.85,2.26,1.72,2.97,2.91
						c2.79,4.7,6.67,8.08,10.95,11.17c2.19,1.59,3.38,4.55,5.43,6.4c2.95,2.66,4.58,6.36,6.89,9.51c1.68,2.3,4.73,3.34,6.54,5.56
						c2.83,3.47,6.86,5.92,7.97,10.97c0.15,0.67,0.9,1.18,1.5,1.57c2.19,1.45,4.37,2.79,4.81,6.01c0.15,1.13,1.19,1.98,1.79,2.98
						c1.39,2.35,4.58,3.25,4.29,6.99c-0.04,0.49,0.85,0.89,1.26,1.37c2.25,2.61,4.04,5.41,4.87,9.2c0.61,2.75,2.56,5.11,4.37,7.18
						c3.41,3.9,6.42,8.06,8.23,13.21c1.28,3.64,2.76,7.18,3.96,10.85c1.37,4.19,2.99,8.16,5.74,11.4c0.45,0.54,0.61,1.49,0.64,2.31
						c0.15,4.25,1.98,7.62,4.02,10.69c2.3,3.45,3.48,7.34,4.03,11.64c0.39,3.06,0.35,6.04,3.11,8.14c1.7,1.29,2.54,4.39,2.05,7.52
						c-0.32,2.07-0.68,4.43,1.77,5.17c0.21,0.06,0.46,0.36,0.45,0.57c-0.16,3.17,1.56,5.73,1.7,8.54c0.14,2.98,0.61,5.79,1.29,8.47
						c1.25,4.92,1.4,10.26,3.66,14.84c1.21,2.44,0.96,5.85,1.4,8.82c0.3,2.02,0.7,4.01,0.98,6.04c0.49,3.6,0.44,7.31,1.99,10.64
						c0.97,2.09-0.02,5.38,0.71,7.71c1.24,4-0.51,8.31-0.05,12.37c0.46,4.11,0.12,8.45,0.41,12.62c0.16,2.33,0.89,4.52,1.36,6.78
						c0.15,0.75,0.6,1.59,0.36,2.25c-1.66,4.68-1.27,9.02-0.41,13.33c0.18,0.91,0.11,1.96-0.03,2.95
						c-1.25,8.5-1.39,16.79-0.04,24.85c0.21,1.26,0.03,2.76-0.32,4.11c-1.03,3.99-2.41,7.95-1.77,11.93
						c0.04,0.27,0.18,0.62,0.07,0.82c-3.05,5.45,0.19,11-2.73,16.44c1.37,4.06-1.72,7.98-2.13,11.98
						c-0.36,3.53-0.12,7.04-1.49,10.59c-0.57,1.49-1.01,3.01-1.49,4.53c-0.35,1.11-0.75,2.22-0.98,3.34
						c-0.53,2.53-0.36,5.12-2.17,7.49c-0.44,0.57-0.59,1.85-0.31,2.43c0.89,1.82-0.03,3.48-0.64,5.33
						c-2.21,6.68-4.22,13.41-6.35,20.12c-0.49,1.54-1.05,3.07-1.69,4.57c-0.81,1.91-1.85,3.75-2.59,5.67
						c-1.97,5.1-3.83,10.23-5.77,15.34c-0.31,0.82-0.67,1.82-1.28,2.34c-3.36,2.88-4.2,6.79-5.33,10.61
						c-0.8,2.69-1.41,5.47-4.15,7.15c-0.44,0.27-0.95,0.94-1.01,1.41c-0.42,3.42-2.55,5.93-4.63,8.54c-0.72,0.9-1.07,2.12-1.56,3.2
						c-0.36,0.81-0.47,1.85-1.03,2.44c-3.78,4.02-5.84,9.01-8.4,13.73C1189.93,601.84,1189.23,602.44,1188.67,603.11z M673.6,566.64
						c0.07,2.39,0.13,4.29,0.17,6.18c0.01,0.55-0.28,1.46-0.05,1.61c2.4,1.51,1.03,4.21,1.02,6.51c-0.01,2.09,0.02,4.21,0.38,6.19
						c0.99,5.4,2.11,10.76,3.29,16.09c1.61,7.24,2.84,14.59,5.96,21.21c1.59,3.39,1.73,7.64,3.38,11.32
						c2.24,4.99,3.16,8.35,7.04,12.49c0.34,0.36,0.74,0.87,0.73,1.36c-0.03,2.38,1.49,3.59,2.67,5.08c1.41,1.79,2.78,3.61,4.14,5.45
						c2.39,3.22,4.49,6.76,7.22,9.6c2.95,3.06,6.7,5.25,8.14,9.8c0.13,0.41,0.74,0.72,1.21,0.79c2.34,0.37,3.84,1.76,4.91,3.85
						c0.33,0.64,1.04,1.26,1.73,1.36c4.21,0.67,6.38,4.29,9.37,6.65c1.7,1.35,3.18,2.82,5.43,3.23c0.74,0.13,1.44,0.49,2.05,0.9
						c2.17,1.48,4.25,3.09,6.46,4.51c0.82,0.53,1.88,0.72,2.84,1.02c1.54,0.49,3.46,0.5,4.57,1.49c4.49,4.01,10.48,5.23,15.7,7.83
						c2.51,1.25,5.64,1.3,8.27,3c3.19,2.07,7.51,2.04,11.18,3.54c4.57,1.86,9.84,2.28,14.6,3.92c2.24,0.77,4.7,1.03,7.02,1.63
						c1.74,0.45,3.35,1.59,5.12,1.52c5.11-0.2,9.49,1.96,14.55,2.13c6.09,0.21,12.01,1.64,17.82,3.05
						c6.85,1.67,14.02,1.91,21.08,2.66c1.48,0.16,2.9,0.58,4.4,0.58c2.89,0.02,5.82-0.28,8.71-0.26c4.84,0.03,9.63,0.31,14.48,0.29
						c2.17-0.01,4.39-0.66,6.29,0.71c0.74,0.53,2.01,0.43,3.06,0.38c3.38-0.15,6.76-0.22,10.15-0.68c4.37-0.58,8.38,1.36,13-0.62
						c1.64-0.7,3.61,0.28,5.45,0.1c5.74-0.58,11.49-1.38,17.23-2.04c4.81-0.55,9.61-0.89,14.43-1.58c4.27-0.61,8.55-1.57,12.83-2.38
						c0.67-0.13,1.37-0.44,2-0.4c3.61,0.19,7.18-0.46,10.79-1.89c1.16-0.46,2.41-0.44,3.62-0.71c2.4-0.54,4.83-0.97,7.21-1.74
						c5.81-1.89,11.59-4.62,17.4-5.7c4.24-0.79,7.64-3.16,10.77-5.67c3.16-2.54,6.28-4.73,9.8-6.3c2.9-1.28,5.6-2.93,7.71-5.69
						c0.53-0.7,1.25-1.31,1.97-1.78c6.65-4.27,11.51-10.68,16.45-16.79c3.32-4.1,6.31-8.65,8.48-13.68
						c2.7-6.28,6.09-12.32,9.06-18.52c1.03-2.15,1.86-4.41,2.53-6.67c1.46-4.92,2.49-9.93,4.21-14.78
						c1.76-4.92,3.07-9.79,3.63-14.82c0.51-4.54,2.72-9.08,2.09-13.63c-0.03-0.25,0.16-0.56,0.23-0.85
						c1.63-6.36,2.82-12.69,2.27-18.98c-0.12-1.34,0.17-2.8,0.28-4.2c0.34-4.42,0.95-8.89,0.96-13.25c0.01-3.3-1.15-6.42-1.06-9.72
						c0.12-4.48-0.01-8.89-0.03-13.31c-0.04-7.16-0.09-14.28-0.7-21.31c-0.17-1.94-0.42-3.86-0.45-5.82
						c-0.06-3.52,0.1-7.05-1.45-10.13c-0.62-1.24-0.7-2.89-0.84-4.41c-0.39-4.13-0.3-8.43-1.07-12.4
						c-2.67-13.63-4.07-27.74-7.88-40.93c-0.21-0.73,0.05-1.67,0.06-2.5s0.24-1.86-0.1-2.45c-2.29-4.01-3.53-8.5-4.1-13.35
						c-0.05-0.39-0.33-0.71-0.48-1.08c-1.17-2.76-2.96-5.26-1.88-8.96c0.18-0.6-0.25-1.31-0.41-1.97
						c-2.18-8.91-5.83-17.17-6.97-26.55c-0.09-0.76-0.74-1.35-1.06-2.05c-0.71-1.53-1.41-3.05-2.04-4.63
						c-0.43-1.09-0.51-2.46-1.15-3.34c-2.02-2.81-2.81-6.19-3.31-9.78c-0.18-1.33-0.4-2.75-1-3.84c-3.22-5.91-4.95-12.8-8.87-18.24
						c-0.34-0.48-0.48-1.3-0.4-1.97c0.28-2.27-0.84-3.53-2.04-4.93c-1.39-1.62-2.71-3.43-3.51-5.48
						c-1.98-5.04-3.46-10.37-5.49-15.38c-1.13-2.79-3.02-5.12-4.44-7.75c-1.3-2.4-2.28-4.95-4.66-6.51
						c-1.14-0.75-1.63-2.59-2.23-4.04c-0.81-1.95-1.13-4.26-2.23-5.95c-3.06-4.7-6.42-9.16-9.6-13.63
						c2.29-5.58,4.45-10.85,6.68-16.28c3-1.42,5.6-5.04,5.52-8.37c-0.05-2.25,0.44-4.04,1.98-6.04c2.8-3.67,3.35-7.66,1.52-11.3
						c-1.38-2.76-3.07-5.31-4.68-7.91c-0.25-0.41-0.8-0.59-1.23-0.86c-1.72-1.1-3.84-0.89-5.81-1.23
						c-8.46-1.48-15.87,2.99-23.1,8.11c-3.78,2.68-7.5,4.13-11.61,3.78c-4.22-0.36-8.08-1.43-11.58-3.67
						c-3.44-2.21-7.48-3.55-10.76-5.96c-3.08-2.27-7.41-2.89-9.22-6.93c-0.18-0.41-0.8-0.54-1.23-0.8
						c-1.37-0.83-2.74-1.67-4.12-2.49c-2.68-1.6-5.12-4.08-8.12-4.52c-2.89-0.42-4.84-1.88-7.12-3.09
						c-1.86-0.98-3.86-2.45-5.88-2.21c-2.07,0.25-3.51-0.46-5.15-0.95c-2.06-0.62-4.03-1.46-6.06-2.14c-1.8-0.6-3.64-1.1-5.46-1.63
						c-3.64-1.07-7.16-2.59-10.96-3.06c-4.02-0.49-7.47-2.11-11.18-3.3c-3.51,1.66-6.99,2.87-10.57,1.73
						c-1.11-0.35-2.6,0.14-3.92,0.37c-1.06,0.19-2.13,0.69-3.18,0.84c-4.05,0.55-8.11,0.19-12.16,2.17c-0.5,0.24-1.07,0.31-1.6,0.36
						c-5.08,0.42-10.09,1.66-15.04,3.89c-1.39,0.62-2.89,0.74-4.32,1.25c-3.88,1.37-8.15,1.32-11.38,5.21
						c-0.41,0.49-1.22,0.83-1.83,0.9c-5.22,0.55-9.68,3.61-14.13,6.77c-2.79,1.98-5.65,3.54-8.88,3.62c-0.9,0.02-1.85,0.51-2.78,0.8
						c-3.03,0.96-6.03,0.64-8.06-1.02c-3.62-2.97-6.96-6.26-11.18-8.4c-0.53-0.27-0.88-0.9-1.28-1.39
						c-4.39-5.25-10.27-7.22-17.37-6.03c-2.19,0.37-4.54,1.48-6.55,2.81c-2.18,1.43-4.05,3.44-4.28,6.46
						c-0.27,3.55-1.24,7.24-0.98,10.63c0.22,2.78,1.81,5.21,2.75,7.82c0.81,2.26,1.39,4.65,2.35,6.8c1.45,3.23,3.39,6.16,4.68,9.46
						c1.48,3.77,0.87,7.83-1.92,11.61c-2.65,3.6-5.11,7.52-8.3,10.48c-2.11,1.96-3.03,4.24-4.45,6.4
						c-2.78,4.23-5.67,8.42-8.14,12.82c-2.98,5.31-5.51,10.85-8.33,16.25c-3.92,7.49-8.04,14.9-11.19,22.72
						c-0.28,0.68-0.71,1.32-1.09,1.97c-1.37,2.31-2.53,4.79-4.15,6.9c-3.34,4.34-2.79,9.91-6.61,14.36
						c-2.4,2.78-2.94,7.27-4.47,10.95c-1.3,3.14-2.84,6.2-4.23,9.32c-0.84,1.89-1.71,3.78-2.38,5.72
						c-1.73,4.99-2.72,10.19-6.02,14.7c-0.51,0.7-1.23,1.87-1.05,2.36c1.34,3.46-0.62,6.84-1.52,10.24
						c-0.78,2.95-1.69,5.87-2.43,8.82c-0.53,2.12-0.62,4.32-1.33,6.38c-3.17,9.24-5.3,18.62-7.24,28
						c-1.05,5.1-1.62,10.23-2.47,15.35c-0.41,2.52-1.03,5.03-1.41,7.55c-0.84,5.65-1.65,11.31-2.36,16.96
						c-0.34,2.7-0.08,5.43-0.71,8.08c-0.69,2.87-1.9,5.6-0.11,8.05c0.23,0.31-0.05,1.1-0.15,1.66c-0.33,1.82-0.52,3.67-1.06,5.46
						c-0.95,3.17,0.42,6.01-0.29,9.04c-0.8,3.42-0.58,6.52,0.07,9.62c0.17,0.79,0.49,1.8,0.16,2.44c-1.18,2.29-0.55,4.13-0.13,6.13
						c0.25,1.17,0.05,2.53,0.04,3.8c-0.02,2.74-0.16,5.5-0.04,8.2c0.08,1.79,0.46,3.44-0.3,5.4c-0.74,1.9-0.34,3.43,1.87,3.45
						c0.14,0,0.22,0.39,0.38,0.69C674.46,565.5,673.84,566.33,673.6,566.64z M1115.76,664.24c1.49,0.13,2.65,0.61,3.61,0.22
						c1.4-0.57,2.83-1.58,3.94-2.74c5.05-5.3,10-10.71,14.96-16.12c0.6-0.65,0.87-1.75,1.52-2.21c4.96-3.53,8.32-8.83,12.7-12.99
						c2.35-2.23,3.12-5.74,5.88-7.72c1.17-0.84,2.21-1.99,3.17-3.13c4.67-5.55,7.94-12.11,12.48-17.79
						c2.05-2.56,3.68-5.47,5.49-8.23c1.46-2.24,2.92-4.47,4.33-6.74c2.38-3.82,4.71-7.67,7.07-11.51c0.55-0.89,1.19-1.74,1.68-2.66
						c2.36-4.51,4.83-8.97,6.97-13.57c1.82-3.9,5.26-7.5,4.09-12.16c-0.12-0.49,0.65-1.76,1.23-2.12c2.67-1.61,3.64-4.18,4.51-6.89
						c0.31-0.98,0.58-2.07,1.17-2.87c2.87-3.84,3.6-8.06,4.11-12.42c0.31-2.66,0.67-5.32,2.15-7.97c1.57-2.8,2.68-5.88,3.69-8.91
						c0.65-1.94,0.88-4,1.13-6c0.72-5.84,3.54-11.58,3.27-17.47c-0.03-0.65,0.2-1.49,0.57-2.09c3-4.96,3.51-9.92,2.49-14.96
						c-0.23-1.15-0.51-3.01,0.08-3.63c1.85-1.96,1.52-4.06,1.9-6.11c1.17-6.44,2.73-12.89,2.46-19.31
						c-0.09-2.07-0.03-4.23,0.31-6.34c0.52-3.28,1.44-6.55,1.99-9.83c0.2-1.2-0.03-2.49-0.34-3.61c-0.73-2.64-1.22-5.25-0.33-8.27
						c0.36-1.21,0.3-2.57,0.15-3.77c-0.57-4.35-0.01-8.82,1.08-13.24c1.05-4.23,0.66-8.15-0.5-11.65
						c-1.97-5.92-1.42-12.52-2.49-18.65c-0.73-4.17-1.08-8.48-1.71-12.69c-0.54-3.61-2.39-6.79-1.18-10.99
						c0.32-1.1-0.4-2.37-0.66-3.55c-0.78-3.58-1.59-7.16-2.35-10.75c-0.51-2.4-0.74-4.93-1.44-7.23
						c-2.12-6.94-4.49-13.73-5.04-21.37c-0.19-2.71-0.87-5.59-2.23-7.64c-2.12-3.21-2.24-7.36-3.88-10.77
						c-1.41-2.91-1.81-6.48-3.03-9.54c-1.36-3.42-3.95-6.31-4.55-9.94c-1.25-7.52-5.64-12.92-8.35-19.43
						c-2.16-5.2-5.05-9.97-7.66-14.9c-3.28-6.2-6.51-12.43-9.94-18.52c-1.26-2.24-3.17-4-4.58-6.14c-2.95-4.49-5.46-9.37-8.73-13.55
						c-2.47-3.15-4-7.01-6.81-9.94c-2.11-2.2-2.83-5.87-5.96-7.19c-0.19-0.08-0.25-0.45-0.34-0.7c-1.84-5.37-6.25-8.34-9.65-12.23
						c-3.25-3.72-7.06-6.86-9.26-11.6c-0.51-1.1-1.73-1.77-2.67-2.57c-1.9-1.62-3.86-3.18-5.77-4.81c-2.54-2.17-4.23-5.64-8.43-5.12
						c-0.29-0.8-0.4-1.51-0.76-2.02c-1.32-1.87-2.33-4.47-4.2-5.27c-2.12-0.91-3.13-2.19-3.9-4.26c-0.44-1.16-1.45-2.05-2.36-2.87
						c-0.93-0.84-2.07-1.42-3.07-2.18c-2.49-1.9-4.98-3.8-7.42-5.77c-0.85-0.69-1.51-1.63-2.3-2.4c-0.6-0.58-1.26-1.1-1.92-1.6
						c-2.71-2.01-5.89-3.28-8.22-5.93c-1.77-2.02-3.77-3.77-6.56-4.8c-4.24-1.56-8.24-3.94-11.74-6.76c-3.82-3.08-6.99-7-12.58-7.02
						c-0.38,0-0.89-0.07-1.08-0.33c-2.9-3.99-8.34-3.82-11.85-7.15c-2.87-2.73-7.39-3.55-11.17-5.21c-2.65-1.16-5.14-2.87-7.99-3.34
						c-3.06-0.5-5.29-2.2-7.81-3.52c-0.56-0.29-1.17-0.51-1.78-0.69c-2.28-0.69-5-0.79-6.73-2.19c-1.97-1.61-4.06-2.32-6.53-2.58
						c-2.18-0.23-4.45-0.25-5.99-2.05c-0.29-0.34-1.08-0.61-1.42-0.4c-2.78,1.69-4.53-0.27-6.56-1.01
						c-2.02-0.73-3.89-1.67-6.31-1.13c-0.74,0.17-1.51-0.26-2.25-0.45c-4.08-1.1-8.09-2.44-12.27-3.21
						c-2.11-0.39-4.49-0.12-6.06-1.63c-1.64-1.58-3.78-1.26-5.82-1.42c-2.6-0.21-5.21-0.33-7.81-0.54
						c-1.56-0.13-3.14-0.22-4.63-0.56c-4.08-0.94-8.32-1.36-12.43-2.08c-4.44-0.77-8.71-1.99-13.43-1.57
						c-1.93,0.17-3.9,0.58-5.81,0.58c-3.53,0.01-7.01-0.33-10.55-0.27c-2.51,0.04-5.07,0.67-7.24-0.87c-0.7-0.5-2.02-0.13-3.06-0.1
						c-1.82,0.05-3.66,0.15-5.48,0.21c-2.38,0.08-4.77,0.2-7.14,0.2c-3.16,0.01-6.42,0.3-9.43-0.23c-2.47-0.44-4.68-0.04-7.07,1.06
						c-4.17,1.92-8.28,3.36-12.63,2.55c-2.39-0.44-5.09-1.23-7.7,1.2c-0.35,0.33-1.05,0.25-1.58,0.3c-2.53,0.25-5.07,0.24-7.59,0.77
						c-4.27,0.91-8.53,2.11-12.78,3.29c-2.38,0.66-4.77,1.98-7.11,2.23c-7.95,0.84-15.74,2.75-23.36,6.65
						c-0.88,0.45-1.88,0.78-2.79,0.83c-3.63,0.21-7.1,1.68-10.66,2.73c-5.55,1.63-10.62,4.57-15.85,7.09
						c-2.3,1.11-4.35,2.68-6.96,2.84c-1.41,0.09-2.97,1.54-4.43,2.45c-3.17,1.98-6.2,4.62-9.51,5.87
						c-4.31,1.63-8.28,4.95-12.89,5.11c-0.49,0.02-1.08,0.37-1.54,0.71c-3.69,2.76-7.87,4.11-11.73,6.32
						c-5.46,3.13-10.3,7.62-15.79,10.8c-1.98,1.15-3.79,2.75-5.66,4.19c-2.31,1.79-4.83,3.38-6.8,5.53
						c-1.35,1.48-2.83,2.41-4.28,3.59c-4.53,3.67-9.36,6.82-13.45,11.31c-2.39,2.62-4.5,5.96-7.97,7.44
						c-0.82,0.35-1.48,1.42-2.19,2.19c-3.51,3.77-6.37,8.15-10.19,11.66c-2.17,1.99-4.59,4.2-5.82,6.75
						c-1.58,3.27-3.38,5.53-5.57,6.08c-1.99,2.84-3.24,5.01-4.85,6.81c-2.06,2.31-4.47,4.28-6.62,6.52
						c-0.65,0.68-1.3,1.81-1.33,2.66c-0.07,1.8-0.83,2.93-2.16,4.13c-1.18,1.06-2.11,2.5-3.04,3.85
						c-6.09,8.76-12.16,17.54-18.23,26.31c-0.33,0.48-1.03,1.13-0.95,1.41c0.98,3.52-1.71,5.55-3.61,7.95
						c-0.5,0.64-0.63,1.6-0.9,2.43c-0.91,2.78-1.72,5.58-2.73,8.33c-2.12,5.73-5.8,10.94-7.11,16.95c-0.09,0.41-0.33,0.86-0.61,1.18
						c-2.54,3-2.76,6.92-4.87,10.14c-1.11,1.7-2.15,3.88-2.22,5.72c-0.09,2.19-1.09,3.89-1.83,5.79c-0.64,1.65-1.04,3.37-1.75,4.98
						c-1.9,4.29-2.56,8.62-2.73,13.03c-0.04,0.95-0.56,1.97-0.9,2.95c-0.62,1.8-1.31,3.59-1.92,5.4c-1.44,4.27-3.81,8.45-3.01,12.95
						c0.06,0.31-0.49,0.8-0.55,1.2c-0.54,4.22-2.23,8.34-2.53,12.61c-0.2,2.83,0.72,5.77-1.4,8.6c-0.07,0.09-0.03,0.28-0.02,0.42
						c0.12,2.38-0.57,4.42-2.5,6.26c-0.57,0.54-1.05,2.19-0.75,2.66c1.47,2.3,0.35,4.85-0.08,7.36c-0.24,1.42-0.63,2.88-0.6,4.25
						c0.16,6.66,1.24,13.09,0.65,19.98c-0.37,4.33,0.31,8.55-1.28,13.01c-0.33,0.93,0.38,2.08,0.48,3.17
						c0.38,4.15,1.67,8.38,0.81,12.46c-1.13,5.35,0.97,9.49,0.94,14.34c-0.02,2.62,1.28,5.04,1.2,7.66
						c-0.27,7.92,1.9,15.01,2.92,22.5c0.68,5,1.16,10.08,1.53,15.17c0.19,2.69-0.97,5.81,1.62,7.58c0.38,0.26,0.23,1.3,0.35,1.97
						c0.25,1.33,0.47,2.68,0.81,3.98c1.16,4.41,2.48,8.75,3.54,13.2c1.22,5.1,2.28,10.19,4.4,14.92c2.39,5.34,3.74,11.34,5.6,17.03
						c0.83,2.54,1.7,5.07,2.72,7.51c1.83,4.37,3.79,8.65,5.68,12.98c0.42,0.96,0.62,2.11,1.2,2.93c2.04,2.84,3.26,6.27,5.09,9.28
						c3.65,6.01,6.77,12.44,8.76,19.55c0.27,0.98,1.17,1.65,1.74,2.49c0.79,1.15,1.58,2.3,2.3,3.5c0.39,0.65,0.47,1.7,1.03,2.04
						c2.52,1.55,3.31,4.45,4.72,6.92c2.55,4.49,5.41,8.76,8.42,12.88c1.78,2.44,2.65,5.79,5.6,7.12c-0.25,3.67,2.66,4.87,4.33,7.02
						c1.43,1.85,3.09,3.47,4.65,5.2c1.09,1.21,2.33,2.29,3.21,3.67c2.34,3.67,4.66,7.27,7.79,10.29c2.48,2.39,4.14,5.71,7.49,7.14
						c0.52,0.22,0.72,1.05,1.13,1.53c0.91,1.07,1.87,2.09,2.79,3.14c2.58,2.93,5.14,5.88,7.73,8.78c0.81,0.91,1.66,1.81,2.61,2.56
						c2.37,1.85,5.14,3.28,7.13,5.51c1.84,2.07,3.71,3.95,5.97,5.52c2.57,1.77,4.83,3.99,7.17,6.09c1.17,1.05,2.27,1.92,4.21,0.3
						c-3.63-5.32-5.11-12.01-9.49-16.59c-0.5-0.52-0.59-1.46-0.9-2.19c-3.56-8.08-5.14-17.23-8.86-25.22
						c-0.66-1.42-1.31-2.93-1.56-4.53c-1.62-10.31-3.06-20.68-4.72-30.98c-0.49-3.07-1.42-5.96-1.35-9.25
						c0.05-2.52-0.59-4.92-0.67-7.43c-0.09-2.64,0.35-5.41,0.17-8.02c-0.52-7.25-1.46-14.39,0.44-22.04
						c0.52-2.07,0.14-4.25,0.15-6.38c0.01-2.26-0.16-4.51,0-6.79c0.4-5.84,0.94-11.68,1.43-17.53c0.47-5.67,0.84-11.34,1.48-17.02
						c0.29-2.54,1.54-5.15,1.64-7.64c0.34-8.49,2.82-16.87,4.52-25.3c1.18-5.86,2.4-11.71,3.66-17.56
						c0.74-3.42,1.57-6.83,2.42-10.23c1.62-6.49,3.3-12.97,4.93-19.46c0.21-0.85,0.23-1.72,0.4-2.58c0.14-0.72,0.21-1.52,0.58-2.13
						c1.85-3.08,3.98-6.07,2.84-9.67c-0.08-0.26,0.39-0.78,0.53-1.19c1.77-5.02,3.59-10.03,5.25-15.07c1.05-3.2,1.62-6.51,2.81-9.66
						c3.05-8.05,6.25-16.06,9.53-24.05c2.7-6.58,6.74-12.74,8.21-19.73c0.08-0.4,0.35-0.81,0.58-1.19c1.7-2.78,3.51-5.5,5.1-8.33
						c3.93-7.02,6.34-14.82,11.76-21.09c0.47-0.54,0.71-1.31,1.02-2c3.54-7.92,9-14.61,14.24-21.37c3.59-4.63,6.21-9.82,9.66-14.5
						c0.26-0.36,0.46-0.79,0.59-1.21c1.06-3.63,1.47-6.79-0.98-9.76c-2.03-2.46-2.92-6.03-4.26-9.15c-0.67-1.56-0.84-3.57-1.86-4.74
						c-1.58-1.81-2.17-4.06-1.86-6.43c0.79-6.07-0.01-11.91,2.54-18.28c2.78-6.95,7.42-11.09,13.01-14.49
						c4.57-2.78,9.21-4.57,14.46-4.05c4.84,0.47,9.6,0.45,12.99,4.16c0.26,0.28,0.52,0.62,0.87,0.72
						c6.06,1.73,10.48,5.97,14.69,10.26c2.86,2.92,5.75,2.54,9.35,0.92c3.1-1.4,6.25-2.57,9.36-3.95c2.99-1.33,6.03-2.58,8.89-4.25
						c1.89-1.11,3.64-1.98,5.73-2.44c3.45-0.76,7.01-1.81,10.26-3.52c3.8-2,7.57-2.95,11.47-3.65c1.18-0.21,2.36-0.85,3.53-1.32
						c1.56-0.64,3.1-1.56,4.67-1.93c8.51-1.98,16.99-2.93,25.43-3.25c2.19-0.08,4.26,0.66,6.43,0.81c3.38,0.24,6.76,0.49,10.19,0.39
						c5.62-0.16,10.47,2.29,16.14,2.22c3.81-0.05,7.47,1.67,10.96,3.09c4.66,1.9,9.09,4.28,13.62,6.43
						c0.34,0.16,0.76,0.15,1.11,0.29c1.99,0.8,4.08,1.45,5.93,2.48c4.94,2.76,9.83,5.59,14.63,8.56
						c6.25,3.87,12.43,7.84,18.54,11.92c1.8,1.2,3.5,1.92,5.82,0.67c1.26-0.68,2.58-1.22,3.79-2.01c3.77-2.48,7.47-5.13,11.27-7.55
						c1.4-0.9,2.98-1.52,4.51-1.99c3.69-1.13,7.39-2.28,11.09-3.04c2.37-0.48,5.31-1.15,6.98-0.12c1.78,1.1,3.75,1.37,5.56,2.14
						c3.52,1.5,7.04,2.92,8.6,6.98c0.32,0.84,1.04,1.45,1.52,2.21c1.8,2.87,3.94,5.52,2.97,9.84c-0.3,1.32,0.39,2.7,0.39,4.09
						c-0.01,2.66,0.35,5.47-0.49,7.99c-0.61,1.83-1.44,3.41-1.15,5.3c0.11,0.74-0.25,1.7-0.56,2.51c-0.9,2.37-1.74,4.77-2.87,7.05
						c-1.84,3.72-3.45,7.72-5.96,10.93c-2.98,3.82-3.29,4.54-0.39,7.5c3.69,3.75,5.61,8.57,7.72,13.39
						c1.58,3.61,3.02,7.56,5.55,10.28c2.57,2.76,4.67,5.57,5.69,9.41c0.2,0.77,0.67,1.42,1.04,2.11c0.66,1.23,1.38,2.43,2,3.69
						c1.95,3.95,3.89,7.9,5.78,11.88c1.27,2.68,2.49,5.39,3.64,8.14c0.5,1.19,0.62,2.6,1.15,3.76c2.3,5.12,4.88,10.08,6.99,15.32
						c1.76,4.37,2.72,9.23,4.57,13.54c1.7,3.96,3.39,7.85,4.19,12.28c0.31,1.74,0.99,3.35,1.55,5c0.65,1.89,1.55,3.66,2,5.63
						c1.39,6.1,2.54,12.3,3.94,18.39c0.47,2.05,0.91,3.92-0.2,6.19c-0.3,0.61,0.03,1.56,0.23,2.29c0.24,0.88,0.67,1.66,0.99,2.5
						c0.55,1.45,1.04,2.93,1.62,4.36c0.64,1.57,1.55,3.02,2,4.67c1.34,4.93,2.61,9.9,3.72,14.93c0.66,3.02,3.12,5.49,1.19,9.42
						c-0.32,0.66,0.39,1.79,0.69,2.67c0.25,0.76,0.75,1.42,0.85,2.21c0.42,3.34,0.69,6.73,1.11,10.07c0.23,1.78,0.28,3.78,1.09,5.16
						c1.53,2.61,1.38,5.39,0.38,8.24c1.86,2.46,3.58,4.69,1.88,8.33c-0.21,0.46-0.03,1.1,0.05,1.64c0.62,4.33,1.36,8.61,1.86,12.97
						c0.6,5.35,1.34,10.71,1.38,16.17c0.03,4.67,0.4,9.15,1.53,13.45c0.14,0.51,0.33,1.19,0.12,1.64c-1.38,2.98-0.67,5.78-0.12,8.29
						c0.58,2.67,0.48,5.11,0.1,7.96c-0.77,5.78-0.74,11.55-0.96,17.31c-0.32,8.05-0.06,16.03-2.11,24.22
						c-0.49,1.97-0.39,4.01-0.59,6.01c-0.22,2.14-0.28,4.31-0.76,6.43c-1.13,4.99-2.69,9.94-2.58,14.97
						c0.01,0.63-0.45,1.35-0.69,2.02c-0.43,1.23-1.02,2.46-1.27,3.7c-0.76,3.81-1.3,7.63-2.14,11.43c-0.26,1.16-1.25,2.26-1.89,3.4
						c-0.7,1.24-2.01,2.62-1.96,3.7c0.16,3.64-1.73,6.47-3.79,9.24c-1.23,1.66-2.14,3.2-1.95,5.22c0.15,1.61-0.42,3.08-1.78,4.34
						c-0.62,0.57-1.23,1.42-1.45,2.2c-1.74,6.3-5.44,11.76-8.52,17.49c-0.4,0.75-1.02,1.53-1.7,1.97c-1.08,0.72-2.04,1.48-1.54,2.76
						c0.53,1.37,1.77,1.26,3.05,0.57c5.56-2.99,11.01-6.11,16.05-10.32c3.15-2.64,6.42-4.87,7.09-9.68
						C1114.15,673.76,1114.38,667.94,1115.76,664.24z M1054.56,901.07c-0.34-6.93-0.81-13.58-0.94-20.31
						c-0.09-4.71-0.56-9.2-2.09-13.39c-0.34-0.94-0.2-2.16-0.22-3.26c-0.02-0.97,0.22-2.02,0.04-2.92
						c-0.71-3.45-1.59-6.82-2.29-10.27c-0.27-1.33-0.29-2.76-0.32-4.16c-0.14-6.15-0.4-12.29-0.3-18.47
						c0.08-5.19-1.55-9.72-2.62-14.41c-2.08-9.13-4.67-18.06-8.73-26.24c-1.66-3.34-2.21-7.42-3.45-11.07
						c-1.19-3.52-2-7.48-4.08-10.24c-3.13-4.17-7.2-7.48-10.91-11.11c-0.43-0.42-1.09-0.88-1.64-0.79c-3.32,0.54-6.65,1.18-9.97,1.9
						c-1.04,0.22-2.06,0.96-3.09,1.15c-8.66,1.63-17.32,3.21-25.98,4.76c-1.45,0.26-2.98-0.11-4.33,0.46
						c-4.07,1.72-8.14,1.18-12.19,2.38c-1.39,0.41-2.94,0.8-4.2,0.53c-2.4-0.51-4.09,0.49-6.1,3c0.92,0.65,1.63,1.24,2.42,1.69
						c0.74,0.42,1.91,0.43,2.32,1.08c2.77,4.42,7.28,7.2,9.38,12.3c0.87,2.11,1.77,4.03,1.64,6.57c-0.2,3.86,0.98,4.74,4.52,3.49
						c1.04-0.37,2.06-1.01,3.02-1.67c2.02-1.39,3.92-3.05,6-4.27c4.33-2.52,8.7-2.9,12.6-0.98c3.81,1.87,5.71,5.65,3.61,13.13
						c-0.79,2.84-2.32,6.17-4.42,8.04c-2.65,2.38-6.21,3.55-9.42,5.1c-0.49,0.24-1.25-0.21-1.81-0.47c-2.59-1.18-5.59-1.64-7.3-4.36
						c-0.7-1.12-2.32-1.58-3.5-0.35c-0.7,0.74-0.97,2.4-0.87,3.49c0.33,3.42,0.85,6.8,1.46,10.14c0.22,1.22,0.91,2.26,1.46,3.57
						c-1.72,1.33-1.34,3.03-0.81,4.99c1.21,4.41,2.43,8.85,3.19,13.43c0.54,3.27,0.26,6.82,0.48,10.21c0.15,2.3,0.55,4.55,0.82,6.66
						c4.83-0.23,5.81-1.05,7.36-5.73c0.76-0.28,1.58-0.47,2.32-0.88c4.18-2.31,8.19-3.17,12.42-1.87c2.3,0.7,3.92,1.83,4.72,4.02
						c0.96,2.62,1.69,5.38,2.33,8.16c0.19,0.83-0.02,2-0.41,2.87c-2.42,5.31-9.24,9.73-14.34,9.44c-0.65-0.04-1.38-0.13-1.98,0.14
						c-2.47,1.1-4.5,0.43-6.41-0.63c-1.58-0.87-3.17-0.85-4.88,0.32c-1.21,3.13-2.22,6.16-0.95,9.16c0.32,0.75,0.02,1.93-0.16,2.91
						c-0.76,3.99-1.58,7.86-0.84,11.83c0.42,2.27-0.56,5.09-1.05,7.65c-0.35,1.85-1.61,3.97-1.27,5.48
						c0.65,2.91-0.89,5.31-1.89,7.77c-1.45,3.56-2.91,7.32-5.16,10.4c-4.21,5.77-8.02,11.87-13.2,16.93
						c-2.58,2.53-5.38,4.57-8.24,6.29c-5.75,3.45-12.12,4.8-17.97,8.08c-0.35,0.2-0.79,0.2-1.19,0.25
						c-5.75,0.71-11.52,1.69-17.23,2.03c-3.74,0.23-7.8,2.37-11.25,0.13c-0.53-0.34-1.6-0.08-2.37,0.2
						c-2.49,0.9-4.76,1.34-7.34,0.88c-5.54-1-11.3-1.27-16.96-1.87c-1.03-0.11-2.05-0.66-3.05-0.45c-4.4,0.94-8.59,0.92-12.68-0.1
						c-1.59-0.39-3.36-0.26-5.06-0.34c-0.91-0.04-1.93,0.22-2.75-0.03c-6.02-1.87-12.44-2.04-18.91-2.06
						c-0.51,0-1.12,0.03-1.49-0.22c-3.29-2.24-7.36-2.51-11.16-3.46c-2.45-0.61-4.96-1.07-7.35-1.83c-2.03-0.64-3.94-1.57-5.87-2.42
						c-1.37-0.61-2.64-1.88-4.07-1.82c-2.35,0.09-3.93-0.85-5.53-2.15c-1.86-1.5-4.05-2.59-5.76-4.23c-2.73-2.63-7.3-3.21-8.07-8.11
						c-0.12-0.74-1.2-1.35-2.01-1.62c-2.27-0.74-3.24-2.7-4.24-4.71c-1.8-3.62-3.68-7.19-5.46-10.82c-0.74-1.5-1.39-3.08-1.97-4.68
						c-0.54-1.49-0.99-3.04-1.38-4.61c-0.5-1.96-0.93-3.95-1.33-5.96c-0.15-0.79,0.14-1.84-0.22-2.44
						c-1.49-2.49-1.73-5.46-1.92-8.44c-0.26-3.89-0.04-7.94-0.7-11.67c-0.66-3.73-0.57-7.27,0.13-11.27
						c0.95-5.38-1.14-9.69-7.78-6.02c-0.69,0.38-1.54,0.33-2.31,0.47c-3.22,0.61-5.82-0.32-8.48-1.75
						c-3.94-2.12-6.15-5.37-6.66-10.12c-0.14-1.34-0.12-2.92,0.38-4.23c1.54-3.98,8.97-9.48,12.82-9.45
						c5.04,0.05,8.56,2.77,11.31,6.67c0.76,1.08,0.76,3.08,3.08,2.56c0.31-0.65,0.87-1.42,1.02-2.21c0.48-2.54,0.6-5.12,1.22-7.64
						c1.42-5.68,2.98-11.33,3.03-17.05c0.01-0.81,0.3-1.74,0.69-2.51c2.65-5.14,2.91-10.52,3.28-15.73
						c0.49-6.82-1.25-7.68-7.33-4.47c-1.38,0.73-2.5,1.25-3.72,0.34c-0.46-0.34-1.26-0.54-1.83-0.33c-3.52,1.28-5.21-1.55-7.69-2.62
						c-3.14-1.36-2.97-4.47-3-7.63c-0.05-5.44,2.37-9.57,6.93-12.61c1.82-1.22,3.68-2.44,5.61-3.33c2.29-1.06,4.42-1.85,6.78-0.32
						c2.38,1.55,4.32,3.4,6.04,5.63c0.73,0.95,1.51,1.85,2.37,2.9c3.65-4.73,6.62-9.29,10.27-13.09c3.6-3.75,7.88-6.73,12.3-10.41
						c-2.48-1.05-4.47-2.05-6.58-2.74c-3.98-1.3-7.99-2.52-12.06-3.59c-6.05-1.61-11.19-5.44-17.82-5.63
						c-0.13,0-0.24-0.09-0.35-0.14c-4.95-2.17-9.88-4.38-14.87-6.48c-3.11-1.31-6.32-2.42-9.23-3.53c-1.29,0.66-2.38,1.19-3.45,1.78
						c-1.85,1.03-4.05,1.72-5.44,3.24c-2.7,2.95-5.22,6.22-7.3,9.65c-2.82,4.67-5.15,9.63-7.71,14.46
						c-0.62,1.17-1.42,2.28-1.96,3.48c-3.35,7.45-6.65,14.92-9.95,22.39c-0.3,0.67-0.42,1.41-0.63,2.11
						c-0.4,1.35-0.77,2.7-1.21,4.04c-0.36,1.11-0.95,2.19-1.19,3.3c-1,4.69-2.31,9.36-2.05,14.1c0.1,1.82-0.77,3.88-1.3,5.82
						c-1.65,6-3.71,11.97-4.93,17.99c-0.96,4.77-0.85,9.6-1.35,14.41c-0.19,1.8-0.8,3.61-1.09,5.42c-0.31,1.95-0.52,3.91-0.68,5.86
						c-0.09,1.11,0.24,2.25-0.07,3.29c-0.66,2.24-1.56,4.45-2.47,6.63c-0.32,0.75-0.88,1.51-1.48,2.07
						c-3.12,2.85-6.84,4.19-10.42,5.79c-1.84,0.82-2.61,1.74-2.99,3.81c-0.62,3.39-0.16,6.45,0.22,9.62
						c0.5,4.23-0.95,8.53-1.95,12.81c-1.36,5.81-2.34,11.65-6.3,16.79c-1.14,1.48-1.56,3.52-2.46,5.23c-0.59,1.11-1.3,2.63-2.2,3.05
						c-4.99,2.3-7.74,7.26-11.41,11.08c-1,1.03-1.75,1.85-3.04,2.07c-0.8,0.13-1.61,0.42-2.4,0.75c-5.4,2.22-6.46,4.39-4.76,9.65
						c0.89,2.75,2.19,5.65,4.82,6.17c3.54,0.7,6.98,2.32,11.15,0.71c3.1-1.19,6.3-2,9.48-1.36c1.17,0.24,2.69-0.36,3.98-0.87
						c3.67-1.45,7.31-3.08,10.97-4.58c0.85-0.35,1.8-0.68,2.62-0.62c3.03,0.24,5.84-0.79,8.64-2.55c3.68-2.32,7.31-4.94,11.16-6.66
						c4.71-2.12,8.51-5.53,12.34-9.04c0.44-0.4,0.86-0.84,1.28-1.25c1.61-1.58,3.25-1.98,4.68-0.61c1.61,1.54,3.14,3.17,4.59,4.87
						c1.4,1.64,2.53,3.38,2.94,5.87c0.36,2.22,1.19,4.97,2.78,5.94c4.18,2.53,5.72,7.69,9.95,10.2c3.38,2,5.86,5.45,8.87,8.08
						c3.18,2.78,6.51,5.37,9.82,7.99c0.56,0.44,1.34,0.57,1.99,0.9c0.85,0.43,1.84,0.73,2.47,1.41c3.24,3.5,6.87,6.26,11.97,6.56
						c0.45,0.03,0.86,0.46,1.22,0.79c2.99,2.85,5.96,5.72,10.59,5.78c0.51,0.01,1.07,0.15,1.46,0.43c4.82,3.44,10.8,4.41,16.38,6.12
						c5.11,1.56,9.84,4.79,15.86,3.37c2.26-0.53,3.24,1.15,4.97,1.44c4.68,0.79,9.29,1.84,13.97,2.62c2.4,0.4,4.98,0.23,7.34,0.73
						c3.63,0.78,7.79-0.88,11.15,1.02c0.31,0.18,0.83,0.33,1.12,0.16c2.46-1.39,4.4-0.92,6.17,0.64c0.41,0.36,1.24,0.4,1.86,0.26
						c5.03-1.12,9.67-0.19,14.38,0.46c1.02,0.14,2.2,0.55,3.1,0.12c4.93-2.37,9.55-0.74,14.23-0.97c4.06-0.19,8.12-0.54,12.19-0.85
						c2.88-0.22,5.8-1.04,8.68-0.32c2.27,0.57,4.94,0.35,7.43-0.09c3.47-0.61,6.95-1.66,10.4-2.69c6.77-2.01,13.53-4.12,20.28-6.22
						c0.65-0.2,1.27-0.63,1.91-0.96c3.42-1.77,6.76-3.97,10.27-5.23c6.69-2.4,13.02-5.28,18.3-11.02c0.92-1,2.49-1.33,3.75-1.99
						s2.72-1.09,3.71-2.07c3.45-3.45,7.78-5.53,11-9.37c3.02-3.61,7.29-6.3,7.43-11.72c4.27,0.51,6.84-2.77,9.44-5.51
						c3.6,0.9,9.94,5.9,12.09,8.91c1.9,2.66,3.89,5.34,6.35,7.36c2.82,2.31,6.08,4.1,9.35,5.76c5.15,2.6,10.69,4.49,15.41,7.88
						c0.69,0.5,1.67,0.63,2.54,0.83c3.12,0.71,6.26,1.37,9.39,2.06c2.13,0.47,4.22,1.11,6.4,1.39c2.04,0.26,4.3-0.18,6.25,0.3
						c3.14,0.76,5.89,0.39,8.75-2.26c1.25-1.16,3.32-1.51,3.04-3.8c-0.21-1.73-0.38-3.61-1.17-4.98c-0.65-1.14-2.16-1.65-3.3-2.43
						c-3.41-2.33-6.84-4.63-10.2-7.03c-0.58-0.42-0.85-1.28-1.27-1.92c-1.41-2.17-2.49-4.74-4.32-6.4
						c-2.15-1.96-3.53-4.38-4.64-7.06c-1.47-3.55-2.67-7.26-4.06-10.87c-2.15-5.57-2.28-11.73-1.95-17.99
						c0.18-3.4,0.92-6.86,1.11-10.26c0.16-2.76-0.23-5.33-2.99-6.36C1062.61,904.34,1058.78,902.75,1054.56,901.07z M924.01,786.3
						c-3.42,0.06-6.14,0.11-8.87,0.16c-4.2,0.08-8.55,0.69-12.57,0.11c-4.72-0.69-9.63,0.16-14.36-0.58
						c-5.79-0.91-11.87-0.76-17.83-1.07c-2.33-0.12-4.66-0.26-7-0.39c-2.85-0.15-5.78-0.05-8.54-0.5
						c-5.71-0.94-11.33-2.18-16.99-3.28c-0.25-0.05-0.53,0.01-0.79,0.02c-2.77,0.08-5.58,0.34-8.29,0.17
						c-1.32-0.08-2.42-1.13-3.72-1.43c-1.99-0.47-4.06-0.74-6.12-0.97c-6.18-0.71-12.36-1.46-18.59-1.94
						c-1.26-0.1-3.19,0.52-4.07,1.53c-2.34,2.67-4.28,5.59-5.34,9.19c-2.16,7.32-4.79,14.57-7.18,21.85
						c-0.31,0.94-0.35,1.96-0.43,2.93c-0.1,1.09,0.01,2.18-0.19,3.26c-0.92,5.1-2.07,10.19-3.2,15.28
						c-1.48,6.67-1.68,13.43-3.68,20.12c-0.2,0.68-0.11,1.42-0.09,2.12c0.2,5.45-2.39,11-2.03,16.44c0.02,0.25-0.24,0.56-0.27,0.84
						c-0.13,1.27-0.31,2.54-0.31,3.79c-0.01,1.27,0.25,2.49,0.24,3.75c-0.03,3.46-0.18,6.95-0.2,10.41
						c-0.01,0.98,0.03,2.08,0.44,2.84c2.68,4.99,2.42,11.33,4.81,16.58c1.86,4.1,3.14,8.65,5.2,12.72
						c2.43,4.81,6.96,7.22,10.55,10.7c0.43,0.42,1.18,0.45,1.74,0.73c1.21,0.61,2.42,1.23,3.59,1.92c0.97,0.57,1.81,1.41,2.84,1.85
						c2.39,1.04,4.86,1.94,7.32,2.84c1.73,0.63,3.84,0.73,5.17,1.85c2.82,2.39,6.53,2.83,9.84,3.85c5.39,1.66,11.8,0.12,17.08,2.59
						c0.42,0.2,1.06-0.07,1.59-0.06c1.96,0.07,3.95,0.01,5.85,0.28c9.95,1.4,19.98,2.45,30.18,2.82c3.49,0.13,6.87,0.92,10.35,1.1
						c4.7,0.23,9.42,0.63,14.18,0.1c6.76-0.75,13.58-2,20.34-3.58c3.51-0.82,7.31-1.23,10.46-4.24c0.52-0.49,1.21-0.89,1.86-1.09
						c4.12-1.29,7.13-3.72,7.77-8.43c1.15-0.42,2.32-0.51,3.06-1.18c4.71-4.26,8.57-9.3,9.72-15.52c0.79-4.29,2.12-8.55,2.71-12.76
						c0.99-7.11,1.16-14.21,1.52-21.3c0.21-4.15-1.21-7.88-0.11-12.4c0.83-3.4,0.04-7.01-0.19-10.49
						c-0.25-3.77-0.74-7.49-1.04-11.25c-0.43-5.39-1.73-10.48-1.62-16.11c0.09-4.23-1.97-8.08-2.52-12.28
						c-0.83-6.25-3.9-11.74-2.85-18.62c0.08-0.51-0.33-1-0.43-1.54c-0.7-4.02-2.92-7.03-4.88-10.23c-2-3.27-5.81-3.36-8.87-4.78
						c-2.87,1.88-5.41,0.13-8.18,0.49c-2.02,0.26-3.69,0.72-5.28,2.24c-0.17,0.16-0.5,0.12-0.8,0.19
						C924.58,787.31,924.21,786.65,924.01,786.3z M962.77,1013.8c2.29,4.53,5.53,7.02,8.97,9.27c3.55,2.33,8.32,2.48,11.29,5.9
						c0.53,0.61,1.6,0.78,2.48,0.92c3.2,0.51,6.21,1.35,8.75,3.33c0.87,0.68,2.06,1.48,3.09,1.3c3.59-0.64,6.28,1.23,9,2.43
						c4.6,2.02,9.48,3.53,14.51,3.46c5.89-0.08,11.35,2.78,17.62,0.07c0.23-0.1,0.58-0.07,0.77,0.06c2.2,1.37,4.36,0,6.48-1.26
						c4.25-2.52,5.4-7.88,2.46-11.11c-0.65-0.72-1.34-1.5-1.67-2.44c-0.85-2.34-2.31-3.9-4.28-5.24c-3.83-2.6-6.11-6.33-4.72-12.31
						c3.35-1.16,7.04-1.3,9.76-4.65c0.24-0.3,1.03-0.25,1.52-0.18c3.48,0.45,5.38-2.45,7.91-4.58c-1.97-3.07-4.26-4.4-7.64-4.27
						c-1.57,0.06-3.07-0.92-4.49-1.64c-0.99-0.5-1.75-1.42-2.67-2.05c-6.72-4.6-14.13-8.16-20.3-13.58
						c-0.57-0.5-1.26-0.85-1.94-1.19c-1.8-0.9-3.46-0.65-5.09,1.35c-0.93,1.14-2.04,2.16-3.18,3.07c-1.93,1.55-3.97,2.93-5.92,4.44
						c-3.91,3.03-7.75,6.18-11.7,9.13c-3.17,2.36-6.45,4.51-9.69,6.74c-1.54,1.06-3.06,2.15-4.64,3.1
						C974.07,1007.09,968.68,1010.28,962.77,1013.8z M755.95,1002.11c-2.57-2.11-4.65-3.9-6.81-5.57c-2.68-2.06-5.46-4-8.17-6.03
						c-1.49-1.11-3.38-1.94-4.31-3.5c-1.56-2.62-3-5.06-6.39-5.25c-0.45-0.02-0.94-0.47-1.17-0.89c-2.39-4.35-7.19-6.03-9.65-10.53
						c-2.05-3.75-5.74-6.28-8.58-9.48c-1.49-1.68-3.42-2.29-5.6-1.88c-3.08,0.57-6.04,1.78-8.77,4.01
						c-1.67,1.36-3.64,2.29-5.51,3.31c-1.64,0.9-3.32,1.71-5,2.49c-4.25,1.99-8.52,3.93-12.77,5.95c-0.94,0.45-1.8,1.17-3.13,2.05
						c2.95,2.08,4.52,4.96,7.97,5.57c2.24,0.4,4.21,1.72,6.27,2.71c1.81,0.87,3.12,4.03,2.04,5.4c-1.56,1.97-3.28,4.33-5.28,5.28
						c-3.63,1.73-6.03,4.73-8.42,7.72c-2.85,3.56-2.53,9.39,0.73,11.48c3.38,2.17,7.13,3.76,10.77,5.53
						c1.12,0.54,2.38,1.38,3.57,1.16c5.91-1.11,11.16,1.98,17.18-0.05c0.36-0.12,0.83-0.03,1.13,0.16c1.38,0.85,2.72,0.06,4.2-0.48
						c2.35-0.84,4.93-1.88,7.12-1.64c2.35,0.26,4.41-0.15,6.64-1.09c1.3-0.55,2.64-0.98,3.97-1.35c4.67-1.31,9.36-2.47,14.01-3.89
						C747.51,1011.63,751.58,1007.46,755.95,1002.11z M1091.93,814.08c1.39-7.39,0.79-13.74-1.92-18.95
						c-2.5-4.81-3.43-10.45-6.24-15.13c-1.52-2.55-2.9-5.11-4.97-7.15c-0.35-0.35-0.64-0.8-0.88-1.25c-2.1-4.02-3.87-8.32-6.37-12
						c-2.48-3.65-5.83-6.59-10.82-6.17c-3.99,0.34-8.02,1.07-12.04,1.8c-2.78,0.51-3.63,1.81-2.91,4.63
						c0.66,2.61,1.41,5.26,2.62,7.53c2.87,5.4,4.91,11.27,6.82,17.21c0.9,2.79,1.08,6.11,2.55,8.39c2.65,4.1,1.75,9.87,4.54,13.77
						c-0.57,3.67,2.24,6.14,1.62,9.93c-0.23,1.43,0.5,2.97,1.08,4.28c0.34,0.77,1.18,1.67,1.91,1.66c2.99-0.03,6.17,0.32,9.01-0.78
						C1081.38,819.73,1086.62,816.71,1091.93,814.08z M707.08,736.06c-0.57-0.64-1.11-1.82-2.03-2.17c-3.28-1.26-6.7-2.2-10.03-3.34
						c-2.82-0.96-5.39-0.2-7.69,2.52c-1.16,1.37-1.99,3.31-3.34,4.18c-3.81,2.46-5.94,6.02-8.39,9.83
						c-3.39,5.26-4.69,6.61-6.47,13.54c-0.17,0.67-0.62,1.41-1.11,1.91c-4.16,4.16-4.91,9.83-7.2,14.75
						c-1.3,2.79-1.66,6.16-3.18,9.11c-0.91,1.77-0.44,3.15,0.64,4.16c0.82,0.77,1.86,1.29,2.87,1.82c1.88,1,4.15,1.53,5.62,2.98
						c2.81,2.77,6.39,3.87,9.99,5.06c3.15,1.04,4,0.41,5.77-2.99c2.3-4.43,2.35-9.31,4.85-13.73c2.02-3.58,3.22-7.58,5-11.31
						c1.73-3.63,3.9-7.09,5.58-10.73c1.49-3.22,2.61-6.58,3.84-9.9c1.63-4.35,3.23-8.72,4.8-13.09
						C706.87,737.99,706.88,737.25,707.08,736.06z M640.87,772.17c4.62-2.55,4.69-2.53,5.51-4.71c1.39-3.7,3.93-6.83,5.19-10.72
						c1.23-3.78,3.89-7.26,5.98-10.84c2.03-3.48,4.03-6.97,6.21-10.35c2.15-3.33,1.68-5.03-1.8-5.41c-3.34-0.37-6.69,0.78-9.86,2.34
						c-2.52,1.23-5.37,2.69-7.13,4.87c-2.84,3.52-4.92,7.72-7.29,11.64c-0.22,0.36-0.33,0.83-0.36,1.24
						c-0.2,2.84-0.51,5.71-0.5,8.52C636.85,763.82,640.26,767.11,640.87,772.17z M1109.64,796.81c0.32,0.14,0.65,0.29,0.97,0.43
						c0.99-1.31,1.82-2.83,2.99-3.9c5.12-4.66,4.46-10.31,4.65-15.72c0.06-1.57-1.19-2.92-1.51-4.5c-1.04-5.08-3.65-8.86-7.03-12.23
						c-3.24-3.23-8.07-3.51-11.5-6.29c-0.85-0.69-1.96-1.03-2.95-1.55c-1.57-0.84-3.11-0.83-4.81,0.81
						c2.84,6.01,7.32,10.67,8.79,17.39c0.4,1.81,0.99,3.64,1.91,5.13c3.5,5.69,3.37,13.64,8.18,18.5
						C1109.69,795.24,1109.55,796.15,1109.64,796.81z M1105.7,959.3c1.83-3.31,0.8-5.75,0.49-8.3c-0.19-1.61-0.12-3.31-0.35-4.91
						c-0.39-2.68-0.65-5.46-1.49-7.92c-0.81-2.37-2.41-4.3-3.45-6.57c-2.61-5.67-6.41-10.14-11.23-13.62
						c-1.08-0.78-2.3-1.34-3.18-1.84c-1.34,1.99-2.4,3.47-3.35,5.01c-1.11,1.8-1.2,3.6-0.47,5.3c0.46,1.08,1.11,2.09,1.34,3.25
						c1.23,6.36,3.61,11.98,6.9,17.16c3,4.72,7.08,8.13,11.37,11.33C1103.19,958.88,1104.54,958.95,1105.7,959.3z M633.23,933.11
						c5.07-1.33,9.78-5.51,13.03-11.17c1.72-3.01,2.34-6.35,3.74-9.27c2.4-5,1.94-9.64,2.25-14.4c0.16-2.47-1.99-3.96-3.84-2.99
						c-5.06,2.67-9.3,6.47-12.22,11.76c-1.62,2.94-2.81,6.1-4.49,8.99c-2.45,4.22-2.54,8.69-3.22,13.01
						C627.88,932.79,629.79,934.01,633.23,933.11z M1079.31,695.03c0.31-0.55,0.65-0.92,0.65-1.23c0-0.23-0.45-0.38-0.7-0.57
						c-0.23,0.33-0.59,0.67-0.64,1C1078.59,694.46,1078.99,694.69,1079.31,695.03z"/>
					<path d="M422.75-224c0.63,1.96-0.29,2.92-3.06,3.4c0.85-1.6,1.44-2.73,2.03-3.86C422.07-224.31,422.41-224.15,422.75-224z"/>
					<path d="M1199.35,589.59c-0.22,0.56-0.43,1.12-0.69,1.66c-0.02,0.04-0.43-0.08-0.65-0.13c0.22-0.59,0.45-1.19,0.67-1.78
						C1198.9,589.43,1199.13,589.51,1199.35,589.59z"/>
					<path d="M924.36,696.66c-3.33,0.69-6.15,0.66-8.53,1.92c-3.03,1.6-5.49,1.15-8.06,0.51c-2.02-0.5-3.24-0.19-4.18,1.95
						c-1.5,3.41-3.41,6.88-4,10.35c-0.64,3.77-3.09,5.9-5.34,7.89c-2.23,1.96-5.21,3.04-7.94,4.07c-1.67,0.63-3.69,1.53-4.96-0.64
						c-0.29-0.49-1.95,0.01-2.98,0.14c-3.2,0.38-6.28,0.58-9.25-0.59c-5.15-2.03-7.02-6.54-8.08-11.96
						c-0.72-3.73-1.66-7.38-2.72-10.96c-0.27-0.91-1.21-1.79-2.09-2.04c-2.06-0.6-4.22-1.08-6.43-1.14
						c-7.78-0.21-13.22-4.51-18.13-9.6c-2.54-2.63-2.1-6.44-1.04-10.49c0.57-0.02,1.28-0.27,1.52-0.02
						c3.55,3.69,8.88,4.03,13.2,6.25c2.94,1.52,6.16,2.59,9.39,3.52c1.26,0.36,2.95,0.11,4.34-0.41c2.48-0.92,4.92-2.17,7.32-3.43
						c4.45-2.33,7.54-6.51,10.98-10.17c2.05-2.18,3.88-4.58,5.91-6.78c1.87-2.04,3.7-2.15,5.1-0.39c2.52,3.15,4.66,6.58,6.26,10.47
						c0.61,1.48,1.92,2.64,3.14,3.64c1.64,1.36,3.39,2.66,5.32,3.55c1.63,0.76,3.58,0.91,6.14,1.5c0.01,0.01,0.41,0.82,0.79,1.63
						c0.81,1.7,2.24,2.54,4.09,2.27c3.87-0.56,7.75-1.34,11.63-2.05c0.53-0.1,1.23-0.2,1.56-0.58c3-3.46,7.21-2.79,10.38-5.36
						c2.46,4.22,2.04,6.05-1.75,9.13c-2.4,1.95-4.61,3.99-7.64,4.77C926.83,694.02,925.42,695.82,924.36,696.66z"/>
					<path d="M1054.26,412.48c-2.1,1.71-4.12,3.45-6.24,5.01c-0.76,0.56-1.77,0.79-2.67,0.96c-1.84,0.36-3.69,0.66-5.52,0.81
						c-0.85,0.07-1.8-0.09-2.48-0.5c-2.05-1.21-4.11-2.46-5.95-3.96c-1.22-1-2.32-2.3-3.06-3.75c-1.93-3.77-4.93-6.89-5.24-11.69
						c-0.04-0.55,0.06-1.33-0.24-1.6c-2.98-2.66-1.68-6.91-1.89-10.52c-0.21-3.59,0.11-7.31,0.43-11c0.1-1.15,0.86-2.4,1.49-3.52
						c0.95-1.7,2.22-3.25,3.03-4.99c1.04-2.23,2.7-3.52,4.62-3.49c4.32,0.07,8.43,0.49,11.14,4.51c1.89,2.81,4.87,4.67,7.16,7.17
						c1.07,1.17,1.84,2.75,2.4,4.32c1.46,4.1,3.18,8.14,3.95,12.51c0.84,4.83,2.8,9.62,0.14,15.2
						C1054.7,409.25,1054.64,410.75,1054.26,412.48z"/>
					<path d="M866.21,654.39c-4.77-2.33-9.26-5.23-14.3-6.67c-2.61-0.74-5.22-1.29-7.58-2.62c-1.72-0.97-3.42-2.02-2.91-4.56
						c0.51-2.56,1.22-5.17,4.11-6.45c1.81-0.81,3.66-1.73,5.29-2.96c4.49-3.41,8.23-1.95,12.01-0.32c1.5,0.65,3.12,1.1,4.44,2.01
						c1.42,0.98,2.85,2.15,3.73,3.66c1.34,2.31,2.17,5,3.3,7.48c1.87,4.11,0.68,6.35-4.02,8.47
						C868.99,653,867.75,653.64,866.21,654.39z"/>
					<path d="M913.64,630.77c1.62,0.06,4.36-0.58,6.21,0.38c3.41,1.75,6.8,3.95,9.28,6.88c2.31,2.72-0.47,8.24-4.13,9.28
						c-4.38,1.24-8.76,2.51-13.15,3.62c-3.06,0.77-6.06,1.48-9.03,3.13c-2.79,1.56-5.56,1.53-7.8-0.49
						c-1.07-0.96-1.54-2.1-0.66-3.68c1.39-2.48,2.79-4.95,4.3-7.36C901.22,638.46,909.17,632.07,913.64,630.77z"/>
					<path d="M742.21,369.39c-0.68-1.19-2.13-2.43-1.89-3.55c0.5-2.34,1.49-4.98,3.02-6.84c2.43-2.96,5.31-5.63,8.29-7.94
						c1.62-1.26,3.9-2.02,5.77-2.09c1.51-0.05,3.66,0.82,4.12,2.07c1.64,4.46,2.91,9.18-0.13,14.54c-0.72,1.28-0.94,2.8-1.53,4.16
						c-1.11,2.61-2.23,3.17-4.46,2.29c-2.89-1.13-5.7-2.44-8.67-3.39c-1.09-0.35-2.5,0.11-3.77,0.2
						C742.71,369.03,742.46,369.21,742.21,369.39z"/>
					<path d="M1141.37,192.49c-0.28-0.69-0.65-2.32-1.51-3.51c-2.56-3.51-0.97-7.5,0.48-11.37c0.73-1.95,3.69-2.52,5.23-1.01
						c2.51,2.46,6.39,3,8.13,6.66c0.67,1.42,3.14,1.54,4.36,2.74c2.51,2.46,4.39,5.72,7.15,7.78c3.12,2.33,4.52,5.71,5.92,9.26
						c0.24,0.61,0.5,1.36,0.99,1.63c4.19,2.29,5.11,7.21,7.22,11.17c0.24,0.44,0.07,1.38,0.39,1.53c4.44,2.11,3.48,8.14,6.55,11.55
						c4.17,4.63,6.91,10.8,8.82,17.26c1.64,5.53,3.15,11.12,4.76,16.67c0.64,2.22-0.11,4.11-1.72,5.98
						c-2.57,2.98-5.28,5.51-8.75,7.33c-3.29,1.73-6.09,0.72-9.09,0.94c-4.6,0.33-7.43-2.07-8.97-6.38
						c-0.89-2.48-2.31-4.67-3.34-7.09c-0.93-2.18-1.92-4.37-2.4-6.75c-1.13-5.54-3.81-10.21-5.4-15.4
						c-1.12-3.65-3.28-6.63-3.94-10.63c-0.67-4.06-2.83-7.6-4.27-11.4c-1.12-2.96-2.13-5.99-3.21-8.97
						c-0.95-2.62-1.86-5.27-2.95-7.81c-0.56-1.31-1.25-2.7-2.28-3.53C1141.79,197.72,1141.03,195.94,1141.37,192.49z"/>
					<path d="M1213.95,317.64c-5.52,2.09-11.07,5.21-17.1,6.01c-1.75,0.23-2.96-0.3-4.41-0.8c-4.31-1.48-6.34-4.98-7.56-9.33
						c-0.4-1.41-0.75-2.85-1.22-4.22c-0.77-2.23-1.8-4.34-2.41-6.65c-0.87-3.27-1.33-6.86,0.77-10.22
						c3.45-5.52,7.69-10.01,14.2-10.1c0.83-0.01,1.76-0.96,2.66-1.16c1.96-0.44,3.95-0.8,5.89-0.92c0.62-0.04,1.4,0.64,1.68,1.25
						c3.03,6.71,5.72,13.7,6.78,21.28C1213.84,307.36,1215.97,311.72,1213.95,317.64z"/>
				</g>
				<g>
					<path class="st3" d="M1033.63,776.58c-1.19-3.52-2-7.48-4.08-10.24c-3.13-4.17-7.2-7.48-10.91-11.11
						c-0.43-0.42-1.09-0.88-1.64-0.79c-3.32,0.54-6.65,1.18-9.97,1.9c-1.04,0.22-2.06,0.96-3.09,1.15
						c-8.66,1.63-17.32,3.21-25.98,4.76c-1.45,0.26-2.98-0.11-4.33,0.46c-4.07,1.72-8.14,1.18-12.19,2.38
						c-1.39,0.41-2.94,0.8-4.2,0.53c-2.4-0.51-4.09,0.49-6.1,3c0.92,0.65,1.63,1.24,2.42,1.69c0.74,0.42,1.91,0.43,2.32,1.08
						c2.77,4.42,7.28,7.2,9.38,12.3c0.87,2.11,1.77,4.03,1.64,6.57c-0.2,3.86,0.98,4.74,4.52,3.49c1.04-0.37,2.06-1.01,3.02-1.67
						c2.02-1.39,3.92-3.05,6-4.27c4.33-2.52,8.7-2.9,12.6-0.98c3.81,1.87,5.71,5.65,3.61,13.13c-0.79,2.84-2.32,6.17-4.42,8.04
						c-2.65,2.38-6.21,3.55-9.42,5.1c-0.49,0.24-1.25-0.21-1.81-0.47c-2.59-1.18-5.59-1.64-7.3-4.36c-0.7-1.12-2.32-1.58-3.5-0.35
						c-0.7,0.74-0.97,2.4-0.87,3.49c0.33,3.42,0.85,6.8,1.46,10.14c0.22,1.22,0.91,2.26,1.46,3.57c-1.72,1.33-1.34,3.04-0.81,4.99
						c1.21,4.41,2.43,8.85,3.19,13.43c0.54,3.27,0.26,6.82,0.48,10.21c0.15,2.3,0.55,4.55,0.82,6.66c4.83-0.23,5.81-1.05,7.36-5.73
						c0.76-0.28,1.58-0.47,2.32-0.88c4.18-2.31,8.19-3.17,12.42-1.87c2.3,0.7,3.92,1.83,4.72,4.02c0.96,2.62,1.69,5.38,2.33,8.16
						c0.19,0.83-0.02,2-0.41,2.87c-2.42,5.31-9.24,9.73-14.34,9.44c-0.65-0.04-1.38-0.13-1.98,0.14c-2.47,1.1-4.5,0.43-6.41-0.63
						c-1.58-0.87-3.17-0.85-4.88,0.32c-1.21,3.13-2.22,6.16-0.95,9.16c0.32,0.75,0.02,1.93-0.16,2.91
						c-0.76,3.99-1.58,7.86-0.84,11.83c0.42,2.27-0.56,5.09-1.05,7.65c-0.35,1.85-1.61,3.97-1.27,5.48
						c0.65,2.91-0.89,5.31-1.89,7.77c-1.45,3.56-2.91,7.32-5.16,10.4c-4.21,5.77-8.02,11.87-13.2,16.93
						c-2.58,2.53-5.38,4.57-8.24,6.29c-5.75,3.45-12.12,4.8-17.97,8.08c-0.35,0.2-0.79,0.2-1.19,0.25
						c-5.75,0.71-11.52,1.69-17.23,2.03c-3.74,0.23-7.8,2.37-11.25,0.13c-0.53-0.34-1.6-0.08-2.37,0.2
						c-2.49,0.9-4.76,1.34-7.34,0.88c-5.54-1-11.3-1.27-16.96-1.87c-1.03-0.11-2.05-0.66-3.05-0.45c-4.4,0.94-8.59,0.92-12.68-0.1
						c-1.59-0.39-3.36-0.26-5.06-0.34c-0.91-0.04-1.93,0.22-2.75-0.03c-6.02-1.87-12.44-2.04-18.91-2.06
						c-0.51,0-1.12,0.03-1.49-0.22c-3.29-2.24-7.36-2.51-11.16-3.46c-2.45-0.61-4.96-1.07-7.35-1.83c-2.03-0.64-3.94-1.57-5.87-2.42
						c-1.37-0.61-2.64-1.88-4.07-1.82c-2.35,0.09-3.93-0.85-5.53-2.15c-1.86-1.5-4.05-2.59-5.76-4.23c-2.73-2.63-7.3-3.21-8.07-8.11
						c-0.12-0.74-1.2-1.35-2.01-1.62c-2.27-0.74-3.24-2.7-4.24-4.71c-1.8-3.62-3.68-7.19-5.46-10.82c-0.74-1.5-1.39-3.08-1.97-4.68
						c-0.54-1.49-0.99-3.04-1.38-4.61c-0.5-1.96-0.93-3.95-1.33-5.96c-0.15-0.79,0.14-1.84-0.22-2.44
						c-1.49-2.49-1.73-5.46-1.92-8.44c-0.26-3.89-0.04-7.93-0.7-11.67c-0.66-3.73-0.57-7.27,0.13-11.27
						c0.95-5.38-1.14-9.69-7.78-6.02c-0.69,0.38-1.54,0.33-2.31,0.47c-3.22,0.61-5.82-0.32-8.48-1.75
						c-3.94-2.12-6.15-5.37-6.66-10.12c-0.14-1.34-0.12-2.92,0.38-4.23c1.54-3.98,8.97-9.48,12.82-9.45
						c5.04,0.05,8.56,2.77,11.31,6.67c0.76,1.08,0.76,3.08,3.08,2.56c0.31-0.65,0.87-1.42,1.02-2.21c0.48-2.54,0.6-5.12,1.22-7.64
						c1.42-5.68,2.98-11.33,3.03-17.05c0.01-0.81,0.3-1.74,0.69-2.51c2.65-5.14,2.91-10.52,3.28-15.73
						c0.49-6.82-1.25-7.68-7.33-4.47c-1.38,0.73-2.5,1.25-3.72,0.34c-0.46-0.34-1.26-0.54-1.83-0.33c-3.52,1.28-5.21-1.55-7.69-2.62
						c-3.14-1.36-2.97-4.47-3-7.63c-0.05-5.44,2.37-9.57,6.93-12.61c1.82-1.22,3.68-2.44,5.61-3.33c2.29-1.06,4.42-1.85,6.78-0.32
						c2.38,1.55,4.32,3.4,6.04,5.63c0.73,0.95,1.51,1.85,2.37,2.9c3.65-4.73,6.62-9.29,10.27-13.09c3.6-3.75,7.88-6.73,12.3-10.41
						c-2.48-1.05-4.47-2.05-6.58-2.74c-3.98-1.3-7.99-2.52-12.06-3.59c-6.05-1.61-11.19-5.44-17.82-5.63
						c-0.13,0-0.24-0.09-0.35-0.14c-4.95-2.17-9.88-4.38-14.87-6.48c-3.11-1.31-6.32-2.42-9.23-3.53c-1.29,0.66-2.38,1.19-3.45,1.78
						c-1.85,1.03-4.05,1.72-5.44,3.24c-2.7,2.95-5.22,6.22-7.3,9.65c-2.82,4.67-5.15,9.63-7.71,14.46
						c-0.62,1.17-1.42,2.28-1.96,3.48c-3.35,7.45-6.65,14.92-9.95,22.39c-0.3,0.67-0.42,1.41-0.63,2.11
						c-0.4,1.35-0.77,2.7-1.21,4.04c-0.36,1.11-0.95,2.19-1.19,3.3c-1,4.69-2.31,9.36-2.05,14.1c0.1,1.82-0.77,3.88-1.3,5.82
						c-1.65,6-3.71,11.97-4.93,17.99c-0.96,4.77-0.85,9.6-1.35,14.41c-0.19,1.8-0.8,3.61-1.09,5.42c-0.31,1.95-0.52,3.91-0.68,5.86
						c-0.09,1.11,0.24,2.25-0.07,3.29c-0.66,2.24-1.56,4.45-2.47,6.63c-0.32,0.75-0.88,1.51-1.48,2.07
						c-3.12,2.85-6.84,4.19-10.42,5.79c-1.84,0.82-2.61,1.74-2.99,3.81c-0.62,3.39-0.16,6.45,0.22,9.62
						c0.5,4.23-0.95,8.53-1.95,12.81c-1.36,5.8-2.34,11.65-6.3,16.79c-1.14,1.48-1.56,3.52-2.46,5.23c-0.59,1.11-1.3,2.63-2.2,3.05
						c-4.99,2.3-7.74,7.26-11.41,11.08c-1,1.03-1.75,1.85-3.04,2.07c-0.8,0.13-1.61,0.42-2.4,0.75c-5.4,2.22-6.46,4.39-4.76,9.65
						c0.89,2.75,2.19,5.65,4.82,6.17c3.54,0.7,6.98,2.32,11.15,0.71c3.1-1.19,6.3-2,9.48-1.36c1.17,0.24,2.69-0.36,3.98-0.87
						c3.67-1.45,7.31-3.08,10.97-4.58c0.85-0.35,1.8-0.68,2.62-0.62c3.03,0.24,5.84-0.79,8.64-2.55c3.68-2.32,7.31-4.94,11.16-6.66
						c4.71-2.12,8.51-5.53,12.34-9.04c0.44-0.4,0.86-0.84,1.28-1.25c1.61-1.58,3.25-1.98,4.68-0.61c1.61,1.54,3.14,3.17,4.59,4.87
						c1.4,1.64,2.53,3.38,2.94,5.87c0.36,2.22,1.19,4.97,2.78,5.94c4.18,2.53,5.72,7.69,9.95,10.2c3.38,2,5.86,5.45,8.87,8.08
						c3.18,2.78,6.51,5.37,9.82,7.99c0.56,0.44,1.34,0.57,1.99,0.9c0.85,0.43,1.84,0.73,2.47,1.41c3.24,3.5,6.87,6.26,11.97,6.56
						c0.45,0.03,0.86,0.46,1.22,0.79c2.99,2.85,5.96,5.72,10.59,5.78c0.51,0.01,1.07,0.15,1.46,0.43c4.82,3.44,10.8,4.41,16.38,6.12
						c5.11,1.56,9.84,4.79,15.86,3.37c2.26-0.53,3.24,1.15,4.97,1.44c4.68,0.79,9.29,1.84,13.97,2.62c2.4,0.4,4.98,0.23,7.34,0.73
						c3.63,0.78,7.79-0.88,11.15,1.02c0.31,0.18,0.83,0.33,1.12,0.16c2.46-1.39,4.4-0.92,6.17,0.64c0.41,0.36,1.24,0.4,1.86,0.26
						c5.03-1.12,9.67-0.19,14.38,0.46c1.02,0.14,2.2,0.55,3.1,0.12c4.93-2.37,9.55-0.74,14.23-0.97c4.06-0.19,8.12-0.54,12.19-0.85
						c2.88-0.22,5.8-1.04,8.68-0.32c2.27,0.57,4.94,0.35,7.43-0.09c3.47-0.61,6.95-1.66,10.4-2.69c6.77-2.01,13.53-4.12,20.28-6.22
						c0.65-0.2,1.27-0.63,1.91-0.96c3.42-1.77,6.76-3.97,10.27-5.23c6.69-2.4,13.02-5.28,18.3-11.02c0.92-1,2.49-1.33,3.75-1.99
						s2.72-1.09,3.71-2.07c3.45-3.45,7.78-5.53,11-9.37c3.02-3.61,7.29-6.3,7.43-11.72c4.27,0.51,6.84-2.77,9.44-5.51
						c3.6,0.9,9.94,5.9,12.09,8.91c1.9,2.66,3.89,5.34,6.35,7.36c2.82,2.31,6.08,4.1,9.35,5.76c5.15,2.6,10.69,4.49,15.41,7.88
						c0.69,0.5,1.67,0.63,2.54,0.83c3.12,0.71,6.26,1.37,9.39,2.06c2.13,0.47,4.22,1.11,6.4,1.39c2.04,0.26,4.3-0.18,6.25,0.3
						c3.14,0.76,5.89,0.39,8.75-2.26c1.25-1.16,3.32-1.51,3.05-3.8c-0.21-1.73-0.38-3.61-1.17-4.98c-0.65-1.14-2.16-1.65-3.3-2.43
						c-3.41-2.33-6.84-4.63-10.2-7.03c-0.58-0.42-0.85-1.28-1.27-1.92c-1.41-2.17-2.49-4.74-4.32-6.4
						c-2.15-1.96-3.53-4.38-4.64-7.06c-1.47-3.55-2.67-7.26-4.06-10.87c-2.15-5.57-2.28-11.73-1.95-17.99
						c0.18-3.4,0.92-6.86,1.11-10.26c0.16-2.76-0.23-5.33-2.99-6.36c-3.89-1.45-7.72-3.05-11.94-4.73
						c-0.34-6.93-0.81-13.58-0.94-20.31c-0.09-4.71-0.56-9.2-2.09-13.39c-0.34-0.94-0.2-2.16-0.22-3.25
						c-0.02-0.97,0.22-2.02,0.04-2.92c-0.71-3.45-1.59-6.82-2.29-10.27c-0.27-1.33-0.29-2.76-0.32-4.16
						c-0.14-6.15-0.4-12.29-0.3-18.47c0.08-5.19-1.55-9.72-2.62-14.41c-2.08-9.13-4.67-18.06-8.73-26.24
						C1035.42,784.31,1034.87,780.23,1033.63,776.58z"/>
					<path class="st4" d="M1090.9,946.87c3,4.72,7.08,8.13,11.37,11.33c0.91,0.68,2.26,0.75,3.43,1.1c1.83-3.31,0.8-5.75,0.49-8.3
						c-0.19-1.61-0.12-3.31-0.35-4.91c-0.39-2.68-0.65-5.46-1.49-7.92c-0.81-2.37-2.41-4.3-3.45-6.57
						c-2.61-5.67-6.41-10.14-11.23-13.62c-1.08-0.78-2.3-1.34-3.18-1.84c-1.34,1.99-2.4,3.47-3.35,5.01c-1.11,1.8-1.2,3.6-0.47,5.3
						c0.46,1.08,1.11,2.09,1.34,3.25C1085.23,936.08,1087.61,941.7,1090.9,946.87z"/>
					<path class="st5" d="M1083.78,779.99c-1.52-2.55-2.9-5.11-4.97-7.15c-0.35-0.35-0.64-0.8-0.88-1.25
						c-2.1-4.02-3.87-8.32-6.37-12c-2.48-3.65-5.83-6.59-10.82-6.17c-3.99,0.34-8.02,1.07-12.04,1.8c-2.78,0.51-3.63,1.81-2.91,4.63
						c0.66,2.61,1.41,5.26,2.62,7.53c2.87,5.4,4.91,11.27,6.82,17.21c0.9,2.79,1.08,6.11,2.55,8.39c2.65,4.1,1.75,9.87,4.54,13.77
						c-0.57,3.67,2.24,6.14,1.62,9.93c-0.23,1.43,0.5,2.97,1.08,4.28c0.34,0.77,1.18,1.67,1.91,1.66c2.99-0.03,6.17,0.32,9.01-0.78
						c5.43-2.12,10.68-5.13,15.99-7.77c1.39-7.39,0.79-13.74-1.92-18.95C1087.51,790.31,1086.58,784.67,1083.78,779.99z"/>
					<path class="st6" d="M1047.27,1003.52c0.24-0.3,1.03-0.25,1.52-0.18c3.48,0.45,5.38-2.45,7.91-4.58
						c-1.97-3.07-4.26-4.4-7.64-4.27c-1.57,0.06-3.07-0.92-4.49-1.64c-0.99-0.5-1.75-1.42-2.67-2.05
						c-6.72-4.6-14.13-8.16-20.3-13.58c-0.57-0.5-1.26-0.85-1.94-1.19c-1.8-0.9-3.46-0.65-5.09,1.35c-0.93,1.14-2.04,2.16-3.18,3.07
						c-1.93,1.55-3.97,2.93-5.92,4.44c-3.91,3.03-7.75,6.18-11.7,9.13c-3.17,2.36-6.45,4.51-9.69,6.74
						c-1.54,1.06-3.06,2.15-4.64,3.1c-5.36,3.24-10.74,6.42-16.66,9.95c2.29,4.53,5.53,7.02,8.97,9.27
						c3.55,2.33,8.32,2.48,11.29,5.9c0.53,0.61,1.6,0.78,2.48,0.92c3.2,0.51,6.21,1.35,8.75,3.33c0.87,0.68,2.06,1.48,3.09,1.3
						c3.59-0.64,6.28,1.23,9,2.43c4.6,2.02,9.48,3.53,14.51,3.46c5.89-0.08,11.35,2.78,17.62,0.07c0.23-0.1,0.58-0.07,0.77,0.06
						c2.2,1.37,4.36,0,6.48-1.26c4.25-2.52,5.4-7.88,2.46-11.11c-0.65-0.72-1.34-1.5-1.67-2.44c-0.85-2.34-2.31-3.9-4.28-5.24
						c-3.83-2.6-6.11-6.33-4.72-12.31C1040.86,1007.02,1044.55,1006.87,1047.27,1003.52z"/>
					<path class="st4" d="M1101.15,776.38c3.5,5.69,3.37,13.64,8.18,18.5c0.36,0.36,0.22,1.27,0.31,1.93
						c0.32,0.14,0.65,0.29,0.97,0.43c0.99-1.31,1.82-2.83,2.99-3.9c5.12-4.66,4.46-10.31,4.65-15.72c0.06-1.57-1.19-2.92-1.51-4.5
						c-1.04-5.08-3.65-8.86-7.03-12.23c-3.24-3.23-8.07-3.51-11.5-6.29c-0.85-0.69-1.97-1.03-2.95-1.55
						c-1.57-0.84-3.11-0.83-4.81,0.81c2.84,6.01,7.32,10.67,8.79,17.39C1099.64,773.06,1100.24,774.89,1101.15,776.38z"/>
					<path class="st3" d="M661.15,792.39c1.88,1,4.15,1.53,5.62,2.98c2.81,2.77,6.39,3.87,9.99,5.06c3.15,1.04,4,0.41,5.77-2.99
						c2.3-4.43,2.35-9.31,4.85-13.73c2.02-3.58,3.22-7.58,5-11.31c1.73-3.63,3.9-7.09,5.58-10.73c1.49-3.22,2.61-6.58,3.84-9.9
						c1.63-4.35,3.23-8.72,4.8-13.09c0.24-0.68,0.26-1.42,0.46-2.62c-0.57-0.64-1.11-1.82-2.03-2.17c-3.28-1.26-6.7-2.2-10.03-3.34
						c-2.82-0.96-5.39-0.2-7.69,2.52c-1.16,1.37-1.99,3.31-3.34,4.18c-3.81,2.46-5.94,6.02-8.39,9.83
						c-3.39,5.26-4.69,6.61-6.47,13.54c-0.17,0.67-0.62,1.41-1.11,1.91c-4.16,4.16-4.91,9.83-7.2,14.75
						c-1.3,2.79-1.66,6.16-3.18,9.11c-0.91,1.77-0.44,3.15,0.64,4.16C659.1,791.33,660.15,791.85,661.15,792.39z"/>
					<path class="st4" d="M952.95,800.06c-0.7-4.02-2.92-7.03-4.88-10.23c-2-3.27-5.81-3.36-8.87-4.78
						c-2.87,1.88-5.41,0.13-8.18,0.49c-2.02,0.26-3.69,0.72-5.28,2.24c-0.17,0.16-0.5,0.12-0.8,0.19c-0.36-0.65-0.73-1.32-0.93-1.67
						c-3.42,0.06-6.14,0.11-8.87,0.16c-4.2,0.08-8.55,0.69-12.57,0.11c-4.72-0.69-9.63,0.16-14.36-0.58
						c-5.79-0.91-11.87-0.76-17.83-1.07c-2.33-0.12-4.66-0.26-7-0.39c-2.85-0.15-5.78-0.05-8.54-0.5
						c-5.71-0.94-11.33-2.18-16.99-3.28c-0.25-0.05-0.53,0.01-0.79,0.02c-2.77,0.08-5.58,0.34-8.29,0.17
						c-1.32-0.08-2.42-1.13-3.72-1.43c-1.99-0.47-4.06-0.74-6.12-0.97c-6.18-0.71-12.36-1.46-18.59-1.94
						c-1.26-0.1-3.19,0.52-4.07,1.53c-2.34,2.67-4.28,5.59-5.34,9.19c-2.16,7.32-4.79,14.57-7.18,21.85
						c-0.31,0.94-0.35,1.96-0.43,2.93c-0.1,1.09,0.01,2.18-0.19,3.26c-0.92,5.1-2.07,10.19-3.2,15.28
						c-1.48,6.67-1.68,13.43-3.68,20.12c-0.2,0.68-0.11,1.42-0.09,2.12c0.2,5.45-2.39,11-2.03,16.44c0.02,0.25-0.24,0.56-0.27,0.84
						c-0.13,1.27-0.31,2.54-0.31,3.79c-0.01,1.27,0.25,2.49,0.24,3.75c-0.03,3.46-0.18,6.95-0.2,10.41
						c-0.01,0.98,0.03,2.08,0.44,2.84c2.68,4.99,2.42,11.33,4.81,16.58c1.86,4.1,3.14,8.65,5.2,12.72
						c2.43,4.81,6.96,7.22,10.55,10.7c0.43,0.42,1.18,0.45,1.74,0.73c1.21,0.61,2.42,1.23,3.59,1.92c0.97,0.57,1.81,1.41,2.84,1.85
						c2.39,1.04,4.86,1.94,7.32,2.84c1.73,0.63,3.84,0.73,5.17,1.85c2.82,2.39,6.53,2.83,9.84,3.85c5.39,1.66,11.8,0.12,17.08,2.59
						c0.42,0.2,1.06-0.07,1.59-0.06c1.96,0.07,3.95,0.01,5.85,0.28c9.95,1.4,19.98,2.45,30.18,2.82c3.49,0.13,6.87,0.92,10.35,1.1
						c4.7,0.23,9.42,0.63,14.18,0.1c6.76-0.75,13.58-2,20.34-3.58c3.51-0.82,7.31-1.23,10.46-4.24c0.52-0.49,1.21-0.89,1.86-1.09
						c4.12-1.29,7.13-3.72,7.77-8.43c1.15-0.42,2.32-0.51,3.06-1.18c4.71-4.26,8.57-9.3,9.72-15.52c0.79-4.29,2.12-8.55,2.71-12.76
						c0.99-7.11,1.16-14.21,1.52-21.3c0.21-4.15-1.21-7.88-0.11-12.4c0.83-3.4,0.04-7.01-0.19-10.49
						c-0.25-3.77-0.74-7.49-1.04-11.25c-0.43-5.39-1.73-10.48-1.62-16.11c0.09-4.23-1.97-8.08-2.52-12.28
						c-0.83-6.25-3.9-11.74-2.85-18.62C953.45,801.08,953.04,800.59,952.95,800.06z"/>
					<path class="st4" d="M661.97,730.14c-3.34-0.37-6.69,0.78-9.86,2.34c-2.52,1.23-5.37,2.69-7.13,4.87
						c-2.84,3.52-4.92,7.72-7.29,11.64c-0.22,0.36-0.33,0.83-0.36,1.24c-0.2,2.84-0.51,5.71-0.5,8.52
						c0.01,5.07,3.43,8.37,4.04,13.42c4.62-2.55,4.69-2.53,5.51-4.71c1.39-3.7,3.93-6.83,5.19-10.72c1.23-3.78,3.89-7.26,5.98-10.84
						c2.03-3.48,4.03-6.97,6.21-10.35C665.92,732.22,665.45,730.52,661.97,730.14z"/>
					<path class="st6" d="M681.07,995.77c-3.63,1.73-6.03,4.73-8.42,7.72c-2.85,3.56-2.53,9.39,0.73,11.48
						c3.38,2.17,7.13,3.76,10.77,5.53c1.12,0.55,2.38,1.38,3.57,1.16c5.91-1.11,11.16,1.98,17.18-0.05
						c0.36-0.12,0.83-0.03,1.13,0.16c1.38,0.85,2.72,0.06,4.2-0.48c2.35-0.84,4.93-1.88,7.12-1.64c2.35,0.26,4.41-0.15,6.64-1.09
						c1.3-0.55,2.64-0.98,3.97-1.35c4.67-1.31,9.36-2.47,14.01-3.89c5.55-1.69,9.62-5.86,13.99-11.21c-2.57-2.11-4.65-3.9-6.81-5.57
						c-2.68-2.06-5.46-4-8.17-6.03c-1.49-1.11-3.38-1.94-4.31-3.5c-1.56-2.63-3-5.06-6.39-5.25c-0.45-0.02-0.94-0.47-1.17-0.89
						c-2.39-4.35-7.19-6.03-9.65-10.53c-2.05-3.75-5.74-6.28-8.58-9.48c-1.49-1.68-3.42-2.29-5.6-1.88
						c-3.08,0.57-6.04,1.78-8.77,4.01c-1.67,1.36-3.64,2.29-5.51,3.31c-1.64,0.9-3.32,1.71-5,2.49c-4.25,1.99-8.52,3.93-12.77,5.95
						c-0.94,0.45-1.8,1.17-3.13,2.05c2.95,2.08,4.52,4.96,7.97,5.57c2.24,0.4,4.21,1.72,6.27,2.71c1.81,0.87,3.12,4.03,2.04,5.4
						C684.79,992.45,683.08,994.81,681.07,995.77z"/>
					<path class="st4" d="M646.25,921.94c1.72-3.01,2.34-6.35,3.74-9.27c2.4-5,1.94-9.64,2.25-14.4c0.16-2.47-1.99-3.96-3.84-2.99
						c-5.06,2.67-9.3,6.47-12.22,11.76c-1.62,2.94-2.81,6.1-4.49,8.99c-2.45,4.22-2.54,8.69-3.22,13.01
						c-0.59,3.74,1.32,4.96,4.76,4.06C638.29,931.78,643.01,927.6,646.25,921.94z"/>
				</g>
			</g>
		</g>
		<path d="M1182.35,506.59c-0.22,0.56-0.43,1.12-0.69,1.66c-0.02,0.04-0.43-0.08-0.65-0.13c0.22-0.59,0.45-1.19,0.67-1.78
			C1181.9,506.43,1182.13,506.51,1182.35,506.59z"/>
		<g>
			<path class="st7" d="M656.99,652.48c3.52,3.89,6.94,7.96,9.96,12.26c0.51,0.73,0.97,1.48,1.43,2.24
				c0.63-0.25,1.38-0.36,2.25-0.26c8.33,0.93,12.85,6.75,19.67,10.75c8.11,4.75,17.7,7.08,26.07,11.45
				c15.47,8.08,31.99,13.61,47.94,20.67c8.22,3.64,16.45,7.3,25.09,9.88c8.8,2.62,17.86,4.51,26.86,6.3
				c18.57,3.69,37.18,7.36,55.83,10.63c3.89,0.68,7.81,1.32,11.73,1.86c0.78-1.22,2.11-2.09,4.01-2.08
				c13.84,0.05,27.76,1.06,41.65,1.46c0.59-0.65,1.46-1.12,2.64-1.28c8.14-1.15,16.23-1.11,24.44-1.12c3.12,0,6.13-0.14,9.1-0.4
				c0.21-0.13,0.43-0.25,0.68-0.36c5.92-2.62,12.06-2.7,18.24-3.11c4.89-1.12,9.81-2.05,14.77-2.85c6.05-2.11,11.84-5.02,17.99-6.87
				c9.39-2.82,19.11-4.31,28.63-6.6c7.56-1.82,15.77-3.32,22.54-7.32c0.28-0.3,0.6-0.57,0.98-0.82c7.89-5.22,16.64-8.79,23.83-15.04
				c7.39-6.42,15.57-11.71,23.03-17.99c3.29-2.77,6.02-5.79,8.54-8.96c-8.77-4.9-16.05-10.25-22.99-15.34
				c-17.48-12.89-32.6-24-64.18-26.82c-31.58-2.82-48.48,5.46-67.94,15.04c-20.37,10-43.42,21.31-87.49,17.38
				c-44.12-3.94-64.77-19.17-83.05-32.59c-17.48-12.87-32.58-24-64.16-26.82c-31.61-2.82-48.46,5.46-67.98,15.03
				c-10.63,5.21-22.03,10.78-36.76,14.36c1.02,1.51,1.97,3.06,2.81,4.69C641.02,637.45,649.61,644.33,656.99,652.48z"/>
			<path class="st7" d="M612.4,596.26c2.65,4.08,4.37,8.79,6.73,13.05c4.03,7.29,10.17,13.12,14,20.51
				c7.89,7.63,16.48,14.51,23.87,22.66c3.52,3.89,6.94,7.96,9.96,12.26c0.51,0.73,0.97,1.48,1.43,2.24
				c0.63-0.25,1.38-0.36,2.25-0.26c8.33,0.93,12.85,6.75,19.67,10.75c8.11,4.75,17.7,7.08,26.07,11.45
				c15.47,8.08,31.99,13.61,47.94,20.67c8.22,3.64,16.45,7.3,25.09,9.88c8.8,2.62,17.86,4.51,26.86,6.3
				c18.57,3.69,37.18,7.36,55.83,10.63c3.89,0.68,7.81,1.32,11.73,1.86c0.78-1.22,2.11-2.09,4.01-2.08
				c13.84,0.05,27.76,1.06,41.65,1.46c0.59-0.65,1.46-1.12,2.64-1.28c8.14-1.15,16.23-1.11,24.44-1.12c3.12,0,6.13-0.14,9.1-0.4
				c0.21-0.13,0.43-0.25,0.68-0.36c5.92-2.62,12.06-2.7,18.24-3.11c4.89-1.12,9.81-2.05,14.77-2.85c6.05-2.11,11.84-5.02,17.99-6.87
				c9.39-2.82,19.11-4.31,28.63-6.6c7.56-1.82,15.77-3.32,22.54-7.32c0.28-0.3,0.6-0.57,0.98-0.82c7.89-5.22,16.64-8.79,23.83-15.04
				c7.39-6.42,15.57-11.71,23.03-17.99c7.73-6.5,12.38-14.43,18.41-22.33c4.81-6.31,10.42-12.22,15.95-18.03
				c-0.7,0.39-1.41,0.78-2.12,1.18c-19.84,11.01-42.29,23.47-86.5,21.77c-44.26-1.7-65.66-15.87-84.59-28.36
				c-18.11-11.97-33.75-22.33-65.43-23.55c-31.71-1.22-48.12,7.9-67.14,18.44c-19.81,10.99-42.31,23.47-86.57,21.77
				c-44.24-1.7-65.66-15.86-84.59-28.36c-17.92-11.82-33.42-22.06-64.33-23.49C610.52,593.89,611.55,594.96,612.4,596.26z"/>
		</g>
		<g>
			<g>
				<path d="M673.34,667.9c-4.24-3.41-7.64-7.68-11.8-11.17c-0.61,0.79-1.21,1.57-1.82,2.36c4.46,2.64,8.44,5.85,12.39,9.17
					c1.26,1.06,3.24-0.26,2.36-1.82c-2.66-4.68-7.26-6.34-11.38-9.46c-5.04-3.81-8.18-8.9-13.93-11.97
					c-1.7-0.91-3.22,1.68-1.51,2.59c5.39,2.88,8.22,7.44,12.81,11.16c3.85,3.13,8.85,4.66,11.42,9.18c0.79-0.61,1.57-1.21,2.36-1.82
					c-4.15-3.49-8.32-6.87-13-9.64c-1.42-0.84-3.15,1.24-1.82,2.36c4.16,3.49,7.57,7.76,11.8,11.17
					C672.71,671.22,674.85,669.11,673.34,667.9L673.34,667.9z"/>
			</g>
		</g>
		<g>
			<g>
				<path d="M610.44,595.58c1.93,0,1.93-3,0-3C608.51,592.58,608.51,595.58,610.44,595.58L610.44,595.58z"/>
			</g>
		</g>
		<g>
			<g>
				<path d="M610.84,595.51c1.93,0,1.93-3,0-3S608.91,595.51,610.84,595.51L610.84,595.51z"/>
			</g>
		</g>
		<g>
			<g>
				<path d="M611.22,596.11c1.93,0,1.93-3,0-3S609.28,596.11,611.22,596.11L611.22,596.11z"/>
			</g>
		</g>
		<g>
			<g>
				<path d="M611.79,596.91c1.93,0,1.93-3,0-3S609.86,596.91,611.79,596.91L611.79,596.91z"/>
			</g>
		</g>
		<g>
			<g>
				<path d="M612.23,597.56c1.93,0,1.93-3,0-3S610.3,597.56,612.23,597.56L612.23,597.56z"/>
			</g>
		</g>
		<g>
			<g>
				<path d="M612.45,597.89c1.93,0,1.93-3,0-3S610.52,597.89,612.45,597.89L612.45,597.89z"/>
			</g>
		</g>
		<g>
			<g>
				<path d="M612.85,598.46c1.93,0,1.93-3,0-3S610.91,598.46,612.85,598.46L612.85,598.46z"/>
			</g>
		</g>
		<g>
			<g>
				<path d="M613.07,598.8c1.93,0,1.93-3,0-3S611.13,598.8,613.07,598.8L613.07,598.8z"/>
			</g>
		</g>
		<g>
			<g>
				<path d="M613.5,599.33c1.93,0,1.93-3,0-3C611.57,596.33,611.57,599.33,613.5,599.33L613.5,599.33z"/>
			</g>
		</g>
		<g>
			<g>
				<path d="M613.94,600.01c1.93,0,1.93-3,0-3C612.01,597.01,612,600.01,613.94,600.01L613.94,600.01z"/>
			</g>
		</g>
		<g>
			<g>
				<path d="M614.84,601.14c1.93,0,1.93-3,0-3S612.91,601.14,614.84,601.14L614.84,601.14z"/>
			</g>
		</g>
		<g>
			<g>
				<path d="M1051.67,715.71c6.73-2.83,14.43-3.49,20.49-7.8c3.66-2.6,7.01-5.45,10.85-7.84c3.74-2.32,7.38-4.75,10.91-7.38
					c14.33-10.69,26.88-23.55,41.3-34.13c1.54-1.13,0.05-3.73-1.51-2.59c-13.77,10.1-25.84,22.25-39.36,32.65
					c-6.58,5.07-14.11,8.86-20.55,14.06c-3.54,2.86-6.73,4.97-11.08,6.36c-3.97,1.26-7.99,2.16-11.84,3.78
					C1049.12,713.55,1049.89,716.45,1051.67,715.71L1051.67,715.71z"/>
			</g>
		</g>
		<g>
			<g>
				<path d="M1030,721.36c26.44-7.02,49.06-22.01,73.28-34.17c1.73-0.87,0.21-3.46-1.51-2.59c-23.97,12.04-46.39,26.91-72.56,33.87
					C1027.34,718.96,1028.13,721.85,1030,721.36L1030,721.36z"/>
			</g>
		</g>
		<g>
			<g>
				<path d="M1062.99,711.46c1.7-1.52,4.13-1.78,6.18-2.61c2.18-0.89,4.17-2.14,6.14-3.41c1.62-1.04,0.12-3.64-1.51-2.59
					c-2.38,1.53-4.73,2.97-7.44,3.81c-2.03,0.63-3.87,1.24-5.49,2.68C1059.42,710.63,1061.55,712.74,1062.99,711.46L1062.99,711.46z
					"/>
			</g>
		</g>
		<g>
			<g>
				<path d="M1068.87,708.02c0.51-0.63,1.2-0.81,1.95-1.05c0.94-0.31,1.89-0.62,2.83-0.93c1.83-0.6,1.04-3.5-0.8-2.89
					c-1.95,0.64-4.74,1.07-6.1,2.76C1065.55,707.38,1067.66,709.52,1068.87,708.02L1068.87,708.02z"/>
			</g>
		</g>
		<g>
			<g>
				<path d="M879.37,739.94c22.95-1.99,46.01-1.65,68.99-2.97c10.79-0.62,21.57-1.63,32.23-3.42c11.92-2,23.68-4.83,35.86-4.28
					c1.93,0.09,1.93-2.91,0-3c-10.81-0.49-21.32,1.61-31.9,3.55c-11.97,2.19-24.04,3.45-36.19,4.15
					c-22.99,1.32-46.04,0.98-68.99,2.97C877.46,737.11,877.44,740.11,879.37,739.94L879.37,739.94z"/>
			</g>
		</g>
		<g>
			<g>
				<path d="M850.01,738.82c13.47-1.38,26.97-1.45,40.45-0.2c1.92,0.18,1.91-2.82,0-3c-13.48-1.25-26.98-1.18-40.45,0.2
					C848.11,736.01,848.09,739.01,850.01,738.82L850.01,738.82z"/>
			</g>
		</g>
	</g>
</g>
</svg>
