<?xml version="1.0" encoding="utf-8"?>
<!-- Generator: Adobe Illustrator 23.0.1, SVG Export Plug-In . SVG Version: 6.00 Build 0)  -->
<svg version="1.1" id="Capa_1" xmlns="http://www.w3.org/2000/svg" xmlns:xlink="http://www.w3.org/1999/xlink" x="0px" y="0px" viewBox="0 0 512 512" width="70" height="70" style="enable-background:new 0 0 512 512;" xml:space="preserve">
<style type="text/css">
	.st0{fill:#725F0D;}
	.st1{fill:#3A3A02;}
</style>
<path class="st0" d="M191.87,202.89c20.03,26.29-21.38,69.37-53.44,29.06c-38.24-48.1-79.82-46.09-84.83-5.01
	c-4.98,40.83,59.59,39.95,74.92,70.64c13.93,27.89-44.63,49.21-31.5,106.71c16.7,73.14,108.88,64.13,130.93,21.04
	c49.32-96.4,100.2-32.06,118.9-12.02c39.52,42.34,136.88-9.79,64.13-77.15c-36.07-33.4-29.81-67.24-1.9-86.67
	c45.32-31.56,4.24-83.67-27.82-67.64c-8.54,4.27-15.53,18.04-32.06,22.54c-14.42,3.93-30.94-4.61-33.07-17.87
	c-5.34-33.4,44.6-58.31,40.08-87.34c-6.68-42.92-69.47-50.27-74.15-6.18c-5.1,48.12-25.28,68.3-57.35,52.27
	c-24.05-12.02-43.68-6-50.87,14.53C166.82,179.85,183.85,192.37,191.87,202.89z"/>
<path class="st1" d="M409.07,249.49c45.32-31.56,4.24-83.67-27.82-67.64c-8.54,4.27-15.53,18.04-32.06,22.54
	c-2.85,0.78-5.77,0.94-8.65,0.8c-5.69,10.51-12.61,21.33-27.75,31.43c-22.04,14.7-56.78,3.34-56.78-36.74s-41.42-44.09-51.44-18.04
	c-3.27,8.5-4.35,15.82-13.05,20.59c0.12,0.15,0.25,0.3,0.36,0.45c20.03,26.29-21.38,69.37-53.44,29.06
	c-7.31-9.2-14.74-16.53-22.02-22.14c-28.25,7.23-40.15,33.5-32.67,56.4c17.37,8.66,37.15,16.11,44.77,31.37
	c13.93,27.89-44.63,49.21-31.5,106.71c3.85,16.87,11.75,29.33,21.85,38.05c46.95,25.14,83.75-35.22,105.07-82.13
	c20.04-44.09,78.79-36.12,100.87-2.67c22.04,33.4,67.01,27.08,69.47-8.68c0.5-7.29,3.02-15.13,6.82-23.2
	C376.56,295.82,384.09,266.88,409.07,249.49z"/>
<g>
	<path class="st0" d="M38.47,7.53c-27.55,1-43.8,35.43-18.03,66.13c23.55,28.06,61.12,41.58,74.15,22.04
		C108.46,74.89,81.6,5.96,38.47,7.53z"/>
	<path class="st0" d="M186.42,23.47c-20.63,5.08-24.73,29.25-4.56,44.59c19.16,14.58,30.74,5,31.68-8.86
		C214.08,51.21,206.88,18.44,186.42,23.47z"/>
	<path class="st0" d="M435.6,68.28c-27.03,4.25-35.11,62.13-10.14,57.75C450.43,121.66,480.21,61.26,435.6,68.28z"/>
	<path class="st0" d="M502.52,488.17c13.02-27.94-42.12-52.85-52.58-21.16C441.32,493.09,485.73,524.18,502.52,488.17z"/>
</g>
<path d="M416.1,330.65c-15.7-14.53-23.47-29.73-22.48-43.95c0.83-11.89,7.66-22.64,19.77-31.07c28.14-19.6,26.74-45.71,16.99-62.12
	c-11.65-19.61-34.2-27.51-52.46-18.38c-4.23,2.11-7.68,5.5-11.35,9.09c-5.33,5.22-10.83,10.61-19.34,12.93
	c-5.58,1.52-12.14,0.48-17.1-2.72c-3.69-2.38-6.03-5.61-6.59-9.1c-2.24-14.02,8.27-27.1,19.39-40.95
	c11.49-14.31,23.38-29.1,20.69-46.36c-4.38-28.13-29.19-42.77-50.32-42.25c-21.21,0.52-36.4,14.82-38.69,36.43
	c-2.72,25.62-10.02,42.9-20.55,48.67c-6.76,3.7-15.5,2.92-25.98-2.32c-14.97-7.49-28.99-8.96-40.56-4.27
	c-9.67,3.92-16.84,11.88-20.74,23.03c-7.14,20.4,5.7,34.78,14.19,44.29c1.86,2.08,3.61,4.04,4.96,5.81
	c7.34,9.63,2.94,22.22-5.55,28.83c-13.17,10.25-27.26,2.08-36.06-8.98c-23.44-29.48-50.2-43.47-71.58-37.44
	c-14.59,4.12-24.27,17.31-26.57,36.19c-3.52,28.88,20.75,40.49,42.16,50.73c13.84,6.62,28.15,13.47,33.49,24.17
	c3.93,7.88-1.03,15.36-10.88,29.01c-12.37,17.13-29.31,40.58-21.22,76.02c7.67,33.6,31.1,55.24,64.29,59.39
	c3.72,0.46,7.44,0.69,11.14,0.69c29.8,0,57.91-14.68,69.48-37.29c14.92-29.16,30.9-45.07,47.49-47.29
	c22.75-3.05,44.33,20.62,55.92,33.34c1.2,1.32,2.32,2.54,3.34,3.64c14.3,15.32,37.12,21.25,59.58,15.48
	c21.52-5.53,37.76-20.36,42.4-38.7C450.03,368.88,432.21,345.57,416.1,330.65z M428.83,391.53c-3.29,13.02-15.4,23.69-31.59,27.85
	c-13.43,3.45-32.27,2.33-44.88-11.19c-0.98-1.05-2.06-2.23-3.22-3.51c-13.44-14.74-38.44-42.19-68.99-38.1
	c-21.76,2.91-41.56,21.53-58.85,55.33c-10.07,19.67-38.18,31.95-65.41,28.55c-26.56-3.32-45.35-20.75-51.53-47.84
	c-6.58-28.82,6.88-47.46,18.75-63.9c9.99-13.83,20.31-28.12,12.14-44.49c-7.64-15.31-24.32-23.29-40.44-31
	c-22.3-10.67-35.85-18.08-33.74-35.38c0.9-7.4,4.15-20.29,15.76-23.57c1.9-0.54,3.91-0.8,6.01-0.8c14.42,0,33.2,12.32,49.75,33.14
	c18.95,23.83,42.29,22.94,57.01,11.48c7.21-5.62,12.42-13.82,14.28-22.51c2.09-9.74-0.05-19.42-6.01-27.25
	c-1.7-2.23-3.64-4.41-5.7-6.71c-9.33-10.45-15.15-18.14-11.22-29.35c2.47-7.06,6.58-11.8,12.22-14.09
	c7.35-2.98,17.37-1.64,28.22,3.79c15.14,7.57,28.56,8.26,39.89,2.06c15.41-8.43,24.92-28.7,28.27-60.24
	c1.49-14.08,10.52-22.68,24.14-23.02c14.77-0.37,32.07,9.88,35.14,29.56c1.67,10.72-7.67,22.35-17.56,34.66
	c-12.1,15.06-25.8,32.12-22.51,52.71c1.24,7.74,5.95,14.61,13.27,19.33c8.56,5.52,19.47,7.24,29.18,4.59
	c12.27-3.35,19.82-10.74,25.89-16.69c2.8-2.74,5.44-5.32,7.56-6.38c9.48-4.74,24.21-1.93,32.85,12.62c6.77,11.4,7,28.45-12.67,42.15
	c-15.74,10.96-25.03,26-26.16,42.34c-0.92,13.18,3.07,33.6,27.26,55.99C424.74,359.1,432.67,376.34,428.83,391.53z"/>
<path d="M77.68,112.35c10.08-0.56,18.1-4.88,23.17-12.49c5.73-8.59,5.44-20.51,4.2-29c-1.6-10.89-5.74-22.72-11.66-33.31
	C79.63,12.93,59.52-0.73,38.23,0.03C23.16,0.58,9.96,9.57,3.77,23.51c-7.63,17.16-3.53,37.71,10.95,54.97
	c17.25,20.55,41.34,33.93,60.72,33.93C76.19,112.41,76.94,112.39,77.68,112.35z M26.21,68.83C15.5,56.07,12.23,41.4,17.48,29.6
	c3.9-8.79,11.86-14.24,21.3-14.58c0.4-0.02,0.8-0.02,1.2-0.02c21.3,0,35.26,20.8,40.32,29.87c8.63,15.45,13.94,37.89,8.08,46.67
	c-2.42,3.63-6.19,5.54-11.52,5.83C62.06,98.19,40.77,86.19,26.21,68.83z"/>
<path d="M183.75,76.71c6.88,3.02,12.59,4.17,17.29,4.17c6.46,0,11.01-2.15,14.08-4.55c6.53-5.1,9.43-13.99,7.76-23.78
	c-1.2-7.05-9.87-26.82-24.17-33.94c-7.04-3.51-14.45-3.45-21.41,0.15c-10.97,5.68-17.3,15.87-16.94,27.26
	C160.78,58.99,169.52,70.46,183.75,76.71z M184.2,32.09c2.68-1.39,5.1-1.4,7.83-0.04c8.56,4.26,15.37,18.94,16.07,23.03
	c0.72,4.19-0.13,7.81-2.21,9.43c-2.85,2.22-8.87,1.65-16.11-1.53c-8.81-3.87-14.2-10.39-14.42-17.43
	C175.18,40,178.4,35.09,184.2,32.09z"/>
<path d="M422.89,133.76c1.27,0,2.57-0.12,3.9-0.35c9.85-1.73,20.26-9.63,28.58-21.69c8.09-11.73,11.97-24.42,10.39-33.94
	c-1.09-6.56-4.6-11.61-10.16-14.61c-5.37-2.89-12.48-3.67-21.13-2.31c-11.94,1.88-22,11.47-27.62,26.31
	c-4.86,12.85-6.13,30.21,1.99,40.03C412.39,131.5,417.29,133.76,422.89,133.76z M420.87,92.49c3.6-9.52,9.55-15.8,15.92-16.8
	c13.05-2.05,13.86,2.75,14.16,4.56c2.09,12.55-14.42,36.24-26.76,38.4c-2.6,0.46-3.36-0.46-3.81-1
	C417.41,114.04,416.74,103.4,420.87,92.49z"/>
<path d="M505.67,461.74c-9.12-11.99-26.1-18.96-40.36-16.58c-10.94,1.83-18.92,8.75-22.47,19.49c-6.12,18.54,7.77,38.14,24.59,44.8
	c4.32,1.71,8.59,2.54,12.71,2.54c12.22,0,22.99-7.34,29.21-20.67l0,0C513.89,481.57,512.55,470.79,505.67,461.74z M495.75,484.99
	L495.75,484.99c-2.87,6.16-9.65,15.73-22.79,10.52c-12.4-4.92-18.61-17.87-15.88-26.16c1.79-5.42,5.29-8.49,10.7-9.4
	c1.07-0.18,2.18-0.27,3.32-0.27c8.18,0,17.58,4.49,22.63,11.13C497.28,475.49,497.96,480.25,495.75,484.99z"/>
</svg>
