<svg id="Layer_1" enable-background="new 0 0 512 512" height="70" viewBox="0 0 512 512" width="70" xmlns="http://www.w3.org/2000/svg"><path d="m443 36c11.046 0 20 8.954 20 20s-8.954 20-20 20h-60c16.569 0 30 13.432 30 30s-13.431 30-30 30h-60c16.569 0 30 13.432 30 30s-13.431 30-30 30h3c11.046 0 20 8.954 20 20s-8.954 20-20 20h-20c11.046 0 20 8.954 20 20s-8.954 20-20 20h30c11.046 0 20 8.954 20 20s-8.954 20-20 20h-10c11.046 0 20 8.954 20 20s-8.954 20-20 20h-20c11.046 0 20 8.954 20 20s-8.954 20-20 20h-20c11.046 0 20 8.954 20 20s-8.954 20-20 20h-1.714c1.106 3.128 1.714 6.493 1.714 10 0 16.568-13.431 30-30 30s-30-13.432-30-30c0-3.507.608-6.872 1.714-10h-1.714c-11.046 0-20-8.954-20-20s8.954-20 20-20h-20c-16.569 0-30-13.432-30-30s13.431-30 30-30h20c-11.046 0-20-8.954-20-20s8.954-20 20-20h-30c-11.046 0-20-8.954-20-20s8.954-20 20-20h-40c-11.046 0-20-8.954-20-20s8.954-20 20-20h10c-16.569 0-30-13.432-30-30s13.431-30 30-30h-40c-16.569 0-30-13.432-30-30s13.431-30 30-30h-20c-16.569 0-30-13.432-30-30s13.431-30 30-30h70 187z" fill="#8aa8bd"/><path d="m509.472 459.909c-3.67-4.125-9.991-4.498-14.118-.825-5.326 4.738-13.082 5.929-19.76 3.03l-23.756-10.307c-13.658-5.926-29.326-5.926-42.984 0l-29.126 12.636c-4.765 2.068-10.23 2.066-14.995 0l-29.125-12.636c-12.634-5.481-26.984-5.881-39.876-1.222.171-1.512.268-3.041.268-4.585 0-.57-.01-1.141-.04-1.7 11.98-4.21 20.04-15.58 20.04-28.3-.01-7.681-2.91-14.99-8.16-20.57-5.24-5.56-12.31-8.88-19.92-9.37-.22-.01-.43-.02-.65-.02-5.25 0-9.63 4.12-9.97 9.37-.16 2.67.71 5.239 2.48 7.239 1.77 2.011 4.21 3.2 6.87 3.37 5.26.33 9.37 4.71 9.35 9.98-.01 5.5-4.5 9.99-10 10h-1.71c-3.25 0-6.3 1.58-8.17 4.229-1.87 2.641-2.34 6.05-1.26 9.101.76 2.149 1.14 4.39 1.14 6.67-.014 7.567-4.256 14.171-10.483 17.567l-2.019.876c-4.765 2.066-10.231 2.066-14.996 0l-2.021-.877c-6.226-3.396-10.467-10-10.481-17.566 0-2.28.39-4.521 1.14-6.67 1.08-3.051.61-6.46-1.26-9.101-1.87-2.649-4.92-4.229-8.17-4.229h-1.71c-5.5-.01-9.99-4.5-10-10 .01-5.5 4.5-9.99 10-10 2.63 0 5.21-1.07 7.07-2.931 1.86-1.859 2.93-4.439 2.93-7.069 0-5-3-10-10-10h-20c-11.01-.021-19.98-8.99-20-20 .02-11.01 8.99-19.98 20-20h52c5.523 0 10-4.478 10-10s-4.477-10-10-10h-32c-5.5-.01-9.99-4.5-10-10 .01-5.5 4.5-9.99 10-10h32c5.523 0 10-4.478 10-10s-4.477-10-10-10h-62c-5.5-.01-9.99-4.5-10-10 .01-5.5 4.5-9.99 10-10h17c5.51 0 10-4.49 10-10s-4.49-10-10-10h-57c-5.5-.01-9.99-4.5-10-10 .01-5.5 4.5-9.99 10-10h37c5.523 0 10-4.478 10-10s-4.477-10-10-10h-27c-11.01-.021-19.98-8.99-20-20 0-1.681.21-3.34.61-4.931 1.35-5.35-1.9-10.8-7.24-12.149-.81-.2-1.64-.311-2.46-.311-4.58 0-8.56 3.11-9.69 7.551-.81 3.21-1.22 6.52-1.22 9.84 0 10.09 3.77 19.72 10.6 27.12-6.73 5.71-10.6 14.05-10.6 22.88 0 8.02 3.12 15.55 8.79 21.21 5.66 5.67 13.2 8.79 21.21 8.79h11.71c-1.13 3.2-1.71 6.569-1.71 10 0 8.02 3.12 15.55 8.79 21.21 5.66 5.67 13.2 8.79 21.21 8.79h1.71c-1.13 3.2-1.71 6.569-1.71 10 0 3.72.67 7.359 2 10.8-8.9 1.81-17 6.67-22.83 13.71-2.9 3.51-5.17 7.45-6.73 11.71-1.62 4.4-2.44 9.04-2.44 13.78s.82 9.38 2.44 13.779c1.56 4.261 3.83 8.2 6.73 11.711 5.83 7.04 13.93 11.901 22.83 13.711-1.33 3.439-2 7.079-2 10.8 0 12.72 8.05 24.09 20.04 28.3-.03.57-.04 1.14-.04 1.7 0 1.545.097 3.073.268 4.585-12.892-4.659-27.242-4.259-39.876 1.222l-29.125 12.636c-4.765 2.066-10.231 2.066-14.996 0l-29.125-12.636c-13.659-5.926-29.327-5.926-42.985 0l-23.756 10.307c-6.676 2.896-14.433 1.706-19.761-3.031-4.126-3.669-10.447-3.3-14.118.827-3.67 4.127-3.3 10.447.827 14.118 11.122 9.892 27.221 12.417 41.012 6.434l23.755-10.307c8.601-3.729 18.466-3.729 27.065 0l29.125 12.636c9.824 4.263 21.093 4.262 30.916 0l29.125-12.636c8.6-3.73 18.465-3.73 27.064 0l25.983 11.272c5.666 2.985 12.008 4.572 18.6 4.572 6.59 0 12.931-1.586 18.596-4.571l25.987-11.274c8.6-3.73 18.465-3.73 27.064 0l29.125 12.636c4.913 2.131 10.185 3.197 15.458 3.196 5.272 0 10.546-1.065 15.458-3.196l29.125-12.636c8.6-3.73 18.465-3.73 27.064 0l23.756 10.307c13.791 5.983 29.89 3.458 41.012-6.435 4.13-3.668 4.5-9.99.829-14.117z"/><path d="m324.54 373.52c-4.09 0-7.73 2.45-9.27 6.24-1 2.47-.98 5.19.05 7.65 1.04 2.46 2.98 4.369 5.45 5.38 1.21.489 2.47.729 3.77.729 4.09 0 7.72-2.439 9.26-6.229 2.08-5.11-.39-10.96-5.5-13.03-1.2-.49-2.47-.74-3.76-.74z"/><path d="m92.75 103.75c-4.41 6.59-6.75 14.279-6.75 22.25.01 8.41 2.59 16.46 7.46 23.27 4.77 6.67 11.36 11.641 19.05 14.391 1.09.399 2.22.59 3.37.59 4.21 0 7.99-2.66 9.42-6.63.9-2.511.76-5.23-.38-7.641-1.14-2.42-3.15-4.239-5.67-5.14-7.94-2.86-13.27-10.43-13.25-18.84.02-11.01 8.99-19.98 20-20h60c5.51 0 10-4.49 10-10s-4.49-10-10-10h-80c-11.01-.021-19.98-8.99-20-20 .02-11.01 8.99-19.98 20-20h337c5.51.01 9.99 4.5 10 10-.01 5.5-4.49 9.99-10 10h-129c-5.523 0-10 4.478-10 10s4.477 10 10 10h69c11.01.02 19.98 8.99 20 20-.02 11.01-8.99 19.979-20 20h-130c-5.523 0-10 4.478-10 10s4.477 10 10 10h70c11.01.02 19.98 8.99 20 20-.02 11.01-8.99 19.979-20 20h-30c-5.523 0-10 4.478-10 10s4.477 10 10 10h30 3c5.5.01 9.99 4.5 10 10-.01 5.5-4.5 9.99-10 10h-20c-2.63 0-5.21 1.069-7.07 2.93-1.86 1.86-2.93 4.44-2.93 7.07 0 3 2 10 10 10 5.5 0 9.99 4.5 10 10-.01 5.5-4.5 9.99-10 10-2.63 0-5.21 1.069-7.07 2.93-1.86 1.86-2.93 4.44-2.93 7.07 0 6 5 10 10 10h30c5.5.01 9.99 4.5 10 10-.01 5.5-4.5 9.99-10 10h-10c-2.63 0-5.21 1.069-7.07 2.93-1.86 1.86-2.93 4.44-2.93 7.07 0 5 4 10 10 10 5.5 0 9.99 4.5 10 10-.01 5.5-4.5 9.99-10 10h-14.14c-5.51 0-10 4.49-10 10s4.49 10 10 10h14.14c8.01 0 15.55-3.12 21.21-8.79 5.67-5.66 8.79-13.19 8.79-21.21 0-5.16-1.33-10.25-3.85-14.71 8.67-5.55 13.85-15 13.85-25.29 0-8.01-3.12-15.55-8.79-21.21-5.66-5.67-13.19-8.79-21.21-8.79h-1.71c1.13-3.2 1.71-6.57 1.71-10 0-3.82-.71-7.54-2.1-11.05 13.01-3.54 22.1-15.44 22.1-28.95 0-7.13-2.55-14.04-7.17-19.46 9-7.62 14.17-18.75 14.17-30.54 0-7.03-1.85-13.95-5.35-20h25.35c10.69 0 20.73-4.16 28.28-11.721 7.56-7.549 11.72-17.589 11.72-28.279 0-7.03-1.85-13.95-5.35-20h25.35c8.02 0 15.55-3.12 21.21-8.79 5.67-5.66 8.79-13.19 8.79-21.21 0-8.021-3.12-15.55-8.79-21.21-5.66-5.67-13.19-8.79-21.21-8.79h-337c-10.69 0-20.73 4.16-28.28 11.72-7.56 7.55-11.72 17.59-11.72 28.28 0 16.98 10.75 32.14 26.75 37.75z"/><path d="m150.68 156c0 5.51 4.48 10 10 10 5.51 0 10-4.49 10-10s-4.49-10-10-10c-5.52 0-10 4.49-10 10z"/><path d="m241 96c0-5.51-4.49-10-10-10s-10 4.49-10 10 4.49 10 10 10 10-4.49 10-10z"/><path d="m203 176c0 5.522 4.477 10 10 10h30c5.523 0 10-4.478 10-10s-4.477-10-10-10h-30c-5.523 0-10 4.478-10 10z"/><path d="m258 266c5.51 0 10-4.49 10-10s-4.49-10-10-10-10 4.49-10 10 4.49 10 10 10z"/></svg>