<?xml version="1.0" encoding="iso-8859-1"?>
<!-- Generator: Adobe Illustrator 19.0.0, SVG Export Plug-In . SVG Version: 6.00 Build 0)  -->
<svg version="1.1" id="Capa_1" xmlns="http://www.w3.org/2000/svg" xmlns:xlink="http://www.w3.org/1999/xlink" x="0px" y="0px"
	 viewBox="0 0 512 512" style="enable-background:new 0 0 512 512;" xml:space="preserve">
<path style="fill:#2CD7FF;" d="M39.919,341.323l26.232,76.558c1.633,4.767,5.323,8.547,10.049,10.296l26.025,9.631l25.472,39.502
	c2.619,4.061,6.861,6.795,11.64,7.504l105.759,15.677c5.862,0.869,11.747-1.419,15.483-6.018l30.834-37.96l57.892-8.06
	c7.856-1.094,13.873-7.54,14.424-15.453l2.474-35.57c0.304-4.377,3.685-7.915,8.044-8.418l48.254-5.567
	c3.465-0.4,6.719-1.869,9.309-4.204l42.074-37.918H39.919z"/>
<path style="fill:#CAFFFF;" d="M39.919,341.323l26.784-63.556c2.173-5.156,5.767-9.587,10.364-12.777l22.839-15.848l10.482-71.776
	c1.654-11.329,9.716-20.677,20.679-23.978l34.856-10.497c0,0,44.864-150.891,68.746-129.476s15.34,29.19,47.166,26.834
	c31.825-2.357,26.44,94.594,57.708,97.656l0,0c13.632,0,25.488,9.343,28.676,22.597l15.034,62.518l43.878,16.23
	c8.278,3.062,14.749,9.67,17.638,18.01l29.115,84.066H39.919V341.323z"/>
<path style="fill:#2CD7FF;" d="M473.884,341.326H456.29l-25.176-72.693c-2.888-8.338-9.358-14.941-17.645-18.002l-43.873-16.237
	l-15.032-62.518c-1.592-6.623-5.358-12.277-10.42-16.267c-5.072-3.99-11.44-6.327-18.257-6.327
	c-31.269-3.062-25.881-100.012-57.711-97.655c-31.82,2.357-23.278-5.419-47.169-26.83c-1.837-1.653-3.807-2.276-5.858-2.031
	c7.093-9.868,13.89-14.4,19.523-9.348c23.881,21.411,15.339,29.187,47.159,26.83c31.83-2.357,26.442,94.593,57.711,97.655
	c6.817,0,13.185,2.337,18.257,6.327c5.072,3.99,8.828,9.634,10.42,16.267l15.032,62.518l43.883,16.237
	c8.277,3.062,14.747,9.664,17.635,18.002L473.884,341.326z"/>
<path d="M162.743,212.287l-47.003,98.297c-1.786,3.736-0.206,8.215,3.531,10.002c1.044,0.499,2.146,0.735,3.23,0.735
	c2.798,0,5.483-1.573,6.771-4.267l47.003-98.297c1.263-2.643,3.859-4.449,6.775-4.716l27.196-2.484
	c3.348-0.306,6.083-2.803,6.693-6.109l5.192-28.164c0.624-3.389,3.212-6.01,6.592-6.679l15.697-3.107l-4.846,118.788
	c-0.169,4.139,3.05,7.631,7.188,7.8c0.104,0.004,0.208,0.006,0.312,0.006c4,0,7.323-3.16,7.488-7.194l6.762-165.741
	c0.098-2.401,1.172-4.567,3.024-6.098c1.853-1.531,4.18-2.177,6.558-1.823c3.143,0.471,5.786,2.733,6.735,5.766l15.788,50.443
	l-12.097,0.809c-4.133,0.276-7.26,3.851-6.983,7.983c0.275,4.134,3.879,7.277,7.983,6.983l29.258-1.956
	c4.317-0.283,8.08,2.698,8.795,6.946l17.854,105.982c0.53,3.151,3.001,5.62,6.152,6.15l38.736,6.509
	c2.834,0.477,5.193,2.342,6.311,4.989c1.209,2.864,3.988,4.586,6.913,4.586c0.973,0,1.961-0.19,2.913-0.592
	c3.816-1.611,5.604-6.01,3.994-9.826c-3.125-7.403-9.721-12.618-17.645-13.95l-33.471-5.624l-16.967-100.717
	c-2-11.874-12.587-20.211-24.586-19.421l-2.294,0.153c0.061-0.902-0.033-1.829-0.32-2.744l-16.021-51.186
	c-2.653-8.478-10.045-14.805-18.83-16.119c-6.553-0.98-13.23,0.878-18.334,5.095c-5.104,4.219-8.186,10.433-8.456,17.049
	l-1.287,31.538l-19.238,3.808c-9.451,1.87-16.686,9.201-18.432,18.675l-4.161,22.572l-21.534,1.967
	C173.533,199.849,166.274,204.901,162.743,212.287z"/>
<path d="M504.5,333.823h-25.277l-27.368-79.021c-3.636-10.501-11.699-18.734-22.123-22.589l-40.123-14.841l-14.099-58.626
	c-3.978-16.542-18.544-28.139-35.515-28.341c-10.058-1.402-16.42-25.08-21.541-44.14c-3.353-12.477-6.818-25.377-11.643-35.095
	c-6.448-12.989-15.045-19.167-25.531-18.403c-18.19,1.348-19.217,0.08-25.898-8.167c-3.361-4.148-7.965-9.83-15.707-16.771
	c-4.052-3.634-9.081-4.847-14.157-3.41c-8.863,2.505-21.991,13.038-45.032,72.76c-9.756,25.287-17.673,50.296-20.568,59.686
	l-31.015,9.34c-13.69,4.124-23.871,15.93-25.937,30.076l-2,13.694c-0.599,4.099,2.238,7.906,6.337,8.505
	c4.085,0.604,7.907-2.237,8.505-6.337l2-13.694c1.229-8.411,7.281-15.43,15.421-17.881l34.856-10.497
	c2.417-0.729,4.307-2.624,5.025-5.044c0.096-0.319,9.617-32.231,22.007-64.094c21.99-56.553,32.811-61.616,34.394-62.062
	c0.041,0.032,0.092,0.073,0.15,0.126c6.853,6.145,10.853,11.081,14.066,15.048c9.369,11.562,14.775,15.453,38.66,13.682
	c0.158-0.012,0.313-0.018,0.469-0.018c9.705,0,15.761,22.533,21.111,42.448c7.027,26.153,14.295,53.197,34.844,55.209
	c0.242,0.024,0.486,0.036,0.73,0.036c10.204,0,18.998,6.93,21.384,16.852l15.034,62.518c0.585,2.432,2.344,4.412,4.69,5.28
	l43.878,16.229c6.197,2.292,10.99,7.187,13.152,13.429l25.668,74.112H365c-4.143,0-7.5,3.357-7.5,7.5s3.357,7.5,7.5,7.5h89.359
	l-27.568,24.847c-1.442,1.299-3.224,2.104-5.149,2.326l-48.254,5.566c-7.945,0.916-14.113,7.372-14.666,15.348l-0.717,10.301
	h-23.987c-4.143,0-7.5,3.357-7.5,7.5s3.357,7.5,7.5,7.5h22.943l-0.714,10.269c-0.304,4.35-3.657,7.944-7.977,8.545l-57.892,8.061
	c-1.88,0.262-3.591,1.227-4.787,2.7l-30.834,37.96c-2.057,2.531-5.34,3.805-8.562,3.328l-51.081-7.572
	c-4.103-0.608-7.911,2.222-8.519,6.319s2.222,7.911,6.319,8.519l51.082,7.572c1.173,0.174,2.349,0.259,3.519,0.259
	c7.245,0,14.253-3.267,18.884-8.968l28.972-35.667l54.967-7.653c11.302-1.573,20.079-10.978,20.871-22.361l0.787-11.31h50.945
	c4.143,0,7.5-3.357,7.5-7.5s-3.357-7.5-7.5-7.5H373.04l0.645-9.261c0.053-0.772,0.651-1.398,1.421-1.487l48.256-5.566
	c5.041-0.582,9.698-2.686,13.47-6.083l39.933-35.99H504.5c4.143,0,7.5-3.357,7.5-7.5S508.643,333.823,504.5,333.823z"/>
<path d="M192.271,470.378h44.146c2.621,0,5.052-1.368,6.411-3.608l25.739-42.411l25.418-9.275c2.005-0.731,3.603-2.283,4.394-4.265
	l13.297-33.297c1.536-3.847-0.337-8.21-4.184-9.746c-3.846-1.535-8.21,0.337-9.746,4.184l-12.054,30.183l-24.741,9.028
	c-1.602,0.585-2.956,1.697-3.84,3.154l-24.916,41.054h-33.609l-11.361-65.726l0.665-7.412h27.26c4.143,0,7.5-3.357,7.5-7.5
	s-3.357-7.5-7.5-7.5h-25.914l1.652-18.418H331.5c4.143,0,7.5-3.357,7.5-7.5s-3.357-7.5-7.5-7.5H51.218l22.396-53.144
	c1.623-3.852,4.296-7.146,7.729-9.527l22.839-15.849c1.707-1.185,2.846-3.023,3.146-5.078l3.477-23.809
	c0.599-4.099-2.238-7.907-6.337-8.505c-4.094-0.592-7.905,2.238-8.505,6.337l-3.007,20.587l-20.163,13.992
	c-5.774,4.006-10.27,9.547-13,16.025l-24.851,58.97H7.5c-4.143,0-7.5,3.357-7.5,7.5s3.357,7.5,7.5,7.5h27.061l6.311,18.418H19.269
	c-4.143,0-7.5,3.357-7.5,7.5s3.357,7.5,7.5,7.5h26.743l13.044,38.069c2.373,6.929,7.673,12.359,14.542,14.901l23.68,8.763
	l7.354,11.404h-29.53c-4.143,0-7.5,3.357-7.5,7.5s3.357,7.5,7.5,7.5h39.202l7.09,10.996c3.789,5.876,9.93,9.834,16.845,10.858
	l24.454,3.625c0.373,0.056,0.743,0.082,1.109,0.082c3.655,0,6.857-2.677,7.409-6.401c0.607-4.098-2.222-7.911-6.319-8.519
	l-24.455-3.625c-2.643-0.392-4.988-1.903-6.437-4.149l-1.849-2.867h5.541c4.143,0,7.5-3.357,7.5-7.5s-3.357-7.5-7.5-7.5h-15.214
	l-13.951-21.635c-0.879-1.364-2.178-2.406-3.7-2.97l-26.025-9.631c-2.624-0.971-4.649-3.046-5.557-5.693l-11.379-33.209h110.962
	l-0.633,7.051c-0.059,0.649-0.032,1.305,0.079,1.947l12.604,72.917C185.502,467.751,188.621,470.378,192.271,470.378z
	 M56.727,367.241l-6.311-18.418h125.41l-1.652,18.418H56.727z"/>
<path d="M233.498,122.459v-0.917c0-4.143-3.357-7.5-7.5-7.5s-7.5,3.357-7.5,7.5v0.917c0,4.143,3.357,7.5,7.5,7.5
	S233.498,126.602,233.498,122.459z"/>
<path d="M211.23,143.348v-0.918c0-4.143-3.357-7.5-7.5-7.5s-7.5,3.357-7.5,7.5v0.918c0,4.143,3.357,7.5,7.5,7.5
	S211.23,147.491,211.23,143.348z"/>
<path d="M311.659,274.247c-4.143,0-7.5,3.357-7.5,7.5v0.917c0,4.143,3.357,7.5,7.5,7.5s7.5-3.357,7.5-7.5v-0.917
	C319.159,277.604,315.802,274.247,311.659,274.247z"/>
<path d="M261.596,386.216v0.917c0,4.143,3.357,7.5,7.5,7.5s7.5-3.357,7.5-7.5v-0.917c0-4.143-3.357-7.5-7.5-7.5
	S261.596,382.074,261.596,386.216z"/>
<path d="M138.853,432.594v0.917c0,4.143,3.357,7.5,7.5,7.5s7.5-3.357,7.5-7.5v-0.917c0-4.143-3.357-7.5-7.5-7.5
	S138.853,428.452,138.853,432.594z"/>
<path d="M485.942,432.434h-88.924c-4.143,0-7.5,3.357-7.5,7.5s3.357,7.5,7.5,7.5h88.924c4.143,0,7.5-3.357,7.5-7.5
	S490.085,432.434,485.942,432.434z"/>
<g>
</g>
<g>
</g>
<g>
</g>
<g>
</g>
<g>
</g>
<g>
</g>
<g>
</g>
<g>
</g>
<g>
</g>
<g>
</g>
<g>
</g>
<g>
</g>
<g>
</g>
<g>
</g>
<g>
</g>
</svg>
