<?xml version="1.0" encoding="iso-8859-1"?>
<!-- Generator: Adobe Illustrator 21.0.0, SVG Export Plug-In . SVG Version: 6.00 Build 0)  -->
<svg xmlns="http://www.w3.org/2000/svg" xmlns:xlink="http://www.w3.org/1999/xlink" version="1.1" id="Capa_1" x="0px" y="0px" viewBox="0 0 509.85 509.85" style="enable-background:new 0 0 509.85 509.85;" xml:space="preserve" width="512" height="512">
<g>
	<path style="fill:#A58260;" d="M251.09,186.965c-8.809,6.573-20.724,7.15-30.127,1.459l-17.855-10.807l-3.366,1.898   c-2.329,3.199-4.104,6.882-5.132,10.954c-4.307,17.068,6.038,34.396,23.106,38.703c17.068,4.307,34.396-6.038,38.702-23.106   c1.889-7.488,0.958-15.026-2.123-21.492L251.09,186.965z"/>
	<g>
		<path style="fill:#8C6B50;" d="M254.295,184.573l-3.206,2.392c-4.22,3.149-9.153,4.905-14.18,5.272    c0.075,2.849-0.229,5.755-0.96,8.655c-3.402,13.484-14.932,22.764-28.039,23.947c2.923,1.937,6.213,3.426,9.806,4.333    c17.068,4.307,34.396-6.038,38.702-23.106C258.308,198.577,257.376,191.04,254.295,184.573z"/>
	</g>
	<path style="fill:#A58260;" d="M304.183,220.911c-10.772-2.185-19.145-10.681-21.171-21.484l-3.106-16.56   c-11.156,2.68-20.486,11.302-23.488,23.199c-4.307,17.068,6.038,34.396,23.106,38.703c16.396,4.137,33.025-5.25,38.127-21.126   L304.183,220.911z"/>
	<g>
		<path style="fill:#8C6B50;" d="M304.183,220.911c-2.402-0.487-4.676-1.304-6.796-2.375c-6.486,12.082-20.255,18.906-34.156,16.187    c4.129,4.777,9.707,8.383,16.294,10.045c16.396,4.137,33.025-5.25,38.127-21.126L304.183,220.911z"/>
	</g>
	<path style="fill:#A58260;" d="M252.228,500.919h250.163c0,0-85.214-106.352-247.466-106.352S7.459,500.919,7.459,500.919h250.163   H252.228z"/>
	<path style="fill:#8C6B50;" d="M254.925,394.568c-6.114,0-12.105,0.168-18,0.459c150.539,7.423,229.466,105.893,229.466,105.893h36   C502.391,500.919,417.177,394.568,254.925,394.568z"/>
	<path style="fill:#6E563D;" d="M227.978,395.578c1.984-60.298,10.661-113.617,36.559-159.426   c-7.488-7.669-10.934-18.933-8.119-30.088c-4.266,16.909-21.313,27.211-38.226,23.214   c-21.831,49.932-43.269,103.434-47.844,175.481C188.146,400.34,207.364,397.113,227.978,395.578z"/>
	<path style="fill:#604B35;" d="M256.419,206.065c-2.207,8.746-7.837,15.716-15.094,19.863   c-21.961,45.737-37.87,117.897-40.621,172.768c8.806-1.354,17.888-2.419,27.275-3.118c1.984-60.298,10.661-113.617,36.559-159.426   C257.049,228.484,253.604,217.22,256.419,206.065z"/>
	<path style="fill:#45BF7F;" d="M277.043,167.599c0,0-98.159-70.562-221.276-4.864c-5.601,2.989-5.857,10.934-0.466,14.286   l18.025,11.208c8.254,5.132,18.629,5.432,27.166,0.786l24.66-13.423l29.056,15.357c8.123,4.293,17.873,4.161,25.877-0.352   l23.023-12.981l17.855,10.807c9.403,5.691,21.318,5.114,30.127-1.459L277.043,167.599z"/>
	<path style="fill:#00B76C;" d="M251.089,165.759c-8.809,6.573-20.724,7.15-30.127,1.459l-17.854-10.807l-23.023,12.98   c-8.004,4.513-17.754,4.645-25.877,0.352l-29.056-15.357l-24.66,13.423c-8.537,4.646-18.912,4.346-27.166-0.786l-11.742-7.301   c-1.933,0.971-3.872,1.974-5.817,3.012c-5.601,2.989-5.857,10.934-0.466,14.287l18.025,11.209   c8.254,5.132,18.629,5.432,27.166,0.786l24.66-13.423l29.056,15.357c8.123,4.293,17.873,4.161,25.877-0.352l23.023-12.98   l17.854,10.807c9.403,5.691,21.318,5.114,30.127-1.459l25.953-19.366c0,0-5.655-4.059-15.929-9.32L251.089,165.759z"/>
	<path style="fill:#008950;" d="M261.149,158.296c10.255,5.253,15.894,9.303,15.894,9.303l0,0c0,0,13.039,1.595,32.157,8.433   c2.098-1.133,4.074-2.539,5.852-4.241l15.074-14.435l25.297,7.657c8.794,2.662,18.339,0.669,25.332-5.291l25.015-21.314   l26.991,7.732c9.343,2.677,19.404,0.125,26.343-6.681l15.153-14.864c4.531-4.445,2.553-12.144-3.564-13.842   C356.422,79.039,281.178,139.436,261.149,158.296z"/>
	<path style="fill:#007C46;" d="M470.692,110.753c-2.79-0.774-5.55-1.478-8.294-2.144l-11.933,11.705   c-6.938,6.806-16.999,9.358-26.343,6.681l-26.991-7.732l-25.015,21.315c-6.994,5.959-16.538,7.952-25.333,5.29l-25.297-7.657   l-15.073,14.435c-0.993,0.951-8.493,9.915-15.286,17.842c5.004,1.275,11.135,3.063,18.072,5.544   c2.098-1.133,4.074-2.539,5.852-4.242l15.074-14.434l25.297,7.657c8.794,2.662,18.339,0.669,25.332-5.29l25.015-21.314   l26.991,7.732c9.343,2.677,19.404,0.125,26.343-6.681l15.153-14.864C478.788,120.149,476.809,112.45,470.692,110.753z"/>
	<path style="fill:#008950;" d="M166.897,60.417l26.366,9.649l7.662,31.959c2.142,8.935,8.681,16.168,17.356,19.196l24.953,8.712   l3.68,20.544c0.081,0.453,0.189,0.895,0.292,1.34c5.322,2.24,10.009,4.463,13.991,6.504c-0.016-0.008-0.031-0.016-0.047-0.025   c5.318-5.008,14.539-12.946,27.341-21.309C273.281,97.454,237.93,39.822,157.079,9.475c-5.94-2.23-12.07,2.83-11.026,9.089   l3.491,20.938C151.142,49.089,157.77,57.077,166.897,60.417z"/>
	<path style="fill:#007C46;" d="M267.731,152.428c-1.111-6.128-2.48-13.711-2.529-13.982l-3.679-20.544l-24.953-8.712   c-8.675-3.029-15.214-10.261-17.356-19.196l-7.661-31.959l-26.366-9.649c-9.127-3.34-15.755-11.328-17.353-20.915l-2.453-14.715   c-2.714-1.125-5.477-2.221-8.301-3.281c-5.94-2.23-12.07,2.83-11.026,9.089l3.491,20.938c1.598,9.587,8.226,17.575,17.353,20.915   l26.366,9.649l7.662,31.959c2.142,8.935,8.681,16.167,17.356,19.196l24.953,8.712l3.68,20.543c0.081,0.453,0.189,0.895,0.292,1.34   c5.322,2.24,10.009,4.463,13.991,6.504c-0.016-0.008-0.031-0.016-0.047-0.025C262.914,156.634,265.119,154.644,267.731,152.428z"/>
	<path style="fill:#45BF7F;" d="M277.043,167.599c0,0,120.004,14.602,166.05,146.335c2.095,5.993-3.1,12.01-9.336,10.824   l-20.852-3.968c-9.548-1.817-17.383-8.625-20.513-17.827l-9.044-26.58l-31.775-8.39c-8.884-2.346-15.965-9.048-18.795-17.79   l-8.14-25.145l-20.454-4.148c-10.772-2.185-19.145-10.681-21.171-21.484L277.043,167.599z"/>
	<path style="fill:#00B76C;" d="M441.49,309.521l-14.953-2.845c-9.548-1.817-17.383-8.625-20.513-17.827l-9.044-26.58l-31.775-8.389   c-8.884-2.346-15.965-9.048-18.795-17.79l-8.14-25.145l-20.454-4.148c-10.772-2.185-19.145-10.681-21.171-21.484l-2.639-14.072   c-10.496-2.852-16.962-3.642-16.962-3.642l5.969,31.827c2.026,10.803,10.399,19.3,21.171,21.484l20.454,4.148l8.14,25.145   c2.83,8.742,9.911,15.445,18.795,17.79l31.776,8.39l9.044,26.58c3.131,9.201,10.965,16.01,20.513,17.827l20.852,3.968   c6.236,1.187,11.431-4.831,9.336-10.824C442.571,312.443,442.03,310.983,441.49,309.521z"/>
	<path d="M508.244,496.23c-0.901-1.125-22.56-27.861-64.702-54.805c-38.785-24.798-102.991-54.357-188.618-54.357   c-6.42,0-12.795,0.171-19.128,0.493c0.677-15.396,1.79-29.383,3.389-42.514c0.501-4.112-2.426-7.852-6.538-8.352   c-4.121-0.496-7.852,2.426-8.352,6.538c-1.707,14.011-2.878,28.924-3.563,45.396c-14.285,1.319-28.331,3.483-42.123,6.466   c5.485-62.7,23.811-110.633,44.166-157.555c0.914,0.064,1.826,0.105,2.734,0.105c9.357-0.001,18.281-3.367,25.266-9.198   c1.218,3.041,2.805,5.922,4.727,8.568c-11.707,21.83-20.214,46.021-25.951,73.774c-0.805,3.895,1.687,7.853,5.552,8.801   c4.076,1,8.288-1.655,9.138-5.764c5.139-24.859,12.587-46.634,22.682-66.287c3.266,1.981,6.874,3.518,10.766,4.501   c3.206,0.809,6.424,1.196,9.601,1.195c13.195-0.001,25.606-6.697,32.868-17.661l5.483,16.938   c3.633,11.223,12.611,19.721,24.016,22.732l27.886,7.362l7.748,22.772c3.993,11.733,14.036,20.462,26.211,22.778l20.853,3.969   c5.517,1.046,11.216-0.936,14.879-5.195c3.66-4.256,4.793-10.169,2.939-15.472c-24.558-70.259-69.945-107.641-103.695-126.629   c-7.888-4.438-15.494-8.098-22.591-11.116l8.26-7.91l21.102,6.387c11.289,3.418,23.391,0.891,32.37-6.76l21.953-18.705   l23.124,6.624c11.913,3.412,24.813,0.142,33.66-8.537l15.153-14.864c4.066-3.989,5.644-9.665,4.22-15.185   c-1.422-5.515-5.546-9.716-11.03-11.238c-33.298-9.242-66.264-11.616-97.979-7.065c-4.1,0.589-6.947,4.39-6.358,8.49   c0.588,4.1,4.389,6.94,8.49,6.357c29.652-4.258,60.549-2.012,91.835,6.67c0.55,0.154,0.724,0.863,0.318,1.261l-15.153,14.865   c-5.002,4.905-12.292,6.752-19.025,4.825l-26.991-7.732c-2.414-0.693-5.017-0.129-6.93,1.501l-25.016,21.314   c-5.076,4.324-11.915,5.753-18.295,3.82l-25.297-7.656c-2.591-0.782-5.405-0.111-7.36,1.762l-15.073,14.435   c-0.506,0.485-1.051,0.936-1.618,1.368c-13.931-4.724-24.302-6.666-28.405-7.314c-1.227-0.817-3.153-2.053-5.716-3.569   c13.905-11.516,39.401-29.203,74.502-39.438c3.977-1.16,6.26-5.323,5.101-9.3c-1.16-3.977-5.328-6.258-9.3-5.101   c-20.653,6.022-38.217,14.471-52.342,22.917C274.03,83.95,236.674,31.339,159.714,2.454c-5.326-2-11.129-1.033-15.525,2.585   c-4.402,3.622-6.472,9.14-5.535,14.759l3.491,20.938c2.039,12.226,10.535,22.466,22.174,26.725l22.588,8.267l6.724,28.048   c2.75,11.47,11.041,20.639,22.177,24.528l20.815,7.268l0.794,4.432c-6.999-2.456-14.722-4.787-23.121-6.771   c-37.688-8.897-96.398-12.151-162.061,22.887c-5.021,2.68-8.132,7.678-8.32,13.371c-0.188,5.697,2.587,10.895,7.424,13.901   l18.026,11.209c10.525,6.545,23.826,6.93,34.711,1.003l21.126-11.499l25.5,13.478c5.072,2.681,10.6,4.018,16.124,4.018   c5.834,0,11.663-1.492,16.941-4.468l2.453-1.383c-0.523,7.898,1.342,15.76,5.487,22.702c3.96,6.634,9.648,11.835,16.429,15.153   c-21.058,48.712-39.842,98.745-44.882,165.185c-27.852,7.38-54.594,18.221-80.034,32.496c-3.564,2-4.87,6.647-2.87,10.211   c2,3.565,6.646,4.87,10.211,2.871c25.642-14.39,52.676-25.132,80.889-32.195c0.485-0.072,0.955-0.189,1.406-0.35   c17.914-4.401,36.3-7.323,55.109-8.742c0.006,0,0.011,0,0.017,0c0.321,0,0.635-0.027,0.945-0.067   c8.581-0.624,17.246-0.944,25.997-0.944c81.72,0,142.997,28.093,180.012,51.66c23.206,14.774,40.062,29.674,50.215,39.691H24.691   c8.631-8.52,22.104-20.565,40.193-33.044c3.364-2.321,4.235-7.069,1.915-10.433c-2.32-3.363-7.068-4.235-10.432-1.915   C20.691,472.64,2.368,495.278,1.606,496.23c-3.863,4.819-0.302,12.189,5.853,12.189h494.933   C508.546,508.42,512.107,501.05,508.244,496.23z M281.36,237.497c-13.031-3.289-20.957-16.566-17.67-29.597   c1.551-6.146,5.372-11.306,10.543-14.591l1.407,7.501c2.602,13.871,13.221,24.646,27.052,27.452l3.709,0.752   C300.601,236.297,290.871,239.894,281.36,237.497z M339.123,197.904c20.037,11.272,37.869,25.599,52.999,42.58   c18.947,21.265,33.713,46.809,43.891,75.925c0.042,0.12,0.141,0.402-0.142,0.73c-0.287,0.332-0.586,0.278-0.712,0.251   l-20.853-3.969c-6.881-1.309-12.558-6.242-14.815-12.874l-9.044-26.58c-0.809-2.379-2.756-4.194-5.186-4.836l-31.775-8.39   c-6.446-1.701-11.521-6.505-13.575-12.848l-8.14-25.145c-0.833-2.576-2.991-4.503-5.645-5.041l-6.916-1.402   c-0.005-0.001-0.01-0.002-0.015-0.003l-13.522-2.742c-7.818-1.585-13.82-7.676-15.29-15.517l-3.936-20.986   C297.799,179.74,317.351,185.654,339.123,197.904z M250.616,128.611c-0.477-2.665-2.354-4.866-4.91-5.759l-24.953-8.712   c-6.295-2.198-10.981-7.381-12.535-13.863l-7.662-31.959c-0.586-2.443-2.356-4.432-4.716-5.295l-26.367-9.649   c-6.578-2.407-11.38-8.195-12.533-15.105l-3.491-20.938c-0.021-0.128-0.071-0.429,0.269-0.709c0.33-0.271,0.596-0.172,0.724-0.125   c73.492,27.585,108.364,78.125,124.841,117.68c-8.236,5.702-14.736,11.011-19.383,15.113c-1.912-0.919-3.94-1.857-6.084-2.806   L250.616,128.611z M176.401,184.064c-5.807,3.275-12.795,3.37-18.688,0.255l-29.056-15.357c-2.2-1.163-4.904-1.147-7.09,0.044   l-24.66,13.423c-6.153,3.349-13.67,3.132-19.62-0.567l-18.026-11.209c-0.481-0.299-0.469-1.032,0.037-1.3   c49.187-26.248,99.963-33.538,150.924-21.67c24.516,5.71,43.187,14.734,53.482,20.512l-13.913,10.382   c-0.012,0.009-0.025,0.018-0.037,0.028l-3.15,2.351c-6.393,4.77-14.934,5.183-21.759,1.054l-17.855-10.807   c-2.317-1.402-5.209-1.448-7.567-0.117L176.401,184.064z M201.882,192.303c0.478-1.892,1.196-3.688,2.096-5.393l13.101,7.929   c10.118,6.125,22.361,6.581,32.72,1.608c0.194,2.597-0.008,5.226-0.653,7.783c-3.264,12.935-16.373,20.829-29.306,17.734   c-0.049-0.011-0.099-0.023-0.148-0.033c-0.047-0.011-0.094-0.02-0.141-0.032c-6.313-1.593-11.627-5.548-14.964-11.138   C201.25,205.172,200.289,198.616,201.882,192.303z"/>
</g>















</svg>
