<svg version="1.1" xmlns="http://www.w3.org/2000/svg" xmlns:xlink="http://www.w3.org/1999/xlink" x="0px" y="0px"
	 viewBox="0 0 663.32 967.15" style="enable-background:new 0 0 663.32 967.15;" xml:space="preserve">
<style type="text/css">.st0{display:none;}.st1{display:inline;}</style>
<g id="Camada_1" class="st0">
	<path class="st1" d="M658.39,277.67c-0.06-5.92-0.57-11.79-1.29-17.66c-0.15-1.25-0.26-2.49-0.34-3.74
		c-0.38-0.5-0.69-1.11-0.88-1.86c0.29,1.14-0.97,0.09-1.73-0.15c-1.03-0.33-2.11-0.59-3.17-0.83c-2.12-0.47-4.08-0.43-6.22-0.56
		c-5.59-0.33-8.93-3.37-12.97-6.94c-4.65-4.1-8.68-8.48-12.3-13.52c-0.13-0.19-0.27-0.38-0.4-0.57c-0.82-0.91-1.66-1.81-2.51-2.68
		c-8.53-10.9-21.48-18.02-36.71-18.02c-3.45,0-6.94,0.44-10.37,1.24c-1.41-0.13-2.84-0.21-4.29-0.22c-7.67-5.75-17.15-9.2-27.72-9.2
		c-1.11,0-2.23,0.06-3.35,0.15c-7.38-16.73-23.34-28.74-43.12-28.74c-0.68,0-1.37,0.02-2.05,0.06c-5.77-4.67-12.66-7.99-20.33-9.44
		c-3.15-3.14-6.71-5.86-10.64-8c-1.03-3.68-2.44-7.21-4.21-10.51c0.41-2.47,0.59-4.94,0.48-7.33c-0.25-5.65-1.42-11.1-3.34-16.18
		c-3.27-18.19-15.92-33.37-33.37-38.57c-5.99-2.87-12.73-4.49-19.99-4.49c-1.83,0-3.68,0.13-5.52,0.37
		c-3.6-0.9-7.39-1.39-11.33-1.39c-3.59,0-7.24,0.48-10.81,1.35c-1.81-0.21-3.65-0.33-5.53-0.33c-1.79,0-3.58,0.13-5.38,0.35
		c-5-7.58-11.97-13.68-20.32-17.37c-6.99-9.52-17.26-16.38-29.47-18.51c-8.05-12.43-21.39-20.97-37.4-21.6
		c-6.07-2.96-12.91-4.64-20.28-4.64c-6.03,0-12.2,1.31-17.94,3.66c-6.33-3.3-13.55-5.19-21.37-5.19c-2.4,0-4.82,0.21-7.23,0.61
		c-2.45-0.4-4.98-0.61-7.58-0.61c-3.71,0-7.48,0.5-11.17,1.43c-5.99-2.87-12.72-4.49-19.98-4.49c-5.89,0-11.91,1.25-17.55,3.5
		c-6.89-4.15-14.97-6.56-23.82-6.56c-10.11,0-20.63,3.66-28.85,9.82c-8.86,1.99-17.36,6.49-23.63,12.77
		C67.49,37.98,63.3,44.79,60.84,52c-1.64,1.75-3.42,2.86-5.4,3.44c1.4,2.69,2.19,5.47,2.65,8.88c0,0.04,0.01,0.07,0.02,0.11
		c0.14,0.15,0.25,0.31,0.38,0.46c-0.01,0.58-0.01,1.17,0.02,1.74c0.49,10.89,4.31,21.06,10.56,29.17c-2.1,2.57-6.57,1.06-8.32-2.25
		c-1.99-3.79-2.51-8.38-3.9-12.41c-0.48-1.39-1.04-2.74-1.63-4.08c-0.5-1.05-0.97-2.11-1.43-3.18c-0.43-0.96-0.85-1.92-1.25-2.89
		c-0.46-0.28-0.85-0.72-1.05-1.38c-0.31-0.98-0.42-2-0.5-3.02c-0.03-0.1-0.06-0.2-0.09-0.3c-0.12-0.44-0.12-0.84-0.03-1.2
		c-0.01-0.14-0.03-0.28-0.05-0.43c-0.29-0.51-0.35-1.07-0.24-1.61c-0.13-0.85-0.19-1.82-0.52-2.56c-0.42-0.95-1.27-1.73-1.8-2.62
		c-0.06-0.11-0.1-0.21-0.14-0.32c0.03,1.11-0.04,2.21-0.3,3.33c-0.4,1.75-0.34,3.51-0.78,5.24c-0.48,1.92-2.82,2.3-4.18,1.1
		c-1.19-1.05-2.18-2.32-2.98-3.72c-0.7-0.03-1.36-0.41-1.75-1.3c-0.54-1.24-1.98-2.31-3.27-3.18c-0.29,1.27-0.43,2.62-0.4,4.08
		c0.02,0.89,0.11,1.79,0.25,2.71c0.3,0.21,0.56,0.5,0.76,0.93c3.07,6.58,9.56,10.8,13.2,17.13c1.72,2.99,3.49,6.07,4.07,9.51
		c0.29,1.71,0.37,3.42,0.42,5.13c0.51,1.64,1.09,3.26,1.69,4.88c-5.67,3.86-9.76,10.06-10.13,17.01c-4.59,3.44-7.97,8.45-8.93,14.1
		c-4.22,3.08-7.46,7.48-8.81,12.5c-6.03,4.22-10.19,11.11-9.85,18.69c0.02,0.48,0.06,0.95,0.11,1.42
		c-1.83,3.25-2.84,6.95-2.66,10.83c0,0.01,0,0.02,0,0.03c-1.53,3.03-2.45,6.45-2.56,10.17c-0.06,1.9-0.05,3.81,0.03,5.71
		c-3.28,4.62-5.85,9.61-7.49,15.1c-1.87,6.27-2.2,12.87-1.34,19.31c0.4,2.96,0.8,5.74,1.67,8.59c0.33,1.08,0.7,2.14,1.01,3.23
		c0.02,0.08,0.04,0.16,0.06,0.24c0-0.2-0.01-0.39-0.01-0.61c0,0.23,0.02,0.45,0.03,0.67c0.18,0.8,0.21,1.66,0.19,2.01
		c0.65,4.69,2.78,9.16,5.9,12.71c-0.94,6.06,0.51,12.09,4.06,17.04c0.24,2.2,0.55,4.39,0.94,6.51c1.15,6.25,4.27,12.36,7.63,17.73
		c5.71,9.13,11.95,17.97,18.38,26.61c13.74,18.47,28.5,36.11,44.6,52.57c2.28,2.33,5.09,4.05,8.15,5.15
		c2.4,2.53,5.36,4.43,8.52,6.17c5.7,3.15,11.15,6.6,16.42,10.42c3.71,2.69,7.49,5.43,11.18,8.31c0.45,0.53,0.91,1.07,1.36,1.6
		c0.9,1.06,1.92,1.65,2.94,1.88c4.93,4.14,9.54,8.62,13.36,13.69c4.35,5.78,8.26,11.87,11.73,18.18c-0.79,1.54-0.85,3.44,0.37,5.38
		c5.41,8.63,6.54,17.31,5.8,27.28c-0.76,10.37,2.99,20.38,3.56,30.71c1.16,21.07-1,42.91-3.15,63.86c-0.22,2.17,0.58,3.72,1.86,4.66
		c-0.23,5.27-0.73,10.51-1.93,15.5c-1.24,5.17-3.1,10.15-4.09,15.39c-1.09,5.84-1.56,11.78-2.09,17.69
		c-1.05,11.71-2.49,23.39-3.82,35.07c-0.66,5.84-1.32,11.68-1.98,17.52c-0.63,5.6-0.66,11.83-3.44,16.87
		c-1.17,2.13-0.95,4.18,0.01,5.79c-0.37,10.94-2.02,21.78-2.34,32.73c-0.35,12.01,0.07,24.02,0.47,36.02
		c0.38,11.68,0.75,23.37,0.36,35.05c-0.29,8.69-1.9,17.5-0.07,25.91c-1.56,15.42-2.13,30.93-1.56,46.42
		c0.28,7.72,0.39,15.78,2.25,23.31c1.71,6.92,5.15,13.61,8.29,19.98c3.06,6.21,6.65,12.17,11.28,17.35
		c5,5.59,11.36,9.52,17.87,13.11c6.42,3.54,12.05,7.72,18.13,11.75c5.87,3.88,13.04,4.53,19.9,4.87c9.17,0.46,16.25-2.96,23.99-7.42
		c7.64-4.41,15.61-7.65,24.16-9.82c7.48-1.9,4.31-13.47-3.19-11.57c-1.57,0.4-3.13,0.84-4.67,1.31c-1.51-0.06-2.97-0.05-4.11-0.15
		c-9.02-0.77-16.14-5.12-22.07-11.89c-6.16-7.04-12.95-16.36-14.43-25.79c-1-6.36,0.93-12.35,4.67-17.13
		c0.58-1.61,1.29-3.19,2.11-4.71c3.48-6.37,9.64-10.5,10.75-17.6c0.27-0.17,0.52-0.33,0.75-0.48c4.62-2.99,10.29-4.5,11.01-10.8
		c0.4-3.49-0.45-7.44-2.84-10.01c0.03-0.04,0.06-0.07,0.09-0.1c-0.53-0.13-1.07-0.27-1.59-0.45c-2.97-1.01-5.72-2.51-8.43-4.07
		c-4.2-2.41-10.23-6.31-7.16-11.96c2.63-4.84,9.95-8.42,14.57-11.02c2.81-1.58,5.68-3.06,8.56-4.5c2.19-4.25,1.63-8.7-0.38-12.98
		c0.45-4.47,3.98-8.59,7.43-11.29c2.93-2.29,7.17-1.94,9.09-5.76c0.9-1.78,0.87-3.9,0.05-5.64c0.21-2.73,0.69-5.6,1.9-8.09
		c1.29-2.65,3.35-3.18,5.7-4.77c3.76-2.55,6.73-5.99,8.47-10.19c3.29-7.94,2.66-17.52,0.33-25.91c2.94-0.34,5.89-0.58,8.85-0.8
		c3.37,1.4,7.07,2.17,11.03,2.14c20.87-0.15,37.44-17.83,37.88-38.44c0.18-8.72-2.43-15.83-5.85-23.64c-0.31-0.7-0.63-1.4-0.95-2.1
		c-0.15-0.5-0.63-1.8-0.78-2.36c-0.04-0.15-0.07-0.3-0.1-0.45c0.28-0.3,0.55-0.63,0.82-0.95c5.3,6.73,13.32,11.11,22.74,11.11
		c14.65,0,28.7-12.23,29.48-27.1c5.73-3.35,10.41-8.51,12.9-14.6c9.95-4.28,17.76-13.86,18.26-24.88c0.71-0.79,1.37-1.63,1.99-2.49
		c6.54-4.15,11.57-10.69,13.25-18.22c0.73-0.26,1.48-0.48,2.25-0.67c1.11-1.01,2.14-2.07,2.91-3.31c1.31-2.09,1.9-4.45,3.12-6.57
		c0.36-2.13,0.72-4.28,0.93-6.43c0.74-7.48-0.41-14.99,0.64-22.47c1.07-7.65,4.55-14,10.94-18.49c4.97-3.5,11.75-6.97,18.19-8.41
		c-0.16-0.37-0.31-0.74-0.45-1.11c8.1-1.97,15.46-4.07,22.13-6.21c1.26,0.96,2.91,1.45,4.86,1.08c5.87-1.13,11.05-0.35,16.73-2.86
		c5.13-2.27,10.01-5.34,14.6-8.56c7.66-5.38,14.51-11.82,19.3-19.85l7.79-10.94l1.13-6.86c-0.55-5.18,4.55-10.43,6.48-15
		c2.69-6.39,5.97-12.48,8.04-19.1c2.14-6.84,5.61-13.46,7.04-20.49c1.15-5.62-0.11-11.45,1.32-17c-0.54-4.85-1.53-9.62-0.32-14.5
		c1.05-4.2,3.27-8.7,6.35-11.77c3.72-3.72,8.92-5.21,13.32-7.92c4.69-2.88,8.69-6.54,12.2-10.74c0-0.46-0.01-0.94-0.01-1.39
		c11.14-6.2,21.54-14.11,30.1-23.56c-0.15-0.73-0.12-1.55,0.17-2.44C654.49,301.19,658.52,289.24,658.39,277.67z"/>
	<path class="st1" d="M364,575.99c0.92-2.37,1.81-4.76,2.67-7.16c0.59,0.99,0.83,2.23,0.47,3.67c-0.43,1.76-1.04,3.41-1.74,5
		C364.95,576.97,364.49,576.47,364,575.99z"/>
	<path class="st1" d="M137.67,7.41c0.72-0.54,2.43-2.47,1.75-3.6c-0.58-0.98-2.87-0.62-3.83-0.61c-0.93,0.01-1.86,0.05-2.79,0.12
		c-1.95,1.24-4.19,2.88-6.67,4.92C128.35,10.65,135.79,8.82,137.67,7.41z"/>
	<path class="st1" d="M5.96,240.35c0.05,2.15,0.17,2.5,0.2,2.07c-0.09-0.67-0.16-1.34-0.19-2.01
		C5.97,240.39,5.96,240.37,5.96,240.35z"/>
</g>
<g id="Camada_2">
	<path d="M651.73,278.88c-0.06-5.92-0.57-11.79-1.29-17.66c-0.15-1.25-0.26-2.49-0.34-3.74c-0.38-0.5-0.69-1.11-0.88-1.86
		c0.29,1.14-0.97,0.09-1.73-0.15c-1.03-0.33-2.11-0.59-3.17-0.83c-2.12-0.47-4.08-0.43-6.22-0.56c-5.59-0.33-8.93-3.37-12.97-6.94
		c-4.65-4.1-8.68-8.48-12.3-13.52c-0.13-0.19-0.27-0.38-0.4-0.57c-2.76-3.05-5.65-6.01-9.1-7.95c-5.58-3.13-12.53-2.87-18.74-3.15
		c-5.06-0.23-10.15-0.45-15-1.82c-1.15,0.25-2.16,0.68-2.62,1.87c-0.51,1.32-0.11,3.11-0.51,4.54c-0.54,1.94-3.62,2.61-4.57,0.6
		c-0.84-1.79-2.97-2.16-4.69-1.57c-1.3,0.44-2.21,1.59-3.62,1.7c-1.94,0.16-3.37-1.27-3.73-3.11c-0.38-1.97,0.59-3.53,2.5-4.02
		c0.75-0.19,1.88-0.25,3.07-0.34c0.06-2.99-3.47-6.61-5.83-8.01c-0.28-0.17-0.5-0.36-0.68-0.57c-2.69-0.01-5.78,0.58-7.04,0.7
		c-2.47,0.22-5.61-0.57-6.7,2.49c-0.28,0.8,0.06,2.05-0.23,2.98c-0.86,2.83-2.91,6.63-4.54,9.05c-1.53,2.28-4.29,4.08-7.01,4.49
		c-1.14,0.17-2-0.15-2.6-0.92c-1.58-0.43-3.14-1.57-4.23-2.4c-0.66-0.49-1.36-1.15-1.99-1.89c-3.67-1.11-10.77-1.28-10.35-6.7
		c0.06-0.83,0.42-1.77,1.24-2.16c3.09-1.45,8.22-1.13,12.07-0.24c0.08-1.95,0.32-3.94,0.26-5.83c-0.02-0.65-0.03-1.26-0.02-1.86
		c-0.02-0.03-0.04-0.07-0.07-0.1c-1.04-1.36-2.38-2.41-3.81-3.35c-0.64-0.37-1.25-0.76-1.85-1.17c-0.2-0.12-0.39-0.24-0.59-0.36
		c-0.82,0.44-1.82,0.38-2.58-0.61c-0.37-0.47-0.73-0.94-1.09-1.41c-0.41-0.18-0.79-0.49-1.09-0.97c-0.84-1.35-3.39-2-4.84-2.62
		c-2.79-1.19-5.44-2.24-8.5-2.36c-2.33-0.09-4.6,0.29-6.89,0.64c-3.2,2.63-7.06,3.23-11.13,1.61c-0.96-0.38-1.87-0.84-2.77-1.34
		c-1.89,0.28-3.84,1.34-5.71,2.34c-0.11,0.27-0.26,0.53-0.49,0.78c-1.79,1.94-4.3,3.15-5.65,5.48c-1.26,2.18-1.84,4.46-3.71,6.26
		c-0.77,0.75-2.09,0.99-3.03,0.39c-3.06-1.97-4.16-5.41-5.36-8.71c-4.01-0.04-8.19-0.64-11.6-2.13c-0.1-0.05-0.21-0.1-0.31-0.14
		c-1.46,1.5-3.05,2.76-5.38,2.99c-4.69,0.47-7.42-2.58-9.78-6.02c-2.76-1.75-3.6-5.24-6.92-5.98c-3.78-0.84-8.22-0.27-12.03-0.19
		c-8.2,0.17-17.6,1.59-25.69,0.04c-4.66-0.89-7.54-2.5-12.41-1.11c-2.76,0.79-5.38,1.98-8.05,3.03c-0.34,4.9-3.94,8.91-7.52,12.05
		c-4.39,3.86-10.59,4.75-14.64,9.02c-1.38,1.46-3.28,0.63-3.97-0.76c-4.91,3.35-7.27,8.65-11.86,12.79
		c-3.46,3.12-9.37,6.26-10.09,11.29c0.72,1.04,1.31,2.19,1.64,3.59c0.81,3.41,0.58,8.01-1.86,10.75c-2.61,2.94-6.69,2.25-8.27-1.39
		c-2-4.59,3.19-9.1,0.68-13.79c-0.11-0.21-0.18-0.42-0.24-0.62c-0.07-0.08-0.15-0.16-0.22-0.24c-0.5-0.56-0.69-1.19-0.65-1.79
		c-4.92,3.03-9.47,6.5-13.8,10.31c0.33,0.8,0.25,1.75-0.56,2.55c-5.24,5.09-7.51,11.99-12.26,17.33c-2.43,2.74-7.11,5.1-9.43,0.83
		c-2.22-4.08,1.23-10.95,3.35-14.47c3.56-5.92,9.25-10.16,15.32-13.24c0.4-0.2,0.79-0.28,1.16-0.28c0.78-0.54,1.54-1.25,1.65-2.15
		c0.16-1.35-1.3-2.93-2.53-3.26c-2.37-0.65-5.29,1.51-7.29,2.52c-1.39,0.71-2.69,0.06-3.34-0.96c-2.16,0.96-4.35,1.86-6.57,2.69
		c-0.69,0.26-1.41,0.5-2.15,0.75c-0.75,0.31-1.49,0.62-2.23,0.93c-1.77,0.74-3.7,1.33-5.66,1.9c-4.36,1.94-7.97,4.74-8.25,9.9
		c-0.17,3.21-5.17,3.22-5,0c0.1-1.85,0.43-3.45,0.94-4.85c-1.03,0.77-1.98,1.65-2.8,2.71c-1.97,2.54-5.48-1.02-3.54-3.54
		c1.68-2.17,3.83-3.74,6.2-4.97c0.09-0.63,0.47-1.2,1.28-1.55c6.23-2.65,12.73-5.08,18.81-8.16c-0.7-1.29-2.25-1.72-3.4-2.81
		c-1.24-1.19-1.97-2.52-1.83-4.26c0.08-0.93,1.05-3.17,0.25-3.94c-0.81-0.78-3.75-0.34-4.75-0.33c-0.73,0-1.29-0.27-1.69-0.67
		c-1.29,1.1-2.55,2.24-3.86,3.22c-2.59,1.92-5.08-2.42-2.52-4.32c1.7-1.27,3.28-2.71,4.93-4.02c0-0.13,0.01-0.26,0-0.39
		c0-0.03,0-0.04,0-0.06c-0.25-0.05-0.5-0.12-0.76-0.15c-1.38-0.21-2.02-1.89-1.75-3.08c0.01-0.05,0.03-0.08,0.05-0.13
		c-4.05,0.45-8.05,1.7-10.11,5.12c-0.69,1.14-1.82,1.37-2.8,1.06c-0.38,0.37-0.82,0.72-1.33,1.03c-1.19,0.71-2.71,0.24-3.42-0.9
		c-2.22-3.56-0.21-6.58,2.29-9.31c1.51-1.66,4.73-3.82,1.55-5.25c-1.71-0.76-4.45-0.17-6.36,0.45c-0.43,2.08-1.02,4.12-1.89,6.11
		c-1.41,3.21-5.87,6.49-6.08,9.96c-0.19,3.2-5.19,3.21-5,0c0.11-1.85,0.67-3.32,1.49-4.7c-0.71-0.7-1.01-1.76-0.29-2.86
		c1.18-1.81,6.89-10.45,4.47-12.18c-1.05-0.75-3.7-0.04-4.84,0.19c-0.37,0.07-0.74,0.17-1.11,0.25c-3.32,3.52-6.19,6.91-11.19,8.1
		c-1.84,0.43-3.04-1.04-3.1-2.48c-1.94,1.04-3.9,2.06-5.66,3.42c-2.55,1.97-5.03-2.38-2.52-4.32c4.44-3.43,9.34-5.2,13.32-9.31
		c3.2-3.31,6.64-6.19,10.9-8.05c9.1-3.98,18.35-0.77,26.64,3.57c0.75,0.39,1.1,0.98,1.2,1.6c3.11,0.18,7.71,0.55,10.27-1.04
		c-2.32-0.79-4.49-2.55-6.55-4.51c-2.38-2.27-4.98-3.12-7.54-4.98c-2.44-1.77-2.5-5.3-5.06-6.44c-3.39-1.5-10.56-0.64-10.55-6.3
		c0.01-4.56,5.89-4.52,9.08-4.39c3.17,0.13,6.43,0.5,9.35-1.17c1.63-0.94,2.65-2.22,4.44-2.91c1.77-0.69,3.72-0.78,5.59-1.12
		c3.34-0.59,6.39-1.59,9.45-3c2.02-0.93,4.28-2.27,6.57-2.26c4.42,0.01,5.45,4.5,3.06,7.62c-1.46,1.91-3.78,3.26-6,4.09
		c-1.23,0.46-2.42,0.67-3.7,0.9c-1.02,0.11-2.04,0.26-3.05,0.43c-2.34,0.5-2.9,1.55-1.67,3.16c0.84,0.28,1.33,0.85,1.56,1.51
		c1.95-0.22,3.91-0.29,5.92-0.72c3.01-0.63,5.03-2.65,6.96-4.91c5-5.86,3.39-11.36,4.35-18.33c0.54-3.89,2.61-5.71,5.72-7.77
		c2.59-1.72,5.75-5.46,9.17-5.23c3.19,0.22,4.69,3.9,4.6,6.7c-0.1,3.19-2.13,5.63-4.09,7.95c-1.2,1.41-2.85,2.84-2.91,4.82
		c-0.06,2.02,1.77,3.99,2.8,5.58c2.09,3.23,3.11,6.33,1.7,10.06c-0.15,0.4-0.37,0.72-0.63,0.97c-0.11,1.96-0.85,3.73-1.47,5.97
		c-0.89,3.25,0.33,4.7,1.38,7.6c0.24,0.66,0.4,1.31,0.48,1.95c0.81-0.05,1.64,0.28,2.2,1.15c0.25,0.39,0.5,0.82,0.75,1.26
		c0.15,0.03,0.31,0.08,0.48,0.14c4.02,1.66,5.72,5.52,9.29,7.76c4.19,2.62,9.86,1.84,14.6,1.9c5.01,0.06,10.14,0.11,14.69-2.25
		c3.35-1.74,6.49-3.42,9.89-4.71c0.2-0.28,0.47-0.53,0.83-0.74c6.6-3.7,13.67-6.05,21.1-6.84c-4.7-5.61-12.14-4.24-18.82-4.16
		c-3.22,0.04-3.22-4.96,0-5c5.39-0.06,11.27-0.83,16.45,1.11c5.02,1.89,6.03,6.84,10.15,9.51c5.38,3.49,15.85,1.08,21.62-0.29
		c7.41-1.76,15.39-2.59,21.83-6.93c0.68-0.46,1.35-0.52,1.92-0.33c0.45-0.5,0.91-0.98,1.41-1.39c2.31-1.91,4.77-3.48,6.96-5.58
		c4.26-4.07,8.74-8.5,11.51-13.76c2.11-4.01,3.03-8.34,3.51-12.76c-0.3-1.79-0.53-3.6-0.87-5.34c-0.59-2.97-0.95-5.97-1.33-8.97
		c-2.18-4.7-5.25-9.22-7.12-13.77c-0.56-1.36-1.51-2.26-2.61-2.77c-2.31-10.06-16.42-20.87-33.67-27.26
		c-0.88,0.95-1.9,1.79-3.26,2.46c-3.39,1.68-6.95,2.44-10.67,2.93c-9.83,1.28-19.14,1.99-29.07,1.74
		c-3.53-0.09-7.69,0.43-11.05-1.01c-2.99-1.28-3.81-3.76-5.56-6.28c-2.33-3.35-5.7-5.83-8-9.2c-1.5-2.2-2.43-4.72-3.21-7.27
		c-1.19-1.31-2.91-2.81-4.25-3.89c-0.27-0.19-0.52-0.37-0.79-0.57c-0.47-0.34-0.96-0.7-1.44-1.05c-2.66-1.68-5.68-2.83-8.33-4.65
		c-6.47-4.45-13.36-7.14-20.9-9.3c-5-1.43-10.19-1.85-15.17-3.17c-2.93,3.23-6.84,4.47-11.32,5.79c-3.31,0.98-6.33,2.61-9.56,3.8
		c-3.4,1.25-7.01,1.13-10.35,2.59c-5.25,2.29-9.73,6.45-15.68,3.87c-2.15-0.93-3.72-2.55-6.24-2.48c-1.35,0.04-2.6,0.57-3.84,1.05
		c-0.01,0.54-0.22,1.1-0.71,1.6c-2.69,2.75-6.22,4.23-8.87,7.02c-3.11,3.27-4.51,6.22-6.31,10.26c-1.75,3.92-4.87,7.91-9.63,7.22
		c-3.99-0.57-7.53-4.31-6.94-8.49c0.14-0.99,0.59-1.64,0.92-2.57c0.36-0.49,0.76-0.96,1.18-1.41c-0.55-0.97-1.1-1.94-1.65-2.92
		c-0.77-0.21-3.57,1.16-4.47,1.31c-1.01,0.17-2.06,0.32-3.09,0.22c-5.2-0.52-5.59-4.96-3.7-8.83c2.68-5.46,0.38-12.03,5.33-16.68
		c3.95-3.72,9.71-2.87,14.36-1.15c7.73,2.87,14.46,7.83,22.9,8.58c0.42,0.04,0.78,0.17,1.1,0.35c1.78-0.5,3.63-0.74,5.48-0.44
		c3.25,0.54,5.53,3.17,8.82,2.87c2.89-0.26,5.9-2.45,8.54-3.72c2.59-1.24,5.07-1.58,7.86-2.08c3.02-0.55,5.65-1.91,8.46-3.08
		c3.95-1.65,8.63-2.19,12.05-4.61c-3.63-1.65-6.88-3.83-9.69-6.53c-0.21-0.05-0.42-0.12-0.63-0.23c-3.29-1.74-4.95-4.63-6.68-7.79
		c-0.86-1.57-1.68-3.13-3.09-4.2c-1.38,0.21-3.06,0.63-3.6,0.68c-3.81,0.38-7.84,0.11-10.71,3.04c-2.82,2.87-3.77,7.91-8.38,8.78
		c-2.98,0.56-5.26-1.46-4.46-4.44c0.73-2.75,2.73-4.61,4.48-6.66c-1.5-1.39-4.93-0.67-6.73-0.6c-2.25,0.09-4.26-0.07-6.39-0.86
		c-3.05-1.13-5.32-3.22-8.7-3.44c-2.46-0.16-5.08,0.03-7.53,0.31c-7.9,0.9-19.11,6.65-26.34,0.64c-2.11-1.75-3.24-4.69-6.05-5.52
		c-2.55-0.76-5.57,0.01-8.19-0.22c-0.73-0.06-1.47-0.18-2.2-0.36c-1.85,0.15-3.7,0.27-5.56,0.4c-1.73,1.69-3.46,2.75-4.85,2.81
		c-3.04,0.13-4.01,4.05-2.19,8.77c2.88,7.49-0.46,12.08-5.4,12.08c-0.32,0.67-0.74,1.32-1.3,1.93c-2.24,2.49-5.36,3.58-7.47,6.3
		c-2.85,3.68-7.67,4.91-11.81,2.29c-5.12-3.24-7.45-7.04-2.98-11.99c0.76-0.84,1.66-1.54,2.48-2.31c-0.4-1.23-0.02-2.83,1.52-3.44
		c1.96-0.78,1.43-7.95,1.12-9.26c-0.85-3.61-4.57-5.02-7.94-4.12c-2.13,0.57-3.75,1.81-6,2.12c-1.23,0.17-2.46,0.2-3.69,0.18
		c-3.08,1.16-5.82,1.63-7.71,1.15c-1.06-0.27-2.01-0.42-2.91-0.41c-0.76,0.85-1.18,1.87-2.01,2.86c-1.15,1.37-2.76,2.25-3.68,3.83
		c-1.7,2.91-1.35,7.12-1.63,10.4c-0.11,1.31-0.53,3.21,0.83,4.13c2.44,1.64,4.28-1.62,5.36-3.07c1.29-1.74,2.42-3.48,4.61-4.18
		c3.92-1.26,7.2,2.3,5.95,6.18c-0.7,2.17-2.93,4.16-4.79,5.81c2.72,1.86,4.39,4.81,5.78,8.04c1.01,2.34,1.79,4.74,1.42,7.33
		c-0.39,2.79-2.17,4.31-3.77,6.48c-1.9,2.56-6.23,0.06-4.32-2.52c0.84-1.14,2.22-2.32,2.84-3.55c1.01-2-0.11-4.36-0.92-6.16
		c-1.02-2.27-2.13-4.46-4.21-5.67c-0.28,0.47-0.75,0.84-1.45,1.01c-6.69,1.6-2.96,8.38-4.89,12.47c-1.46,3.08-5.54,2.82-8.32,1.88
		c-3.61-1.22-5.2-4.18-5.52-7.82c-0.13-1.53-0.02-2.95,0.22-4.35c-0.01-0.21-0.02-0.43-0.04-0.64c-0.02-0.19-0.11-0.82-0.24-1.46
		c-0.12,0.3-0.24,0.59-0.36,0.9c-0.32,0.8-0.7,1.42-1.14,1.92c0.08,0.72,0.05,1.44-0.14,2.15c-0.41,1.51-1.46,2.83-2.61,3.85
		c-2.14,1.89-5.35,2.83-7-0.2c-0.87-1.6-0.84-3.74-0.96-5.5c-0.05-0.75-0.11-1.48-0.18-2.21c-1.31-0.76-2.75-1.66-4.35-2.7
		c-1.98,2.65-4.17,4.19-6.65,4.93c1.4,2.69,2.19,5.47,2.65,8.88c0,0.04,0.01,0.07,0.02,0.11c3.91,4.2,5.85,10,8.06,15.31
		c1.69,4.06,4.63,9.01,3.92,13.57c-0.88,5.68-7.19,4.33-9.34,0.24c-1.99-3.79-2.51-8.38-3.9-12.41c-0.48-1.39-1.04-2.74-1.63-4.08
		c-0.5-1.05-0.97-2.11-1.43-3.18c-0.43-0.96-0.85-1.92-1.25-2.89c-0.46-0.28-0.85-0.72-1.05-1.38c-0.31-0.98-0.42-2-0.5-3.02
		c-0.03-0.1-0.06-0.2-0.09-0.3c-0.12-0.44-0.12-0.84-0.03-1.2c-0.01-0.14-0.03-0.28-0.05-0.43c-0.29-0.51-0.35-1.07-0.24-1.61
		c-0.13-0.85-0.19-1.82-0.52-2.56c-0.42-0.95-1.27-1.73-1.8-2.62c-0.06-0.11-0.1-0.21-0.14-0.32c0.03,1.11-0.04,2.21-0.3,3.33
		c-0.4,1.75-0.34,3.51-0.78,5.24c-0.48,1.92-2.82,2.3-4.18,1.1c-1.19-1.05-2.18-2.32-2.98-3.72c-0.7-0.03-1.36-0.41-1.75-1.3
		c-0.54-1.24-1.98-2.31-3.27-3.18c-0.29,1.27-0.43,2.62-0.4,4.08c0.02,0.89,0.11,1.79,0.25,2.71c0.3,0.21,0.56,0.5,0.76,0.93
		c3.07,6.58,9.56,10.8,13.2,17.13c1.72,2.99,3.49,6.07,4.07,9.51c0.29,1.71,0.37,3.42,0.42,5.13c0.69,2.26,1.53,4.47,2.37,6.68
		c0.76,1.11,1.48,2.18,1.91,3.15c0.97,2.19,1.65,4.52,2.18,6.86c0.51,2.29,0.81,4.5,0.57,6.61l0.18,0.95
		c0.02,0.28,0.06,0.55,0.09,0.83c-0.19,0.35-0.39,0.71-0.6,1.07c-1.29,9.2-5.94,17.9-10.98,25.59
		c-4.47,6.82-10.21,11.14-17.76,12.59c-4.02,7.05-7.25,14.16-8.82,19.92c-5.05,18.54-5.24,22.51,1.93,25.88
		c0.81-2.66,1.65-6.3,1.75-7c0.25-1.81-0.04-3.69,0.14-5.51c0.27-2.71,2.01-6.68,5.44-4.87c2.8,1.48,3.11,6.09,3.25,8.83
		c0.14,2.81,0.06,5.58-0.44,8.21c0.19,0.32,0.32,0.7,0.35,1.15c0.37,5.39,0.36,9.41-4.18,13c-4.08,3.22-11.02,5.5-13.27,10.48
		c-0.28,0.62-0.7,0.99-1.17,1.17l18.54,29.67c2.73,4.36,5.74,9.38,8.85,14.73c2.55,2.29,4.76,5.23,6.56,7.57
		c4.15,5.4,7.46,11.84,10.1,18.23c3.6,5.1,7.08,10.27,10.57,15.43c0.91-0.22,1.87,0.09,2.37,1.23c1.92,4.38,5.8,8,8.23,12.19
		c2.62,4.53,5.15,8.51,8.57,12.49c2.86,3.33,4.25,6.6,5.88,10.66c1.69,4.2,4.09,8.04,6.39,11.93c0.11,0.09,0.22,0.19,0.33,0.3
		c1.43,1.55,2.63,3.16,3.18,5.12c1.39,0.72,2.85,1.44,4.4,2.17c12.62,5.97,32.84,17.15,44.9,24.92l15.85,10.3
		c9.81,2.78,13.99,18.55,14.79,27.09c1.54,16.35,0.93,32.27-1.36,48.42c0.18,0.51,0.28,1.07,0.29,1.71
		c0.04,5.55,0.2,11.13,0.39,16.68c0.16,4.65,0.48,9.22-0.74,13.76c-0.04,0.17-0.1,0.32-0.15,0.48c1.08,3.89,0.5,8.4,0.65,12.4
		c0.1,2.47,0,4.92-0.15,7.38c1.19,2.38,0.58,5.46,0.42,7.98c-0.32,5.06-0.63,10.11-0.95,15.17c0,0,0,0.01,0,0.01
		c0.82,2.68,0.22,5.62-0.02,8.36c-0.31,3.62-0.42,7.16-0.4,10.8c0.01,1.43-0.48,2.54-1.24,3.33c0.65,3.05,0.04,6.43-0.15,9.48
		c-0.36,5.84-0.09,11.65-0.28,17.48c0,0.03-0.01,0.06-0.01,0.1c0.71,3.23,0.25,6.88-1.06,10.1c0,0.03,0,0.06,0,0.1
		c-0.08,5.02-0.46,10.01-0.39,15.04c0.06,4.16,0.37,8.36-0.13,12.49c-0.94,7.79-1.84,15.98-5.44,23.04
		c-0.48,0.95-0.97,1.86-1.46,2.75c0.26,4.31-0.28,8.81-0.92,12.76c-1.03,6.41-4.42,12.56-5.08,18.98c-0.32,3.1,0.7,6.27,0.57,9.41
		c-0.09,2.13-0.61,4.27-0.74,6.4c0.48,1.34,0.82,2.78,0.97,4.35c0.94,9.95-2.63,19.82-2.61,29.76c0.01,5.29-0.24,10.56-0.28,15.84
		c-0.02,2.87-0.39,5.55-1.73,7.86c0.15,0.26,0.3,0.52,0.44,0.8c1.69,3.36,1.7,7.2,1.81,10.87c0.02,0.72,0.07,1.44,0.11,2.17
		c2.62-0.43,4.94-1.71,5.62-4.58c0.68-2.86,0.7-5.87,0.9-8.83c-0.18-0.34-0.28-0.74-0.25-1.23c0.26-4.58,0.94-10.74,3.58-14.62
		c1.08-1.59,4.2-1.71,4.57,0.6c0.71,4.48-0.05,8.94-0.28,13.45c-0.24,4.85-0.51,9.66-0.96,14.5c-0.47,5.12-0.07,10.15,0,15.27
		c0.05,3.76,0.36,7.67-1.83,10.88c-1.22,1.79-3.87,1.51-4.57-0.6c-1.08-3.27-0.78-6.58-0.7-9.97c0.1-4.04,0.17-8.08,0.31-12.12
		c-1.81,1.28-3.88,1.97-6.06,2.25c0.19,2.28,0.37,4.55,0.46,6.84c0.33,8.53-0.11,17.21-5.63,24.12c-1.19,1.49-2.49,2.85-3.89,4.14
		c-0.95,0.88-3.54,2.27-4.11,3.36c-1.02,1.98,1.02,4.1,2.77,5c1.29,0.67,2.4,0.71,3.58,0.47c1.03-1.09,2.02-2.22,2.77-3.53
		c3.21-5.58,11.85-0.54,8.63,5.05c-1.14,1.98-2.63,3.69-4.18,5.35c-0.37,0.65-0.9,1.22-1.59,1.67c-1.24,1.25-3.02,2.92-3.24,4.59
		c-0.23,1.75-1.02,3.32-2.35,4.22c0.22,1.73,0.36,3.44,0.45,5.04c0.39,6.88,0.47,13.82,2.22,20.53c1.78,6.83,5.16,13.23,8.61,19.34
		c3.42,6.05,6.79,12.44,11.25,17.8c4.5,5.41,9.74,9,15.81,12.44c6.49,3.68,12.56,7.14,19.57,9.76c3.13,1.17,6.09,2.62,9.13,3.99
		c0.23,0.11,0.47,0.19,0.71,0.28c0.16,0.01,0.32,0.03,0.48,0.04c0.08,0.08,0.17,0.16,0.26,0.23c1.57,0.52,3.17,0.78,4.79,0.93
		c13.42-3.24,26.3-9.71,40.26-9.55c0.2-0.26,0.44-0.51,0.56-0.74c1.15-2.13,1.49-2.75,0.2-3.61c-2.59-1.73-7.68-1.3-10.65-1.55
		c-9.02-0.77-16.14-5.12-22.07-11.89c-6.16-7.04-12.95-16.36-14.43-25.79c-1-6.36,0.93-12.35,4.67-17.13
		c0.58-1.61,1.29-3.19,2.11-4.71c3.48-6.37,9.64-10.5,10.75-17.6c0.27-0.17,0.52-0.33,0.75-0.48c4.62-2.99,10.29-4.5,11.01-10.8
		c0.4-3.49-0.45-7.44-2.84-10.01c0.03-0.04,0.06-0.07,0.09-0.1c-0.53-0.13-1.07-0.27-1.59-0.45c-2.97-1.01-5.72-2.51-8.43-4.07
		c-4.2-2.41-10.23-6.31-7.16-11.96c2.63-4.84,9.95-8.42,14.57-11.02c2.81-1.58,5.68-3.06,8.56-4.5c2.19-4.25,1.63-8.7-0.38-12.98
		c0.45-4.47,3.98-8.59,7.43-11.29c2.93-2.29,7.17-1.94,9.09-5.76c1.48-2.93,0.47-6.8-2.51-8.34c-2.87-1.48-6.93-0.04-9.98-0.74
		c0.32-1.14,0.69-2.29,1.15-3.39c-0.44-0.36-0.87-0.74-1.28-1.17c-1.73-1.79-3.08-3.97-4.09-6.24c-0.54-1.21-1.25-4.31-2.63-4.58
		c-6.32-1.24-3.63-10.87,2.66-9.64c5.3,1.04,6.87,5.68,8.94,9.93c1.22,2.51,2.49,3.89,4.32,4.63c1.1-0.62,2.03-1.46,2.67-3.1
		c0.05-0.13,0.08-0.28,0.13-0.42c0.83-0.59,0.96-1.2,0.45-1.92c0.4-2.76,0.05-5.88,0.13-8.49c0.14-4.47,0.41-8.93,0.8-13.38
		c0.26-3.04-0.39-3.79,2.2-5.03c1.65-0.79,3.77-1.09,5.55-1.47c15.17-3.24,31.23-1.06,45.67-7.65c6.56-2.99,8.98-7.25,5.92-14.13
		c-0.63-1.41-1.34-2.76-2.12-4.06c-0.9-0.43-1.8-0.86-2.7-1.28c-4.67-2.17-8.65-4.83-12.12-8.67c-3.37-3.73-7.2-7.36-9.49-11.91
		c-2.3-4.59-2.93-9.54-3.05-14.61c-0.15-6.25-1.34-11.93-3.6-17.76c-1.89-4.88-4.74-9.28-6.76-14.1c-1.87-4.48-2.61-8.93-1.4-13.69
		c0.62-2.43,1.83-4.69,2.24-7.18c0.44-2.69,0.1-5.6-0.03-8.31c-0.05-1.05,0.18-1.93,0.59-2.63c-0.19-7.56-0.45-15.15,1.46-22.54
		c1.83-7.09,6.03-13.18,10.86-18.58c5.15-5.76,11.01-11.2,17.14-15.89c2.88-2.2,7.15-4,9.57-6.63c2.24-2.44,2.62-6.76,3.95-9.78
		c2.58-5.89,11.2-0.79,8.63,5.05c-0.16,0.35-0.29,0.71-0.43,1.08c0.82,0.79,1.3,1.97,1.11,3.55c-0.69,5.79,0.49,10.99-2.68,16.27
		c-2.61,4.34-6.7,7.9-10.48,11.19c-0.9,0.79-1.82,1.57-2.73,2.35c0.08,0.17,0.16,0.35,0.23,0.53c0.2,0.54,0.37,1.1,0.53,1.66
		c0.27,0.03,0.54,0.08,0.81,0.15c3.1-1.51,6.13-3.22,9.2-4.45c5.98-2.41,8.55,7.27,2.66,9.64c-2,0.81-3.93,1.73-5.84,2.65
		c0.27,1.72-0.4,3.5-2.5,4.51c-4.01,1.93-7.5,2.62-9.13,7.2c-1.19,3.34-1.33,7.19-1.3,10.69c0.02,1.78,0.25,3.51,0.61,5.19
		c1.4,2.32,3.47,4.47,6.3,3c0.06-0.03,0.11-0.05,0.17-0.08c3.24-5.77,7.41-11.24,11.73-16.23c4.46-5.14,8.96-9.64,10.65-16.45
		c1.55-6.25,11.19-3.59,9.64,2.66c-2.98,12.04-13.18,19.79-19.94,29.66c-0.88,1.29-1.75,2.66-2.59,4.09
		c0.38,0.91,0.51,1.98,0.23,3.19c-1.23,5.37-0.57,10.91-0.5,16.37c0.02,1.76-0.71,3.04-1.79,3.84c-0.51,5.58-2.52,15.2,1.18,19.9
		c3,3.81,10.66,2.75,14.93,4.03c3.52,1.05,6.01,3.77,8.75,5.72c0.63-0.32,1.19-0.75,1.68-1.26c-0.23-4.92-0.21-9.9,2.06-14.4
		c2.58-5.13,6.79-9.05,11.56-12.32c-0.03-0.25-0.07-0.49-0.11-0.73c0.29,0.09,0.57,0.16,0.85,0.23c4.47-2.96,9.36-5.39,13.84-7.72
		c1.58-0.82,3.17-1.64,4.75-2.47c-0.16-0.47-0.1-1.01,0.36-1.46c0.35-0.34,2.51-2.34,3.93-4.32c-0.01-0.03-0.03-0.06-0.04-0.09
		c-0.48-2.05-0.37-5.1,0.85-6.9c2.05-2.99,6.91-4.07,7.25-8.35c0.17-2.15-1.12-3.25-3.01-3.79c-2.14-0.21-4.29-0.25-6.44-0.19
		c-4.78,0.11-9.52,0.64-14.31,0.54c-0.51-0.01-0.88-0.21-1.12-0.5c-1.22,0.09-2.42,0.08-3.68-0.31c-0.57-0.18-0.94-0.64-1.05-1.16
		c-0.62-0.58-0.61-1.48-0.05-2.15c0.78-0.95,1.84-1.08,2.98-0.89c0.09-0.05,0.19-0.08,0.29-0.09c6.33-0.88,13.33-0.13,19.74-0.12
		c3.94,0.01,9.25-0.81,13.35,0.38c2.79-0.76,5.09-1.49,7.49-3.52c2.24-1.88,4.19-4.01,6.29-6.03c2.57-2.48,5.48-3.87,8.67-4.63
		c1.11-1.01,2.14-2.07,2.91-3.31c1.31-2.09,1.9-4.45,3.12-6.57c0.36-2.13,0.72-4.28,0.93-6.43c0.74-7.48-0.41-14.99,0.64-22.47
		c1.07-7.65,4.55-14,10.94-18.49c4.97-3.5,11.75-6.97,18.19-8.41c-0.16-0.37-0.31-0.74-0.45-1.11c50.8-12.38,72.8-29.64,72.8-29.64
		l12.6-17.7l1.13-6.86c-0.55-5.18,4.55-10.43,6.48-15c2.69-6.39,5.97-12.48,8.04-19.1c2.14-6.84,5.61-13.46,7.04-20.49
		c1.15-5.62-0.11-11.45,1.32-17c-0.54-4.85-1.53-9.62-0.32-14.5c1.05-4.2,3.27-8.7,6.35-11.77c3.72-3.72,8.92-5.21,13.32-7.92
		c4.69-2.88,8.69-6.54,12.2-10.74c0-0.46-0.01-0.94-0.01-1.39c11.14-6.2,21.54-14.11,30.1-23.56c-0.15-0.73-0.12-1.55,0.17-2.44
		C647.83,302.4,651.86,290.45,651.73,278.88z M221.17,114.41c1.61-1.48,4.31-1.46,5.89,0.08c2.01,1.97,2.1,5.85,1.44,8.98
		c-0.06,0.76-0.24,1.46-0.59,2.09c-0.1,0.27-0.2,0.52-0.3,0.75c-0.49,1.08-1.38,1.41-2.24,1.26c-3.68,1.08-6.26-4.42-6.24-7.6
		C219.13,118.04,219.69,115.77,221.17,114.41z M203.01,129.87c0.1-0.9,0.36-1.75,0.88-2.49c3.49-4.97,8.48,0.69,10.05,4.13
		c0.44,0.97,0.91,2.39,1.15,3.86c0.65,2.08,0.79,4.16,0.18,5.69c-0.16,0.4-0.38,0.71-0.65,0.96c0.23,0.6,0.24,1.3-0.11,2.02
		c-0.36,0.74-0.73,1.22-1.24,1.87c-0.91,1.14-2.58,0.77-3.54,0c-2.56-2.08-4.06-5.88-5.22-8.85c-0.07-0.17-0.13-0.34-0.2-0.52
		C202.74,134.32,201.95,131.79,203.01,129.87z"/>
</g>
</svg>
