<svg height="70" viewBox="0 0 512 512" width="70" xmlns="http://www.w3.org/2000/svg"><path d="m501.964844 258.566406c0 135.84375-110.121094 245.964844-245.964844 245.964844s-245.964844-110.121094-245.964844-245.964844c0-44.488281 11.808594-86.21875 32.46875-122.222656 9.464844-16.5 20.785156-31.796875 33.679688-45.605469 8.675781-9.289062 18.058594-17.902343 28.066406-25.761719 41.800781-32.808593 94.488281-52.375 151.75-52.375 135.84375 0 245.964844 110.121094 245.964844 245.964844zm0 0" fill="#fcb651"/><path d="m419.976562 256c0 90.5625-73.414062 163.976562-163.976562 163.976562s-163.976562-73.414062-163.976562-163.976562 73.414062-163.976562 163.976562-163.976562 163.976562 73.414062 163.976562 163.976562zm0 0" fill="#ffd36c"/><path d="m376.898438 208.453125s20.582031 38.933594 0 86.191406" fill="#ffd36c"/><path d="m437.019531 74.980469c-48.351562-48.351563-112.640625-74.980469-181.019531-74.980469-49.496094 0-103.839844 17.882812-149.097656 49.066406-4.5625 3.140625-5.710938 9.390625-2.566406 13.953125 3.140624 4.566407 9.390624 5.714844 13.953124 2.570313 41.988282-28.929688 92.183594-45.523438 137.710938-45.523438 130.09375 0 235.929688 105.839844 235.929688 235.933594s-105.835938 235.933594-235.929688 235.933594-235.933594-105.839844-235.933594-235.933594c0-41.1875 10.769532-81.722656 31.140625-117.230469 2.414063-4.207031 7.371094-11.789062 13.597657-20.796875 3.15625-4.558594 2.015624-10.808594-2.542969-13.960937-4.558594-3.152344-10.808594-2.011719-13.960938 2.546875-3.839843 5.554687-10.828125 15.824218-14.5 22.222656-22.113281 38.542969-33.800781 82.535156-33.800781 127.21875 0 68.378906 26.628906 132.667969 74.980469 181.019531 48.351562 48.351563 112.640625 74.980469 181.019531 74.980469s132.667969-26.628906 181.019531-74.980469c48.351563-48.351562 74.980469-112.640625 74.980469-181.019531s-26.628906-132.667969-74.980469-181.019531zm0 0"/><path d="m256 430.011719c95.949219 0 174.011719-78.0625 174.011719-174.011719s-78.0625-174.011719-174.011719-174.011719-174.011719 78.0625-174.011719 174.011719 78.0625 174.011719 174.011719 174.011719zm0-327.953125c84.882812 0 153.941406 69.054687 153.941406 153.941406 0 84.882812-69.058594 153.941406-153.941406 153.941406-84.886719 0-153.945312-69.058594-153.945312-153.941406 0-84.886719 69.0625-153.941406 153.945312-153.941406zm0 0"/><path d="m241.652344 369.265625v7.558594c0 5.542969 4.492187 10.035156 10.03125 10.035156 5.542968 0 10.035156-4.492187 10.035156-10.035156v-8.472657c8.230469-1.355468 18.542969-4.144531 28.175781-9.871093 18.265625-10.855469 27.921875-28.386719 27.921875-50.699219 0-37.003906-35.675781-57.746094-56.097656-61.273438v-74.78125c7.070312 1.480469 14.363281 5.558594 20.347656 11.546876 5.847656 5.847656 6.128906 9.886718 6.128906 21.851562 0 5.542969 4.492188 9.992188 10.03125 9.992188 5.542969 0 10.035157-4.535157 10.035157-10.074219 0-12.320313 0-23.953125-12.007813-35.960938-9.925781-9.925781-22.25-16.179687-34.535156-17.6875v-7.589843c0-5.539063-4.492188-10.035157-10.035156-10.035157-5.539063 0-10.035156 4.496094-10.035156 10.035157v9.21875c-6.855469 1.738281-14.472657 4.722656-21.53125 9.375-11.832032 7.796874-25.933594 22.882812-25.933594 50.449218 0 18.496094 9.171875 33.453125 26.519531 43.257813 7.148437 4.039062 14.546875 6.542969 20.945313 8.03125v84.816406c-17.574219-3.539063-31.5-23.035156-31.5-45.714844 0-5.539062-4.496094-10.03125-10.035157-10.03125-5.539062 0-10.035156 4.492188-10.035156 10.03125 0 17.113281 5.773437 33.449219 16.25 46.007813 9.597656 11.496094 21.972656 18.46875 35.324219 20.019531zm56.09375-61.484375c0 27.664062-21.015625 37.011719-36.027344 40.15625v-80.847656c12.472656 3.664062 36.027344 16.9375 36.027344 40.691406zm-67.167969-69.148438c-10.988281-6.207031-16.328125-14.640624-16.328125-25.785156 0-14.960937 5.691406-26.296875 16.914062-33.695312 3.367188-2.222656 6.996094-3.910156 10.484376-5.152344v69.34375c-3.640626-1.136719-7.480469-2.679688-11.070313-4.710938zm0 0"/><path d="m82.011719 92.144531c.753906 0 1.523437-.085937 2.292969-.265625l.371093-.085937c5.394531-1.261719 8.742188-6.660157 7.480469-12.058594-1.261719-5.394531-6.660156-8.738281-12.058594-7.480469l-.367187.085938c-5.394531 1.261718-8.746094 6.660156-7.484375 12.058594 1.085937 4.625 5.207031 7.746093 9.765625 7.746093zm0 0"/><path d="m361.324219 337.441406c.765625 0 1.542969-.089844 2.320312-.273437l.367188-.085938c5.394531-1.277343 8.730469-6.683593 7.453125-12.078125-1.277344-5.390625-6.679688-8.722656-12.074219-7.453125l-.367187.085938c-5.394532 1.277343-8.730469 6.683593-7.457032 12.078125 1.09375 4.613281 5.210938 7.726562 9.757813 7.726562zm0 0"/><path d="m372.890625 303.84375c1.304687.570312 2.664063.839844 4 .839844 3.871094 0 7.558594-2.253906 9.203125-6.03125 22.257812-51.097656.605469-93.125-.328125-94.890625-2.589844-4.898438-8.660156-6.769531-13.558594-4.179688-4.898437 2.589844-6.773437 8.660157-4.183593 13.558594.183593.347656 18.113281 35.15625-.328126 77.5-2.210937 5.078125.113282 10.992187 5.195313 13.203125zm0 0"/></svg>