<svg id="Layer_1" enable-background="new 0 0 512 512" height="70" viewBox="0 0 512 512" width="70" xmlns="http://www.w3.org/2000/svg"><path d="m196.998 90h40v292h-40z" fill="#ffc144"/><path d="m356.999 342-40 40h-272.001l41.059 70.387c17.921 30.722 50.811 49.613 86.378 49.613h304.565l10-120h10v-40z" fill="#faf7f5"/><circle cx="162.498" cy="442" fill="#beece1" r="20"/><path d="m44.998 302h152v-212z" fill="#beece1"/><path d="m213.998 10h60v40h-60z" fill="#ff5a58"/><path d="m445 302h-208.001v-212z" fill="#beece1"/><path d="m506.999 341.844c-.044-2.635-1.194-5.275-3.114-7.083-.25-.239-.513-.476-.787-.687l-51.448-39.574-88.46-90.16c-1.89-1.93-4.43-2.99-7.13-2.99-2.64 0-5.12 1.01-7.01 2.86-1.9 1.87-2.97 4.37-2.99 7.04-.03 2.67.99 5.18 2.85 7.09l.01.01 72.26 73.65h-174.18v-177.529l38.89 39.639c1.9 1.931 4.43 2.99 7.14 2.99 2.63 0 5.12-1.01 7-2.859 3.94-3.86 4-10.2.14-14.141l-56.032-57.103c-.012-.012-.025-.023-.037-.035-1.848-1.868-4.471-2.962-7.101-2.962h-13v-20h50c5.523 0 10-4.478 10-10v-40c0-5.522-4.477-10-10-10h-60c-5.523 0-10 4.478-10 10v70s-6.995 0-7.024.001c-2.931.124-5.984 1.479-7.826 3.817-.093.118-.189.232-.277.355l-181.876 251.827c-1.192 1.588-1.888 3.543-1.988 5.525-.001.012.001.024 0 .036-.097 2.264.602 4.585 1.964 6.4.009.012.016.026.025.039l29.653 39.537 40.769 69.889c19.635 33.662 56.044 54.574 95.015 54.574h304.565c5.201 0 9.534-3.986 9.965-9.17l9.236-110.83h.799c5.523 0 10-4.478 10-10v-40c0-.052 0-.104-.001-.156zm-283-321.844h40v20h-40zm23 292h194.6l26 20h-110.6c-2.652 0-5.196 1.054-7.071 2.929l-37.071 37.071h-65.858zm-40.001-212h20v272h-20zm-20 21.109v170.891h-122.526zm-137 190.891h137.001v60h-20v-30c0-5.522-4.477-10-10-10h-122.001zm97 40v20h-20v-20zm-40 0v20h-20v-20zm-72 0h32v20h-17zm452.002 20c-5.201 0-9.534 3.986-9.965 9.17l-9.236 110.83h-295.364c-31.886 0-61.674-17.109-77.741-44.652l-32.286-55.348h274.591c5.51 0 10-4.49 10-10 0-4.278-2.713-7.931-6.502-9.355l20.644-20.645h125.859z"/><path d="m162.498 412c-16.542 0-30 13.458-30 30s13.458 30 30 30 30-13.458 30-30-13.458-30-30-30zm0 40c-5.514 0-10-4.486-10-10s4.486-10 10-10 10 4.486 10 10-4.486 10-10 10z"/><path d="m381.999 392c5.51 0 10-4.49 10-10s-4.49-10-10-10-10 4.49-10 10 4.49 10 10 10z"/><path d="m427 392h20c5.51 0 10-4.49 10-10s-4.49-10-10-10h-20c-5.51 0-10 4.49-10 10s4.489 10 10 10z"/><path d="m324.539 189.229c2.64 0 5.12-1.02 7-2.87 1.91-1.869 2.98-4.369 3-7.04.03-2.67-.99-5.189-2.86-7.1-1.9-1.93-4.43-2.99-7.14-2.99-2.63 0-5.12 1.011-7 2.86-3.94 3.86-4 10.2-.14 14.14 1.9 1.931 4.43 3 7.14 3z"/></svg>