<svg class="icon" height="70" viewBox="0 0 60 60" width="70" xmlns="http://www.w3.org/2000/svg"><g id="Page-1" fill="none" fill-rule="evenodd"><g id="037---Dead-Fish-In-Bottle" fill-rule="nonzero" transform="translate(-1)"><g id="Color" transform="translate(2 1)"><path id="Shape" d="m57.42 11.69-2.77 2.78-1.39-1.39-8.34-8.34-1.39-1.39 2.78-2.77c.7751932-.74930737 2.0048068-.74930737 2.78 0l8.33 8.33c.7493074.77519323.7493074 2.0048068 0 2.78z" fill="#f44335"/><path id="Shape" d="m57.42 8.91-8.33-8.33c-.7751932-.74930737-2.0048068-.74930737-2.78 0l-.11.11 8.22 8.22c.7493074.77519323.7493074 2.0048068 0 2.78l-1.27 1.31.11.11 1.39 1.39 2.77-2.78c.7688434-.7788944.7688434-2.0311056 0-2.81z" fill="#c81e1e"/><path id="Shape" d="m54 27.67-5.56 5.56c-.7751932.7493074-2.0048068.7493074-2.78 0 .7493074.7751932.7493074 2.0048068 0 2.78l-1.44 1.39c-.7739076.7428857-1.9960924.7428857-2.77 0 .7493074.7751932.7493074 2.0048068 0 2.78l-1.39 1.38c-.7751932.7493074-2.0048068.7493074-2.78 0 .7493074.7751932.7493074 2.0048068 0 2.78l-1.39 1.39c-.7751932.7493074-2.0048068.7493074-2.78 0 .7493074.7751932.7493074 2.0048068 0 2.78l-8.34 8.34c-1.5372829 1.5306819-4.0227171 1.5306819-5.56 0l-18.06-18.06c-1.53068195-1.5372829-1.53068195-4.0227171 0-5.56l8.34-8.34c.7751932-.7493074 2.0048068-.7493074 2.78 0-.7493074-.7751932-.7493074-2.0048068 0-2.78l1.39-1.39c.7751932-.7493074 2.0048068-.7493074 2.78 0-.7493074-.7751932-.7493074-2.0048068 0-2.78l1.38-1.39c.7751932-.7493074 2.0048068-.7493074 2.78 0-.7428857-.7739076-.7428857-1.9960924 0-2.77l1.4-1.39c.7751932-.7493074 2.0048068-.7493074 2.78 0-.7493074-.7751932-.7493074-2.0048068 0-2.78l5.56-5.56c2.3036511-2.30152117 6.0363489-2.30152117 8.34 0l2.08 2.08c.7751932.74930737 2.0048068.74930737 2.78 0l1.39-1.39 8.34 8.34-1.39 1.39c-.7493074.7751932-.7493074 2.0048068 0 2.78l2.12 2.08c2.3015212 2.3036511 2.3015212 6.0363489 0 8.34z" fill="#00bcd4"/><path id="Shape" d="m35.67 4.05 2.08 2.08c.7751932.74930737 2.0048068.74930737 2.78 0l.11-.13-2-2c-1.4898285-1.44927307-3.6340922-2.00434844-5.64-1.46 1.0058006.26348889 1.9258676.78382641 2.67 1.51z" fill="#00838f"/><path id="Shape" d="m54 19.33-2.08-2.08c-.7493074-.7751932-.7493074-2.0048068 0-2.78l1.39-1.39-8.39-8.34-1.39 1.39-.12.1 6.85 6.85-1.39 1.39c-.7493074.7751932-.7493074 2.0048068 0 2.78l2.13 2.08c2.3015212 2.3036511 2.3015212 6.0363489 0 8.34l-5.56 5.56c-.7751932.7493074-2.0048068.7493074-2.78 0 .7493074.7751932.7493074 2.0048068 0 2.78l-1.44 1.39c-.7739076.7428857-1.9960924.7428857-2.77 0 .7493074.7751932.7493074 2.0048068 0 2.78l-1.39 1.38c-.7751932.7493074-2.0048068.7493074-2.78 0 .7493074.7751932.7493074 2.0048068 0 2.78l-1.39 1.39c-.7751932.7493074-2.0048068.7493074-2.78 0 .7493074.7751932.7493074 2.0048068 0 2.78l-8.34 8.34c-.3646919.3671038-.8001664.6562861-1.28.85 1.467362.6074809 3.1561285.272095 4.28-.85l8.34-8.34c.7493074-.7751932.7493074-2.0048068 0-2.78.7751932.7493074 2.0048068.7493074 2.78 0l1.39-1.39c.7493074-.7751932.7493074-2.0048068 0-2.78.7751932.7493074 2.0048068.7493074 2.78 0l1.39-1.38c.7493074-.7751932.7493074-2.0048068 0-2.78.7739076.7428857 1.9960924.7428857 2.77 0l1.39-1.4c.7493074-.7751932.7493074-2.0048068 0-2.78.7751932.7493074 2.0048068.7493074 2.78 0l5.61-5.55c2.3015212-2.3036511 2.3015212-6.0363489 0-8.34z" fill="#00838f"/><path id="Shape" d="m35.19 22.81c2.249231 2.4090128 4.340264 4.9610083 6.26 7.64 3.47-6.25 2.77-13.9 1.39-15.29s-9-2.08-15.29 1.39c2.6789917 1.919736 5.2309872 4.010769 7.64 6.26z" fill="#f5f5f5"/><path id="Shape" d="m42.84 15.16c-.77-.76-3.44-1.31-6.72-1.07 1.3171599-.0089566 2.6088918.36259 3.72 1.07 1.2 1.21 1.88 7.16-.25 12.81 1.09 1.41 1.86 2.48 1.86 2.48 3.47-6.25 2.77-13.9 1.39-15.29z" fill="#cfd8dc"/><path id="Shape" d="m16.44 41.56c-2.09 2.09 4.86 9 4.86 9s4.86-6.26-1.39-12.51-12.51-1.35-12.51-1.35 6.95 6.95 9.04 4.86z" fill="#f5f5f5"/><path id="Shape" d="m19.91 38.09c-3.08-3.09-6.15-3.46-8.48-3.09 2.0991323.4288201 4.0136867 1.4978961 5.48 3.06 4 4 3.44 8.09 2.5 10.44 1 1.2 1.89 2.07 1.89 2.07s4.86-6.23-1.39-12.48z" fill="#cfd8dc"/></g><g id="Outline" fill="#000"><path id="Shape" d="m53.19 2.26-1.4-1.39c-1.1653011-1.13690921-3.0246989-1.13690921-4.19 0l-2.78 2.78c-.3877236.39003745-.3877236 1.01996255 0 1.41l.69.68-.69.69c-.3835532.35571719-.9764468.35571719-1.36 0l-2.09-2.09c-1.2923716-1.29398285-3.0461709-2.02107045-4.875-2.02107045s-3.5826284.7270876-4.875 2.02107045l-5.55 5.56c-.5126991.5136937-.8217935 1.1958331-.87 1.92-.7193167.0478663-1.3973435.3531559-1.91.86l-1.39 1.39c-.5259216.5116277-.84611 1.1982539-.9 1.93-.7208871.0415189-1.401055.3477725-1.91.86l-1.39 1.39c-.5154278.5067217-.8222672 1.1881905-.86 1.91-.6920785.0585621-1.342396.3554462-1.84.84l-1.39 1.39c-.5154278.5067217-.8222672 1.1881905-.86 1.91-.7228284.0455054-1.4047926.3509685-1.92.86l-8.39 8.36c-.93065343.9269844-1.45379863 2.1864492-1.45379863 3.5s.5231452 2.5730156 1.45379863 3.5l18.07 18.04c.9269844.9306534 2.1864492 1.4537986 3.5 1.4537986s2.5730156-.5231452 3.5-1.4537986l8.34-8.34c.5090315-.5152074.8144946-1.1971716.86-1.92.7208871-.0415189 1.401055-.3477725 1.91-.86l1.38-1.39c.5126991-.5136937.8217935-1.1958331.87-1.92.7218095-.0377328 1.4032783-.3445722 1.91-.86l1.39-1.39c.4893726-.5094066.7832957-1.1751601.83-1.88.7215771-.0386906 1.4027152-.3453811 1.91-.86l1.39-1.39c.5154278-.5067217.8222672-1.1881905.86-1.91.7228284-.0455054 1.4047926-.3509685 1.92-.86l5.56-5.56c2.6892397-2.6936915 2.6892397-7.0563085 0-9.75l-2.09-2.09c-.3557172-.3835532-.3557172-.9764468 0-1.36l.69-.69.68.69c.3900375.3877236 1.0199625.3877236 1.41 0l2.78-2.78c1.1369092-1.1653011 1.1369092-3.0246989 0-4.19zm2.05 18.74c.9184288.917235 1.4344971 2.1619894 1.4344971 3.46s-.5160683 2.542765-1.4344971 3.46l-5.55 5.56c-.38495.3619426-.98505.3619426-1.37 0-.3900375-.3877236-1.0199625-.3877236-1.41 0-.1893127.1877666-.2957983.4433625-.2957983.71s.1064856.5222334.2957983.71c.3557172.3835532.3557172.9764468 0 1.36l-1.39 1.39c-.38495.3619426-.98505.3619426-1.37 0-.3900375-.3877236-1.0199625-.3877236-1.41 0-.3877236.3900375-.3877236 1.0199625 0 1.41.1786807.1853775.2789747.4325305.28.69-.0035759.254003-.1036849.4971249-.28.68l-1.39 1.39c-.38495.3619426-.98505.3619426-1.37 0-.3900375-.3877236-1.0199625-.3877236-1.41 0-.3877236.3900375-.3877236 1.0199625 0 1.41.1763151.1828751.2764241.425997.28.68-.0010253.2574695-.1013193.5046225-.28.69l-1.39 1.4c-.3835532.3557172-.9764468.3557172-1.36 0-.3893608-.3921221-1.0228778-.3943607-1.415-.005-.3921221.3893608-.3943607 1.0228778-.005 1.415.1763151.1828751.2764241.425997.28.68-.0010253.2574695-.1013193.5046225-.28.69l-8.33 8.33c-1.1602101 1.1111325-2.9897899 1.1111325-4.15 0l-18.06-18.03c-.55500705-.5492757-.86505541-1.2991601-.86-2.08-.00693452-.7782744.30361563-1.5257614.86-2.07l8.34-8.33c.1828751-.1763151.425997-.2764241.68-.28.254003.0035759.4971249.1036849.68.28.2536586.2572312.62528.3595974.974878.2685383.3495981-.0910592.6240605-.3617096.72-.71s-.0012194-.7213071-.254878-.9785383c-.3557172-.3835532-.3557172-.9764468 0-1.36l1.39-1.39c.38495-.3619426.98505-.3619426 1.37 0 .2860905.2884599.7182668.3751619 1.0934815.219371.3752147-.155791.6188811-.5231059.6165185-.929371-.003757-.2637693-.1115857-.5153695-.3-.7-.1786807-.1853775-.2789747-.4325305-.28-.69.0035759-.254003.1036849-.4971249.28-.68l1.39-1.39c.38495-.3619426.98505-.3619426 1.37 0 .3900375.3877236 1.0199625.3877236 1.41 0 .3877236-.3900375.3877236-1.0199625 0-1.41-.3619426-.38495-.3619426-.98505 0-1.37l1.39-1.39c.38495-.3619426.98505-.3619426 1.37 0 .2857003.2801197.7108712.3629755 1.0808485.210632.3699772-.1523436.6135314-.5105568.6191515-.910632.0015368-.265803-.1028135-.5212812-.29-.71-.1873302-.1780858-.2984299-.4217883-.31-.68.0010253-.2574695.1013193-.5046225.28-.69l5.52-5.55c.9159246-.92089181 2.1611699-1.43866305 3.46-1.43866305s2.5440754.51777124 3.46 1.43866305l2.08 2.08c1.1665305 1.14342863 3.0334695 1.14342863 4.2 0l.68-.68 6.92 6.92-.68.68c-1.1434286 1.1665305-1.1434286 3.0334695 0 4.2zm3.48-9-2.07 2.08-9.71-9.73 2.06-2.07c.3835532-.35571719.9764468-.35571719 1.36 0l.68.69-.68.68c-.3877236.39003745-.3877236 1.01996255 0 1.41.1887188.18718651.444197.29153676.71.29.2623399-.00110462.5137394-.10525584.7-.29l.69-.68 1.36 1.36-.68.69c-.3877236.39003745-.3877236 1.01996255 0 1.41.3900375.38772359 1.0199625.38772359 1.41 0l.69-.68 1.36 1.36-.68.69c-.3877236.39003745-.3877236 1.0199625 0 1.41.3900375.3877236 1.0199625.3877236 1.41 0l.67-.68.68.68c.3796625.3755325.3972733.9831071.04 1.38z"/><path id="Shape" d="m29.07 16.68c-.3033074.1651954-.4999013.4752088-.52.82-.0186573.3428761.1399138.6713449.42.87 2.3575154 1.6961076 4.6239928 3.5152978 6.79 5.45l-2 2.06c-2.3078638-2.2087998-5.0255761-3.9447385-8-5.11-.3394023-.114325-.7140146-.0388967-.9827241.1978719-.2687095.2367685-.3906928.5989065-.32.95s.3233218.6378031.6627241.7521281c2.6843823 1.0658579 5.1388997 2.6376996 7.23 4.63l-2.76 2.76c-1.9093697-1.7567195-4.2041559-3.0411148-6.7-3.75-.5522847-.1242641-1.1007359.2227153-1.225.775s.2227153 1.1007359.775 1.225c2.1288704.6212514 4.0883786 1.7189864 5.73 3.21l-2.76 2.77c-1.5522405-1.2883507-3.4323685-2.1193465-5.43-2.4-.2654479-.0249745-.5298782.0570888-.7345475.2279595-.2046694.1708707-.3326289.416399-.3554525.6820405-.0463658.5457159.3548692 1.0271979.9 1.08 1.5344179.2374934 2.9812954.8679186 4.2 1.83l-2.05 2c-3.6186013-3.3466204-9.0951824-3.6771399-13.09-.79-.22715587.1765752-.36725241.4424347-.38448418.7296309-.01723177.2871963.09007099.5678997.29448418.7703691 1.4 1.41 5.44 5.19 8.36 5.51.17 1.76 1.62 3.73 2.22 4.54 1.0167628 1.3521424 2.1225486 2.6349876 3.31 3.84.1870714.1908556.4427541.2988906.71.3h.06c.2865937-.0160261.552482-.1544337.73-.38 2.8871399-3.9948176 2.5566204-9.4713987-.79-13.09l2-2c.9555044 1.2188478 1.5852511 2.6607268 1.83 4.19.046703.5168638.4810348.9121057 1 .91h.09c.2656415-.0228236.5111698-.1507831.6820405-.3554525.1708707-.2046693.252934-.4690996.2279595-.7345475-.2806535-1.9976315-1.1116493-3.8777595-2.4-5.43l2.77-2.76c1.4818556 1.6498173 2.5813365 3.606347 3.22 5.73.1047542.4651526.5233401.7916496 1 .78.0730085.0097619.1469915.0097619.22 0 .2586729-.0595235.4830686-.2194458.6237478-.4445326.1406793-.2250868.186099-.4968691.1262522-.7554674-.7088852-2.4958441-1.9932805-4.7906303-3.75-6.7l2.77-2.76c1.9873496 2.0930315 3.5555811 4.547212 4.62 7.23.1429939.4253709.5518476.7033915 1 .68.1061738-.0004632.2113209-.0208143.31-.06.5243985-.1715258.8107915-.7353618.64-1.26-1.1652615-2.9744239-2.9012002-5.6921362-5.11-8l2.06-2.05c1.8932591 2.1232891 3.6756315 4.3429101 5.34 6.65.1887222.2650724.4946135.4217484.82.42.342742-.0180175.6522978-.2105461.82-.51 3.65-6.58 3-14.74 1.22-16.48s-9.85-2.43-16.42 1.25zm-5.94 33.32c-.62-.68-1.47-1.66-2.24-2.7-2-2.71-1.94-3.8-1.75-4 .3877236-.3900375.3877236-1.0199625 0-1.41-.3900375-.3877236-1.0199625-.3877236-1.41 0-.65.64-3.75-1.25-6.71-4 1.85-1 6-2.29 10.18 1.93s2.89 8.29 1.93 10.18zm20.15-20.46c-1.6542694-2.2591173-3.4512672-4.4101705-5.38-6.44-2.0277038-1.9311168-4.1789149-3.7282467-6.44-5.38 5.65-2.5 11.74-1.77 12.67-.85s1.65 7.02-.85 12.67z"/><circle id="Oval" cx="39.97" cy="19.64" r="1"/></g></g></g></svg>