<svg height="70" viewBox="0 0 64 64" width="70" xmlns="http://www.w3.org/2000/svg"><g id="Filled_outline" data-name="Filled outline"><path d="m11 3h42v4h-42z" fill="#636f7a"/><path d="m13 7h38v50h-38z" fill="#7d8d9c"/><path d="m11 57h42v4h-42z" fill="#636f7a"/><path d="m13 21h38v23h-38z" fill="#fcf05a"/><g fill="#f4f4e6"><path d="m16 12h2v9h-2z"/><path d="m22 54h-5a1 1 0 0 1 -1-1v-10h2v9h4z"/><path d="m24 52h2v2h-2z"/></g><path d="m34 33a1.994 1.994 0 0 1 -1.44 1.911l3.176 5.161a8 8 0 0 0 4.264-7.072z" fill="#394d5c"/><path d="m32 31a1.988 1.988 0 0 1 1.382.559l3.928-4.532a7.969 7.969 0 0 0 -10.593-.027l3.9 4.554a1.994 1.994 0 0 1 1.383-.554z" fill="#394d5c"/><path d="m30 33h-6a8 8 0 0 0 4.264 7.072l3.176-5.161a1.994 1.994 0 0 1 -1.44-1.911z" fill="#394d5c"/><circle cx="32" cy="33" fill="#f4f4e6" r="2"/><path d="m27 7v8a2 2 0 0 0 4 0 2 2 0 0 1 4 0v4a2 2 0 0 0 4 0v-6a2 2 0 0 1 4 0v14a2 2 0 0 0 4 0v-20z" fill="#8ec13f"/><path d="m54 8v-6h-44v6h2v48h-2v6h44v-6h-2v-48zm-2 52h-40v-2h40zm-23-42a3 3 0 0 0 3-3 1 1 0 0 1 2 0v4a2.966 2.966 0 0 0 .184 1h-16.184v-8h-2v8h-2v-12h12v7a3 3 0 0 0 3 3zm12-8a3 3 0 0 0 -3 3v6a1 1 0 0 1 -2 0v-4a3 3 0 0 0 -6 0 1 1 0 0 1 -2 0v-7h18v19a1 1 0 0 1 -2 0v-14a3 3 0 0 0 -3-3zm1 3v7h-2.184a2.966 2.966 0 0 0 .184-1v-6a1 1 0 0 1 2 0zm0 9v5a3 3 0 0 0 6 0v-5h2v21h-36v-21zm6-2v-12h2v12zm-32 25v8a1 1 0 0 0 1 1h5v-2h-4v-7h32v11h-36v-11zm-4-39v-2h40v2z"/><path d="m24 52h2v2h-2z"/><path d="m27.8 40.956.828.438 3.322-5.4c.019 0 .036.005.054.005s.035-.005.054-.005l3.322 5.4.828-.438a8.987 8.987 0 0 0 4.792-7.956v-1h-6.184a3.1 3.1 0 0 0 -.166-.377l4.062-4.686-.737-.657a8.968 8.968 0 0 0 -11.919-.027l-.741.652 4.039 4.711a3.067 3.067 0 0 0 -.17.384h-6.184v1a8.987 8.987 0 0 0 4.8 7.956zm5.2-7.956a1 1 0 1 1 -1-1 1 1 0 0 1 1 1zm3.064 5.7-2.114-3.439a3 3 0 0 0 .866-1.261h4.113a6.988 6.988 0 0 1 -2.865 4.7zm-.2-11.527-2.669 3.08a2.971 2.971 0 0 0 -2.379 0l-2.651-3.093a7.113 7.113 0 0 1 7.697.01zm-6.68 6.827a3 3 0 0 0 .866 1.261l-2.114 3.439a6.988 6.988 0 0 1 -2.865-4.7z"/></g></svg>