<?xml version="1.0" encoding="iso-8859-1"?>
<!-- Generator: Adobe Illustrator 19.0.0, SVG Export Plug-In . SVG Version: 6.00 Build 0)  -->
<svg version="1.1" id="Layer_1" xmlns="http://www.w3.org/2000/svg" xmlns:xlink="http://www.w3.org/1999/xlink" x="0px" y="0px"
	 viewBox="0 0 512 512" style="enable-background:new 0 0 512 512;" width="70" height="70" xml:space="preserve">
<path style="fill:#404040;" d="M280.269,110.569L256,68.439l-24.269,42.13c-140.209,0-238.618,392.947,7.404,392.947h33.73
	C518.887,503.516,420.478,110.569,280.269,110.569z"/>
<path style="opacity:0.2;enable-background:new    ;" d="M276.979,110.569l1.645-2.855L256,68.439l-24.269,42.13
	c-140.21,0-238.618,392.947,7.404,392.947h33.73c1.941,0,3.861-0.025,5.759-0.074C39.918,497.339,137.877,110.569,276.979,110.569z"
	/>
<path style="fill:#4B4B4B;" d="M280.269,110.569c11.043-3.509,21.632-9.788,30.627-18.783c8.995-8.995,15.274-19.584,18.783-30.627
	c6.113-19.236-10.514-35.862-29.75-29.75c-5.7,1.811-11.276,4.366-16.578,7.646c-1.43-6.068-3.566-11.818-6.315-17.129
	c-9.279-17.924-32.793-17.924-42.072,0c-2.75,5.311-4.886,11.061-6.315,17.129c-5.301-3.279-10.878-5.835-16.578-7.646
	c-19.236-6.113-35.862,10.514-29.75,29.75c3.509,11.043,9.788,21.632,18.783,30.627c8.995,8.995,19.584,15.274,30.627,18.783
	H280.269z"/>
<g style="opacity:0.2;">
	<path d="M204.946,61.159c-3.908-12.299,1.486-23.521,10.909-28.425c-1.254-0.476-2.516-0.922-3.784-1.326
		c-19.236-6.112-35.862,10.514-29.749,29.75c3.509,11.043,9.788,21.632,18.783,30.627c8.995,8.995,19.584,15.274,30.627,18.783
		h22.624c-11.043-3.509-21.632-9.788-30.627-18.783C214.733,82.791,208.455,72.202,204.946,61.159z"/>
</g>
<path d="M263.973,270.742c1.228,3.487,4.503,5.668,8.002,5.668c0.935,0,1.886-0.156,2.818-0.484l41.446-14.595
	c0.016-0.006,0.031-0.014,0.046-0.019c0.195-0.07,0.386-0.152,0.576-0.235c4.003-1.774,6.036-6.64,4.502-10.732l-15.42-41.139
	c-1.645-4.388-6.534-6.611-10.922-4.967c-4.387,1.645-6.611,6.535-4.967,10.922l6.668,17.791
	c-10.295-4.387-21.452-6.701-32.833-6.701c-20.294,0-39.871,7.352-55.126,20.701c-3.526,3.086-3.883,8.445-0.798,11.971
	c1.676,1.916,4.026,2.897,6.388,2.897c1.983,0,3.974-0.691,5.584-2.099c12.161-10.641,27.771-16.502,43.952-16.502
	c10.887,0,21.51,2.663,31.003,7.64l-25.736,9.062C264.737,261.477,262.416,266.321,263.973,270.742z"/>
<path d="M335.618,353.227c10.475-17.381,14.284-37.944,10.726-57.9c-0.822-4.613-5.232-7.688-9.841-6.863
	c-4.613,0.822-7.685,5.228-6.863,9.841c2.837,15.909-0.201,32.303-8.554,46.164c-5.619,9.324-13.383,17.047-22.546,22.609
	l5.522-26.72c0.948-4.589-2.003-9.077-6.591-10.026c-4.588-0.949-9.078,2.002-10.026,6.591l-8.893,43.032
	c-0.003,0.016-0.005,0.033-0.008,0.049c-0.33,1.685-0.137,3.492,0.552,5.064c0.633,1.447,1.657,2.684,2.957,3.584
	c0.846,0.586,2.185,1.361,3.257,1.361l43.2,8.029c0.524,0.097,1.045,0.145,1.56,0.145c4.008,0,7.573-2.853,8.331-6.935
	c0.856-4.607-2.184-9.035-6.791-9.891l-18.679-3.472C322.002,371.335,329.743,362.976,335.618,353.227z"/>
<path d="M229.141,328.262c3.181-3.441,2.969-8.809-0.471-11.99l-32.265-29.829c-0.014-0.012-0.027-0.023-0.041-0.034
	c-1.484-1.344-3.468-2.175-5.475-2.213c-2.498-0.048-4.93,0.975-6.595,2.853l-29.169,32.846c-3.111,3.503-2.793,8.865,0.71,11.977
	c1.616,1.435,3.627,2.14,5.63,2.14c2.34,0,4.671-0.964,6.347-2.851l12.616-14.207c0.931,11.152,4.095,22.098,9.412,32.162
	c9.479,17.943,25.124,31.819,44.053,39.074c0.999,0.382,2.025,0.564,3.034,0.564c3.413,0,6.63-2.073,7.924-5.45
	c1.676-4.375-0.511-9.281-4.887-10.958c-15.09-5.783-27.564-16.847-35.122-31.155c-5.085-9.626-7.692-20.263-7.726-30.982
	l20.035,18.522C220.592,331.911,225.959,331.702,229.141,328.262z"/>
<path d="M400.263,438.004c1.226,0.619,2.53,0.912,3.815,0.912c3.101,0,6.088-1.706,7.581-4.664
	c17.747-35.172,23.956-80.032,17.955-129.732c-5.519-45.702-20.981-91.054-43.538-127.702c-22.77-36.993-50.21-61.211-79.187-70.477
	c3.52-2.584,6.862-5.441,9.977-8.556c9.635-9.635,16.851-21.411,20.871-34.057c3.291-10.356,1.702-21.047-4.357-29.332
	c-5.931-8.107-15.195-12.758-25.417-12.758c-3.536,0-7.113,0.567-10.63,1.684c-3.02,0.96-5.996,2.103-8.908,3.42
	c-1.128-2.991-2.424-5.903-3.881-8.717C278.7,6.739,268.019,0,255.973,0c-12.046,0-22.727,6.739-28.571,18.026
	c-1.457,2.814-2.753,5.727-3.881,8.718c-2.913-1.318-5.888-2.46-8.908-3.42c-3.518-1.118-7.094-1.684-10.631-1.684
	c-10.223,0-19.487,4.65-25.418,12.758c-6.06,8.284-7.647,18.975-4.356,29.332c4.018,12.646,11.235,24.422,20.87,34.057
	c3.128,3.128,6.484,5.995,10.019,8.587c-17.618,5.675-34.821,16.917-50.753,33.325c-3.263,3.362-3.184,8.733,0.178,11.996
	c3.361,3.263,8.733,3.185,11.996-0.178c20.619-21.238,43.16-32.464,65.185-32.464h48.537c32.473,0,64.927,23.674,91.384,66.659
	c21.3,34.605,35.912,77.522,41.144,120.843c5.599,46.365-0.024,87.879-16.259,120.052C394.4,430.792,396.08,435.893,400.263,438.004
	z M278.883,102.086h-45.82c-9.612-3.268-18.573-8.886-25.986-16.298c-7.724-7.724-13.497-17.129-16.696-27.197
	c-1.658-5.217-0.99-10.252,1.88-14.175c2.7-3.691,6.973-5.808,11.723-5.808c1.791,0,3.638,0.299,5.492,0.888
	c5.09,1.618,10.03,3.897,14.682,6.776c2.321,1.435,5.189,1.669,7.71,0.623c2.521-1.044,4.386-3.237,5.011-5.892
	c1.254-5.327,3.136-10.431,5.591-15.174c2.872-5.547,7.919-8.859,13.503-8.859c5.582,0,10.63,3.312,13.502,8.859
	c2.456,4.744,4.337,9.849,5.591,15.174c0.626,2.656,2.491,4.848,5.011,5.892c2.521,1.044,5.39,0.812,7.71-0.623
	c4.653-2.878,9.592-5.158,14.683-6.776c1.854-0.589,3.701-0.888,5.492-0.888c4.75,0,9.022,2.116,11.721,5.808
	c2.871,3.924,3.538,8.958,1.881,14.175c-3.199,10.069-8.973,19.473-16.696,27.197C297.456,93.2,288.495,98.816,278.883,102.086z"/>
<path d="M101.309,436.268C119.374,470.817,157.945,512,239.108,512h33.73c51.7,0,92.018-16.498,119.834-49.036
	c3.045-3.561,2.626-8.917-0.935-11.961c-3.561-3.044-8.915-2.626-11.961,0.935c-24.445,28.595-60.425,43.094-106.937,43.094h-33.73
	c-30.353,0-56.476-6.26-77.64-18.606c-19.108-11.147-34.29-27.302-45.123-48.021c-17.463-33.397-23.291-78.737-16.409-127.665
	c6.446-45.827,23.696-91.619,47.328-125.635c2.674-3.848,1.722-9.134-2.127-11.809c-3.849-2.675-9.135-1.721-11.807,2.127
	c-25.098,36.123-43.393,84.584-50.197,132.952C75.762,350.785,82.216,399.756,101.309,436.268z"/>
<g>
</g>
<g>
</g>
<g>
</g>
<g>
</g>
<g>
</g>
<g>
</g>
<g>
</g>
<g>
</g>
<g>
</g>
<g>
</g>
<g>
</g>
<g>
</g>
<g>
</g>
<g>
</g>
<g>
</g>
</svg>
